AmstelvarA2-Roman_wght1000_wdth125.ufo
<glyph name="quotedbl" format="2">
  <advance width="1431"/>
  <unicode hex="0022"/>
  <outline>
    <contour>
      <point x="356" y="964" type="line"/>
      <point x="186" y="1340" type="line"/>
      <point x="186" y="1417"/>
      <point x="297" y="1558"/>
      <point x="412" y="1558" type="qcurve" smooth="yes"/>
      <point x="526" y="1558"/>
      <point x="637" y="1417"/>
      <point x="637" y="1340" type="qcurve"/>
      <point x="465" y="964" type="line"/>
    </contour>
    <contour>
      <point x="964" y="964" type="line"/>
      <point x="794" y="1340" type="line"/>
      <point x="794" y="1417"/>
      <point x="905" y="1558"/>
      <point x="1019" y="1558" type="qcurve" smooth="yes"/>
      <point x="1134" y="1558"/>
      <point x="1245" y="1417"/>
      <point x="1245" y="1340" type="qcurve"/>
      <point x="1073" y="964" type="line"/>
    </contour>
  </outline>
</glyph>
<glyph name="numbersign" format="2">
  <advance width="1402"/>
  <unicode hex="0023"/>
  <outline>
    <contour>
      <point x="102" y="225" type="line"/>
      <point x="102" y="638" type="line"/>
      <point x="1205" y="638" type="line"/>
      <point x="1205" y="225" type="line"/>
    </contour>
    <contour>
      <point x="197" y="843" type="line"/>
      <point x="197" y="1256" type="line"/>
      <point x="1300" y="1256" type="line"/>
      <point x="1300" y="843" type="line"/>
    </contour>
    <contour>
      <point x="151" y="10" type="line"/>
      <point x="708" y="1526" type="line"/>
      <point x="821" y="1494" type="line"/>
      <point x="265" y="-22" type="line"/>
    </contour>
    <contour>
      <point x="606" y="10" type="line"/>
      <point x="1163" y="1526" type="line"/>
      <point x="1276" y="1494" type="line"/>
      <point x="719" y="-22" type="line"/>
    </contour>
  </outline>
</glyph>
<glyph name="dollar" format="2">
  <advance width="1372"/>
  <unicode hex="0024"/>
  <outline>
    <contour>
      <point x="74" y="276" type="qcurve"/>
      <point x="205" y="353" type="line"/>
      <point x="260" y="278"/>
      <point x="519" y="136"/>
      <point x="693" y="136" type="qcurve" smooth="yes"/>
      <point x="862" y="136"/>
      <point x="1039" y="250"/>
      <point x="1039" y="336" type="qcurve" smooth="yes"/>
      <point x="1039" y="440"/>
      <point x="815" y="534"/>
      <point x="628" y="590" type="qcurve" smooth="yes"/>
      <point x="408" y="656"/>
      <point x="122" y="887"/>
      <point x="122" y="1082" type="qcurve" smooth="yes"/>
      <point x="122" y="1278"/>
      <point x="450" y="1502"/>
      <point x="695" y="1502" type="qcurve" smooth="yes"/>
      <point x="844" y="1502"/>
      <point x="1103" y="1439"/>
      <point x="1210" y="1368" type="qcurve"/>
      <point x="1132" y="1261" type="line"/>
      <point x="1060" y="1305"/>
      <point x="838" y="1361"/>
      <point x="696" y="1361" type="qcurve" smooth="yes"/>
      <point x="529" y="1361"/>
      <point x="378" y="1274"/>
      <point x="378" y="1198" type="qcurve" smooth="yes"/>
      <point x="378" y="1125"/>
      <point x="513" y="1047"/>
      <point x="739" y="975" type="qcurve" smooth="yes"/>
      <point x="988" y="894"/>
      <point x="1298" y="674"/>
      <point x="1298" y="474" type="qcurve" smooth="yes"/>
      <point x="1298" y="270"/>
      <point x="927" y="1"/>
      <point x="690" y="1" type="qcurve" smooth="yes"/>
      <point x="464" y="1"/>
      <point x="161" y="155"/>
    </contour>
    <contour>
      <point x="611" y="-190" type="line"/>
      <point x="611" y="52" type="line"/>
      <point x="631" y="52" type="line"/>
      <point x="631" y="820" type="line"/>
      <point x="768" y="778" type="line"/>
      <point x="768" y="52" type="line"/>
      <point x="790" y="52" type="line"/>
      <point x="790" y="-140" type="line"/>
    </contour>
    <contour>
      <point x="610" y="1610" type="line"/>
      <point x="789" y="1649" type="line"/>
      <point x="789" y="1418" type="line"/>
      <point x="768" y="1418" type="line"/>
      <point x="768" y="778" type="line"/>
      <point x="631" y="820" type="line"/>
      <point x="631" y="1418" type="line"/>
      <point x="610" y="1418" type="line"/>
    </contour>
  </outline>
</glyph>
<glyph name="ampersand" format="2">
  <advance width="2111"/>
  <unicode hex="0026"/>
  <outline>
    <contour>
      <point x="726" y="-28" type="qcurve" smooth="yes"/>
      <point x="358" y="-28"/>
      <point x="71" y="227"/>
      <point x="80" y="369" type="qcurve" smooth="yes"/>
      <point x="88" y="511"/>
      <point x="388" y="736"/>
      <point x="856" y="883" type="qcurve"/>
      <point x="1013" y="926"/>
      <point x="1213" y="1084"/>
      <point x="1213" y="1204" type="qcurve" smooth="yes"/>
      <point x="1213" y="1290"/>
      <point x="1094" y="1402"/>
      <point x="980" y="1402" type="qcurve" smooth="yes"/>
      <point x="871" y="1402"/>
      <point x="736" y="1287"/>
      <point x="736" y="1194" type="qcurve" smooth="yes"/>
      <point x="736" y="1104"/>
      <point x="856" y="959"/>
      <point x="996" y="917" type="qcurve"/>
      <point x="1546" y="285" type="line" smooth="yes"/>
      <point x="1617" y="207"/>
      <point x="1728" y="111"/>
      <point x="1814" y="111" type="qcurve" smooth="yes"/>
      <point x="1881" y="111"/>
      <point x="1959" y="148"/>
      <point x="1996" y="183" type="qcurve"/>
      <point x="2074" y="110" type="line"/>
      <point x="2026" y="42"/>
      <point x="1890" y="-43"/>
      <point x="1678" y="-43" type="qcurve" smooth="yes"/>
      <point x="1446" y="-43"/>
      <point x="1170" y="120"/>
      <point x="1066" y="249" type="qcurve" smooth="yes"/>
      <point x="634" y="757" type="line"/>
      <point x="484" y="810"/>
      <point x="307" y="1014"/>
      <point x="315" y="1154" type="qcurve" smooth="yes"/>
      <point x="323" y="1302"/>
      <point x="638" y="1516"/>
      <point x="870" y="1516" type="qcurve" smooth="yes"/>
      <point x="1145" y="1516"/>
      <point x="1365" y="1344"/>
      <point x="1365" y="1197" type="qcurve" smooth="yes"/>
      <point x="1365" y="1068"/>
      <point x="1172" y="875"/>
      <point x="1016" y="829" type="qcurve"/>
      <point x="760" y="714"/>
      <point x="563" y="520"/>
      <point x="559" y="403" type="qcurve" smooth="yes"/>
      <point x="554" y="276"/>
      <point x="752" y="129"/>
      <point x="946" y="129" type="qcurve" smooth="yes"/>
      <point x="1258" y="129"/>
      <point x="1796" y="575"/>
      <point x="1956" y="873" type="qcurve"/>
      <point x="2083" y="858" type="line"/>
      <point x="1913" y="494"/>
      <point x="1269" y="-28"/>
    </contour>
    <contour>
      <point x="1396" y="773" type="line"/>
      <point x="1435" y="878"/>
      <point x="1571" y="1024"/>
      <point x="1637" y="1024" type="qcurve" smooth="yes"/>
      <point x="1687" y="1024"/>
      <point x="1831" y="966"/>
      <point x="1872" y="966" type="qcurve" smooth="yes"/>
      <point x="1904" y="966"/>
      <point x="1946" y="971"/>
      <point x="1977" y="991" type="qcurve"/>
      <point x="2106" y="864" type="line"/>
      <point x="2028" y="751"/>
      <point x="1945" y="707"/>
      <point x="1900" y="707" type="qcurve" smooth="yes"/>
      <point x="1862" y="707"/>
      <point x="1730" y="785"/>
      <point x="1686" y="785" type="qcurve" smooth="yes"/>
      <point x="1621" y="785"/>
      <point x="1518" y="749"/>
      <point x="1468" y="700" type="qcurve"/>
    </contour>
  </outline>
</glyph>
<glyph name="quotesingle" format="2">
  <advance width="823"/>
  <unicode hex="0027"/>
  <outline>
    <contour>
      <point x="365" y="964" type="line"/>
      <point x="186" y="1340" type="line"/>
      <point x="186" y="1417"/>
      <point x="297" y="1558"/>
      <point x="412" y="1558" type="qcurve" smooth="yes"/>
      <point x="526" y="1558"/>
      <point x="637" y="1417"/>
      <point x="637" y="1340" type="qcurve"/>
      <point x="457" y="964" type="line"/>
    </contour>
  </outline>
</glyph>
<glyph name="parenleft" format="2">
  <advance width="850"/>
  <unicode hex="0028"/>
  <outline>
    <contour>
      <point x="68" y="521" type="qcurve" smooth="yes"/>
      <point x="68" y="816"/>
      <point x="505" y="1389"/>
      <point x="748" y="1526" type="qcurve"/>
      <point x="830" y="1442" type="line"/>
      <point x="701" y="1291"/>
      <point x="502" y="796"/>
      <point x="502" y="521" type="qcurve" smooth="yes"/>
      <point x="502" y="246"/>
      <point x="697" y="-254"/>
      <point x="830" y="-401" type="qcurve"/>
      <point x="748" y="-485" type="line"/>
      <point x="505" y="-348"/>
      <point x="68" y="213"/>
    </contour>
  </outline>
</glyph>
<glyph name="parenright" format="2">
  <advance width="850"/>
  <unicode hex="0029"/>
  <outline>
    <contour>
      <point x="782" y="521" type="qcurve" smooth="yes"/>
      <point x="782" y="213"/>
      <point x="345" y="-348"/>
      <point x="101" y="-485" type="qcurve"/>
      <point x="20" y="-420" type="line"/>
      <point x="153" y="-270"/>
      <point x="347" y="240"/>
      <point x="347" y="521" type="qcurve" smooth="yes"/>
      <point x="347" y="802"/>
      <point x="149" y="1307"/>
      <point x="20" y="1461" type="qcurve"/>
      <point x="101" y="1526" type="line"/>
      <point x="345" y="1389"/>
      <point x="782" y="816"/>
    </contour>
  </outline>
</glyph>
<glyph name="asterisk" format="2">
  <advance width="932"/>
  <unicode hex="002A"/>
  <outline>
    <contour>
      <point x="465" y="664" type="qcurve" smooth="yes"/>
      <point x="388" y="664"/>
      <point x="323" y="771"/>
      <point x="343" y="837" type="qcurve" smooth="yes"/>
      <point x="446" y="1071" type="line"/>
      <point x="443" y="1074" type="line"/>
      <point x="287" y="866" type="line" smooth="yes"/>
      <point x="255" y="821"/>
      <point x="117" y="815"/>
      <point x="76" y="887" type="qcurve" smooth="yes"/>
      <point x="35" y="957"/>
      <point x="109" y="1073"/>
      <point x="165" y="1078" type="qcurve" smooth="yes"/>
      <point x="421" y="1106" type="line"/>
      <point x="420" y="1113" type="line"/>
      <point x="167" y="1143" type="line" smooth="yes"/>
      <point x="111" y="1148"/>
      <point x="37" y="1263"/>
      <point x="78" y="1335" type="qcurve" smooth="yes"/>
      <point x="119" y="1406"/>
      <point x="251" y="1395"/>
      <point x="290" y="1354" type="qcurve" smooth="yes"/>
      <point x="440" y="1148" type="line"/>
      <point x="445" y="1151" type="line"/>
      <point x="341" y="1397" type="line" smooth="yes"/>
      <point x="314" y="1458"/>
      <point x="390" y="1558"/>
      <point x="465" y="1558" type="qcurve" smooth="yes"/>
      <point x="544" y="1558"/>
      <point x="610" y="1458"/>
      <point x="590" y="1397" type="qcurve" smooth="yes"/>
      <point x="485" y="1151" type="line"/>
      <point x="489" y="1148" type="line"/>
      <point x="646" y="1354" type="line" smooth="yes"/>
      <point x="678" y="1399"/>
      <point x="815" y="1405"/>
      <point x="856" y="1333" type="qcurve" smooth="yes"/>
      <point x="898" y="1263"/>
      <point x="825" y="1147"/>
      <point x="767" y="1142" type="qcurve" smooth="yes"/>
      <point x="510" y="1116" type="line"/>
      <point x="511" y="1109" type="line"/>
      <point x="762" y="1073" type="line" smooth="yes"/>
      <point x="819" y="1067"/>
      <point x="892" y="953"/>
      <point x="851" y="881" type="qcurve" smooth="yes"/>
      <point x="810" y="810"/>
      <point x="672" y="814"/>
      <point x="641" y="861" type="qcurve" smooth="yes"/>
      <point x="490" y="1074" type="line"/>
      <point x="487" y="1071" type="line"/>
      <point x="588" y="837" type="line" smooth="yes"/>
      <point x="617" y="775"/>
      <point x="548" y="664"/>
    </contour>
  </outline>
</glyph>
<glyph name="plus" format="2">
  <advance width="1158"/>
  <unicode hex="002B"/>
  <outline>
    <contour>
      <point x="95" y="550" type="line"/>
      <point x="95" y="713" type="line"/>
      <point x="1063" y="713" type="line"/>
      <point x="1063" y="550" type="line"/>
    </contour>
    <contour>
      <point x="493" y="149" type="line"/>
      <point x="493" y="1115" type="line"/>
      <point x="665" y="1115" type="line"/>
      <point x="665" y="149" type="line"/>
    </contour>
  </outline>
</glyph>
<glyph name="comma" format="2">
  <advance width="806"/>
  <unicode hex="002C"/>
  <outline>
    <contour>
      <point x="233" y="-215" type="line"/>
      <point x="271" y="-187"/>
      <point x="363" y="-95"/>
      <point x="391" y="-12" type="qcurve"/>
      <point x="276" y="-4"/>
      <point x="155" y="115"/>
      <point x="155" y="213" type="qcurve" smooth="yes"/>
      <point x="155" y="311"/>
      <point x="291" y="456"/>
      <point x="398" y="456" type="qcurve" smooth="yes"/>
      <point x="497" y="456"/>
      <point x="640" y="327"/>
      <point x="640" y="197" type="qcurve" smooth="yes"/>
      <point x="640" y="7"/>
      <point x="383" y="-227"/>
      <point x="288" y="-277" type="qcurve"/>
    </contour>
  </outline>
</glyph>
<glyph name="hyphen" format="2">
  <advance width="881"/>
  <unicode hex="002D"/>
  <outline>
    <contour>
      <point x="98" y="482" type="line"/>
      <point x="98" y="782" type="line"/>
      <point x="441" y="775" type="line"/>
      <point x="783" y="782" type="line"/>
      <point x="783" y="482" type="line"/>
      <point x="441" y="489" type="line"/>
    </contour>
  </outline>
</glyph>
<glyph name="slash" format="2">
  <advance width="779"/>
  <unicode hex="002F"/>
  <outline>
    <contour>
      <point x="-49" y="-110" type="line"/>
      <point x="657" y="1556" type="line"/>
      <point x="805" y="1504" type="line"/>
      <point x="99" y="-162" type="line"/>
    </contour>
  </outline>
</glyph>
<glyph name="zero" format="2">
  <advance width="1906"/>
  <unicode hex="0030"/>
  <outline>
    <contour>
      <point x="92" y="752" type="qcurve" smooth="yes"/>
      <point x="92" y="1101"/>
      <point x="580" y="1536"/>
      <point x="954" y="1536" type="qcurve" smooth="yes"/>
      <point x="1339" y="1536"/>
      <point x="1814" y="1107"/>
      <point x="1814" y="760" type="qcurve" smooth="yes"/>
      <point x="1814" y="433"/>
      <point x="1344" y="-27"/>
      <point x="959" y="-27" type="qcurve" smooth="yes"/>
      <point x="572" y="-27"/>
      <point x="92" y="400"/>
    </contour>
    <contour>
      <point x="586" y="778" type="qcurve" smooth="yes"/>
      <point x="587" y="495"/>
      <point x="788" y="116"/>
      <point x="952" y="116" type="qcurve" smooth="yes"/>
      <point x="1129" y="116"/>
      <point x="1318" y="461"/>
      <point x="1320" y="752" type="qcurve" smooth="yes"/>
      <point x="1322" y="1025"/>
      <point x="1121" y="1378"/>
      <point x="955" y="1378" type="qcurve" smooth="yes"/>
      <point x="776" y="1378"/>
      <point x="585" y="1058"/>
    </contour>
  </outline>
</glyph>
<glyph name="two" format="2">
  <advance width="1407"/>
  <unicode hex="0032"/>
  <outline>
    <contour>
      <point x="50" y="0" type="line"/>
      <point x="50" y="277" type="line"/>
      <point x="79" y="422"/>
      <point x="263" y="684"/>
      <point x="463" y="794" type="qcurve" smooth="yes"/>
      <point x="660" y="904"/>
      <point x="818" y="1025"/>
      <point x="818" y="1143" type="qcurve" smooth="yes"/>
      <point x="818" y="1246"/>
      <point x="669" y="1377"/>
      <point x="546" y="1377" type="qcurve" smooth="yes"/>
      <point x="416" y="1377"/>
      <point x="204" y="1289"/>
      <point x="116" y="1193" type="qcurve"/>
      <point x="40" y="1305" type="line"/>
      <point x="126" y="1419"/>
      <point x="434" y="1536"/>
      <point x="666" y="1536" type="qcurve" smooth="yes"/>
      <point x="1016" y="1536"/>
      <point x="1314" y="1344"/>
      <point x="1314" y="1190" type="qcurve" smooth="yes"/>
      <point x="1314" y="1019"/>
      <point x="1030" y="779"/>
      <point x="778" y="687" type="qcurve" smooth="yes"/>
      <point x="615" y="626"/>
      <point x="402" y="518"/>
      <point x="369" y="447" type="qcurve"/>
      <point x="379" y="430" type="line"/>
      <point x="1379" y="430" type="line"/>
      <point x="1379" y="0" type="line"/>
    </contour>
  </outline>
</glyph>
<glyph name="three" format="2">
  <advance width="1420"/>
  <unicode hex="0033"/>
  <outline>
    <contour>
      <point x="22" y="143" type="qcurve"/>
      <point x="93" y="267" type="line"/>
      <point x="187" y="186"/>
      <point x="366" y="125"/>
      <point x="496" y="125" type="qcurve" smooth="yes"/>
      <point x="638" y="125"/>
      <point x="826" y="265"/>
      <point x="826" y="413" type="qcurve" smooth="yes"/>
      <point x="826" y="576"/>
      <point x="556" y="725"/>
      <point x="345" y="725" type="qcurve" smooth="yes"/>
      <point x="291" y="725" type="line"/>
      <point x="253" y="838" type="line"/>
      <point x="371" y="843" type="line" smooth="yes"/>
      <point x="572" y="850"/>
      <point x="790" y="1006"/>
      <point x="790" y="1154" type="qcurve" smooth="yes"/>
      <point x="790" y="1271"/>
      <point x="647" y="1390"/>
      <point x="536" y="1390" type="qcurve" smooth="yes"/>
      <point x="419" y="1390"/>
      <point x="241" y="1311"/>
      <point x="145" y="1225" type="qcurve"/>
      <point x="106" y="1351" type="line"/>
      <point x="207" y="1448"/>
      <point x="508" y="1536"/>
      <point x="703" y="1536" type="qcurve" smooth="yes"/>
      <point x="966" y="1536"/>
      <point x="1269" y="1347"/>
      <point x="1269" y="1191" type="qcurve" smooth="yes"/>
      <point x="1269" y="1034"/>
      <point x="1019" y="848"/>
      <point x="782" y="805" type="qcurve"/>
      <point x="782" y="798" type="line"/>
      <point x="1021" y="772"/>
      <point x="1321" y="561"/>
      <point x="1321" y="384" type="qcurve" smooth="yes"/>
      <point x="1321" y="185"/>
      <point x="939" y="-27"/>
      <point x="633" y="-27" type="qcurve" smooth="yes"/>
      <point x="435" y="-27"/>
      <point x="135" y="43"/>
    </contour>
  </outline>
</glyph>
<glyph name="four" format="2">
  <advance width="1609"/>
  <unicode hex="0034"/>
  <outline>
    <contour>
      <point x="66" y="557" type="line"/>
      <point x="862" y="1563" type="line"/>
      <point x="1003" y="1526" type="line"/>
      <point x="1257" y="1510" type="line"/>
      <point x="1251" y="494" type="line"/>
      <point x="1251" y="159" type="line"/>
      <point x="1604" y="124" type="line"/>
      <point x="1604" y="0" type="line"/>
      <point x="451" y="0" type="line"/>
      <point x="451" y="124" type="line"/>
      <point x="809" y="159" type="line"/>
      <point x="818" y="492" type="line"/>
      <point x="818" y="1305" type="line"/>
      <point x="260" y="601" type="line"/>
      <point x="266" y="591" type="line"/>
      <point x="1551" y="565" type="line"/>
      <point x="1551" y="439" type="line"/>
      <point x="86" y="435" type="line"/>
    </contour>
  </outline>
</glyph>
<glyph name="five" format="2">
  <advance width="1501"/>
  <unicode hex="0035"/>
  <outline>
    <contour>
      <point x="20" y="143" type="qcurve"/>
      <point x="94" y="266" type="line"/>
      <point x="162" y="210"/>
      <point x="377" y="129"/>
      <point x="535" y="129" type="qcurve" smooth="yes"/>
      <point x="699" y="129"/>
      <point x="928" y="283"/>
      <point x="928" y="448" type="qcurve" smooth="yes"/>
      <point x="928" y="612"/>
      <point x="580" y="786"/>
      <point x="287" y="786" type="qcurve" smooth="yes"/>
      <point x="175" y="786" type="line"/>
      <point x="132" y="855" type="line"/>
      <point x="200" y="1476" type="line"/>
      <point x="227" y="1509" type="line"/>
      <point x="1313" y="1509" type="line"/>
      <point x="1267" y="1076" type="line"/>
      <point x="292" y="1076" type="line"/>
      <point x="282" y="1065" type="line"/>
      <point x="263" y="910" type="line"/>
      <point x="450" y="952" type="line"/>
      <point x="998" y="953"/>
      <point x="1423" y="725"/>
      <point x="1423" y="501" type="qcurve" smooth="yes"/>
      <point x="1423" y="257"/>
      <point x="981" y="-27"/>
      <point x="637" y="-27" type="qcurve" smooth="yes"/>
      <point x="412" y="-27"/>
      <point x="113" y="66"/>
    </contour>
  </outline>
</glyph>
<glyph name="seven" format="2">
  <advance width="1152"/>
  <unicode hex="0037"/>
  <outline>
    <contour>
      <point x="38" y="731" type="line"/>
      <point x="85" y="1509" type="line"/>
      <point x="1139" y="1509" type="line"/>
      <point x="1139" y="1271" type="line"/>
      <point x="807" y="636" type="line"/>
      <point x="617" y="-23" type="line"/>
      <point x="293" y="-23" type="line"/>
      <point x="293" y="50" type="line"/>
      <point x="625" y="674" type="line"/>
      <point x="812" y="1058" type="line"/>
      <point x="796" y="1071" type="line"/>
      <point x="199" y="1071" type="line"/>
      <point x="158" y="731" type="line"/>
    </contour>
  </outline>
</glyph>
<glyph name="eight" format="2">
  <advance width="1372"/>
  <unicode hex="0038"/>
  <outline>
    <contour>
      <point x="60" y="391" type="qcurve" smooth="yes"/>
      <point x="60" y="586"/>
      <point x="368" y="810"/>
      <point x="530" y="861" type="qcurve"/>
      <point x="635" y="797" type="line"/>
      <point x="471" y="741"/>
      <point x="225" y="564"/>
      <point x="225" y="417" type="qcurve" smooth="yes"/>
      <point x="225" y="281"/>
      <point x="476" y="102"/>
      <point x="664" y="102" type="qcurve" smooth="yes"/>
      <point x="835" y="102"/>
      <point x="1032" y="202"/>
      <point x="1032" y="308" type="qcurve" smooth="yes"/>
      <point x="1032" y="402"/>
      <point x="824" y="526"/>
      <point x="564" y="631" type="qcurve" smooth="yes"/>
      <point x="311" y="737"/>
      <point x="118" y="953"/>
      <point x="118" y="1122" type="qcurve" smooth="yes"/>
      <point x="118" y="1296"/>
      <point x="454" y="1543"/>
      <point x="714" y="1543" type="qcurve" smooth="yes"/>
      <point x="974" y="1543"/>
      <point x="1231" y="1361"/>
      <point x="1231" y="1226" type="qcurve" smooth="yes"/>
      <point x="1231" y="1091"/>
      <point x="1008" y="895"/>
      <point x="836" y="818" type="qcurve"/>
      <point x="725" y="882" type="line"/>
      <point x="878" y="946"/>
      <point x="1065" y="1084"/>
      <point x="1065" y="1193" type="qcurve" smooth="yes"/>
      <point x="1065" y="1296"/>
      <point x="889" y="1422"/>
      <point x="744" y="1422" type="qcurve" smooth="yes"/>
      <point x="596" y="1422"/>
      <point x="470" y="1318"/>
      <point x="470" y="1245" type="qcurve" smooth="yes"/>
      <point x="470" y="1165"/>
      <point x="580" y="1068"/>
      <point x="830" y="972" type="qcurve" smooth="yes"/>
      <point x="1136" y="859"/>
      <point x="1322" y="625"/>
      <point x="1322" y="443" type="qcurve" smooth="yes"/>
      <point x="1322" y="231"/>
      <point x="961" y="-27"/>
      <point x="673" y="-27" type="qcurve" smooth="yes"/>
      <point x="386" y="-27"/>
      <point x="60" y="219"/>
    </contour>
  </outline>
</glyph>
<glyph name="nine" format="2">
  <advance width="1893"/>
  <unicode hex="0039"/>
  <outline>
    <contour>
      <point x="70" y="1012" type="qcurve" smooth="yes"/>
      <point x="70" y="1250"/>
      <point x="484" y="1536"/>
      <point x="889" y="1536" type="qcurve" smooth="yes"/>
      <point x="1350" y="1536"/>
      <point x="1802" y="1174"/>
      <point x="1802" y="881" type="qcurve" smooth="yes"/>
      <point x="1802" y="548"/>
      <point x="1177" y="29"/>
      <point x="622" y="-92" type="qcurve"/>
      <point x="577" y="29" type="line"/>
      <point x="914" y="144"/>
      <point x="1313" y="537"/>
      <point x="1313" y="884" type="qcurve" smooth="yes"/>
      <point x="1313" y="1143"/>
      <point x="1075" y="1402"/>
      <point x="908" y="1402" type="qcurve" smooth="yes"/>
      <point x="742" y="1402"/>
      <point x="572" y="1207"/>
      <point x="572" y="1047" type="qcurve" smooth="yes"/>
      <point x="572" y="879"/>
      <point x="773" y="718"/>
      <point x="939" y="718" type="qcurve" smooth="yes"/>
      <point x="996" y="718"/>
      <point x="1083" y="736"/>
      <point x="1125" y="751" type="qcurve"/>
      <point x="1163" y="667" type="line"/>
      <point x="1076" y="615"/>
      <point x="859" y="574"/>
      <point x="748" y="573" type="qcurve" smooth="yes"/>
      <point x="417" y="571"/>
      <point x="70" y="814"/>
    </contour>
  </outline>
</glyph>
<glyph name="colon" format="2">
  <advance width="875"/>
  <unicode hex="003A"/>
  <outline>
    <contour>
      <point x="206" y="210" type="qcurve" smooth="yes"/>
      <point x="206" y="303"/>
      <point x="336" y="441"/>
      <point x="438" y="441" type="qcurve" smooth="yes"/>
      <point x="539" y="441"/>
      <point x="669" y="303"/>
      <point x="669" y="210" type="qcurve" smooth="yes"/>
      <point x="669" y="118"/>
      <point x="539" y="-20"/>
      <point x="438" y="-20" type="qcurve" smooth="yes"/>
      <point x="336" y="-20"/>
      <point x="206" y="118"/>
    </contour>
    <contour>
      <point x="206" y="808" type="qcurve" smooth="yes"/>
      <point x="206" y="901"/>
      <point x="336" y="1039"/>
      <point x="438" y="1039" type="qcurve" smooth="yes"/>
      <point x="539" y="1039"/>
      <point x="669" y="901"/>
      <point x="669" y="808" type="qcurve" smooth="yes"/>
      <point x="669" y="716"/>
      <point x="539" y="579"/>
      <point x="438" y="579" type="qcurve" smooth="yes"/>
      <point x="336" y="579"/>
      <point x="206" y="716"/>
    </contour>
  </outline>
</glyph>
<glyph name="semicolon" format="2">
  <advance width="893"/>
  <unicode hex="003B"/>
  <outline>
    <contour>
      <point x="310" y="-248" type="line"/>
      <point x="360" y="-212"/>
      <point x="443" y="-96"/>
      <point x="470" y="-12" type="qcurve"/>
      <point x="351" y="-22"/>
      <point x="200" y="118"/>
      <point x="200" y="210" type="qcurve" smooth="yes"/>
      <point x="200" y="307"/>
      <point x="337" y="451"/>
      <point x="444" y="451" type="qcurve" smooth="yes"/>
      <point x="544" y="451"/>
      <point x="687" y="324"/>
      <point x="687" y="195" type="qcurve" smooth="yes"/>
      <point x="687" y="7"/>
      <point x="431" y="-225"/>
      <point x="335" y="-277" type="qcurve"/>
    </contour>
    <contour>
      <point x="213" y="808" type="qcurve" smooth="yes"/>
      <point x="213" y="901"/>
      <point x="342" y="1039"/>
      <point x="444" y="1039" type="qcurve" smooth="yes"/>
      <point x="545" y="1039"/>
      <point x="676" y="901"/>
      <point x="676" y="808" type="qcurve" smooth="yes"/>
      <point x="676" y="716"/>
      <point x="545" y="579"/>
      <point x="444" y="579" type="qcurve" smooth="yes"/>
      <point x="342" y="579"/>
      <point x="213" y="716"/>
    </contour>
  </outline>
</glyph>
<glyph name="less" format="2">
  <advance width="1136"/>
  <unicode hex="003C"/>
  <outline>
    <contour>
      <point x="191" y="634" type="qcurve"/>
      <point x="194" y="638"/>
      <point x="747" y="1033"/>
      <point x="811" y="1078" type="qcurve" smooth="yes"/>
      <point x="884" y="1130"/>
      <point x="961" y="1032"/>
      <point x="913" y="979" type="qcurve" smooth="yes"/>
      <point x="838" y="861"/>
      <point x="661" y="637"/>
      <point x="660" y="637" type="qcurve"/>
      <point x="661" y="637"/>
      <point x="839" y="421"/>
      <point x="913" y="307" type="qcurve" smooth="yes"/>
      <point x="960" y="255"/>
      <point x="886" y="153"/>
      <point x="814" y="206" type="qcurve" smooth="yes"/>
      <point x="748" y="253"/>
      <point x="193" y="630"/>
    </contour>
  </outline>
</glyph>
<glyph name="greater" format="2">
  <advance width="1136"/>
  <unicode hex="003E"/>
  <outline>
    <contour>
      <point x="220" y="290" type="qcurve" smooth="yes"/>
      <point x="298" y="409"/>
      <point x="475" y="633"/>
      <point x="478" y="633" type="qcurve"/>
      <point x="475" y="633"/>
      <point x="298" y="849"/>
      <point x="223" y="963" type="qcurve" smooth="yes"/>
      <point x="178" y="1015"/>
      <point x="251" y="1117"/>
      <point x="324" y="1064" type="qcurve" smooth="yes"/>
      <point x="389" y="1017"/>
      <point x="945" y="640"/>
      <point x="947" y="636" type="qcurve"/>
      <point x="944" y="632"/>
      <point x="391" y="238"/>
      <point x="325" y="191" type="qcurve" smooth="yes"/>
      <point x="253" y="140"/>
      <point x="176" y="238"/>
    </contour>
  </outline>
</glyph>
<glyph name="question" format="2">
  <advance width="1406"/>
  <unicode hex="003F"/>
  <outline>
    <contour>
      <point x="314" y="216" type="qcurve" smooth="yes"/>
      <point x="314" y="313"/>
      <point x="449" y="456"/>
      <point x="554" y="456" type="qcurve" smooth="yes"/>
      <point x="659" y="456"/>
      <point x="794" y="313"/>
      <point x="794" y="216" type="qcurve" smooth="yes"/>
      <point x="794" y="121"/>
      <point x="659" y="-22"/>
      <point x="554" y="-22" type="qcurve" smooth="yes"/>
      <point x="449" y="-22"/>
      <point x="314" y="121"/>
    </contour>
    <contour>
      <point x="51" y="1183" type="qcurve" smooth="yes"/>
      <point x="51" y="1328"/>
      <point x="321" y="1540"/>
      <point x="647" y="1540" type="qcurve" smooth="yes"/>
      <point x="1021" y="1540"/>
      <point x="1344" y="1348"/>
      <point x="1344" y="1163" type="qcurve" smooth="yes"/>
      <point x="1344" y="970"/>
      <point x="1056" y="773"/>
      <point x="933" y="741" type="qcurve" smooth="yes"/>
      <point x="834" y="716"/>
      <point x="603" y="650"/>
      <point x="604" y="593" type="qcurve" smooth="yes"/>
      <point x="604" y="534" type="line"/>
      <point x="482" y="534" type="line"/>
      <point x="473" y="575" type="line" smooth="yes"/>
      <point x="458" y="647"/>
      <point x="553" y="789"/>
      <point x="676" y="851" type="qcurve" smooth="yes"/>
      <point x="777" y="902"/>
      <point x="932" y="1023"/>
      <point x="932" y="1150" type="qcurve" smooth="yes"/>
      <point x="932" y="1271"/>
      <point x="759" y="1417"/>
      <point x="617" y="1417" type="qcurve" smooth="yes"/>
      <point x="484" y="1417"/>
      <point x="337" y="1336"/>
      <point x="337" y="1280" type="qcurve" smooth="yes"/>
      <point x="337" y="1238"/>
      <point x="483" y="1156"/>
      <point x="485" y="1084" type="qcurve" smooth="yes"/>
      <point x="489" y="1026"/>
      <point x="390" y="931"/>
      <point x="293" y="931" type="qcurve" smooth="yes"/>
      <point x="186" y="931"/>
      <point x="51" y="1068"/>
    </contour>
  </outline>
</glyph>
<glyph name="at" format="2">
  <advance width="2330"/>
  <unicode hex="0040"/>
  <outline>
    <contour>
      <point x="98" y="725" type="qcurve" smooth="yes"/>
      <point x="98" y="1061"/>
      <point x="700" y="1526"/>
      <point x="1212" y="1526" type="qcurve" smooth="yes"/>
      <point x="1715" y="1526"/>
      <point x="2242" y="1159"/>
      <point x="2242" y="856" type="qcurve" smooth="yes"/>
      <point x="2242" y="626"/>
      <point x="1994" y="349"/>
      <point x="1785" y="349" type="qcurve" smooth="yes"/>
      <point x="1603" y="349"/>
      <point x="1430" y="402"/>
      <point x="1392" y="461" type="qcurve"/>
      <point x="1338" y="400"/>
      <point x="1131" y="317"/>
      <point x="963" y="317" type="qcurve" smooth="yes"/>
      <point x="765" y="317"/>
      <point x="542" y="453"/>
      <point x="542" y="544" type="qcurve" smooth="yes"/>
      <point x="542" y="665"/>
      <point x="839" y="838"/>
      <point x="1435" y="871" type="qcurve"/>
      <point x="1442" y="785" type="line"/>
      <point x="1176" y="761"/>
      <point x="899" y="666"/>
      <point x="899" y="564" type="qcurve" smooth="yes"/>
      <point x="899" y="509"/>
      <point x="1009" y="445"/>
      <point x="1079" y="445" type="qcurve" smooth="yes"/>
      <point x="1163" y="445"/>
      <point x="1336" y="522"/>
      <point x="1372" y="564" type="qcurve"/>
      <point x="1375" y="862" type="line" smooth="yes"/>
      <point x="1376" y="1003"/>
      <point x="1253" y="1100"/>
      <point x="1149" y="1100" type="qcurve" smooth="yes"/>
      <point x="1070" y="1100"/>
      <point x="956" y="1064"/>
      <point x="922" y="1033" type="qcurve"/>
      <point x="941" y="1014"/>
      <point x="962" y="976"/>
      <point x="966" y="959" type="qcurve" smooth="yes"/>
      <point x="977" y="912"/>
      <point x="906" y="830"/>
      <point x="792" y="830" type="qcurve" smooth="yes"/>
      <point x="715" y="830"/>
      <point x="622" y="908"/>
      <point x="622" y="973" type="qcurve" smooth="yes"/>
      <point x="622" y="1074"/>
      <point x="865" y="1213"/>
      <point x="1165" y="1213" type="qcurve" smooth="yes"/>
      <point x="1478" y="1213"/>
      <point x="1747" y="1042"/>
      <point x="1745" y="854" type="qcurve" smooth="yes"/>
      <point x="1750" y="529" type="line" smooth="yes"/>
      <point x="1750" y="502"/>
      <point x="1783" y="467"/>
      <point x="1833" y="467" type="qcurve" smooth="yes"/>
      <point x="1943" y="467"/>
      <point x="2094" y="665"/>
      <point x="2094" y="849" type="qcurve" smooth="yes"/>
      <point x="2094" y="1088"/>
      <point x="1643" y="1381"/>
      <point x="1215" y="1381" type="qcurve" smooth="yes"/>
      <point x="780" y="1381"/>
      <point x="255" y="1019"/>
      <point x="255" y="737" type="qcurve" smooth="yes"/>
      <point x="255" y="472"/>
      <point x="756" y="102"/>
      <point x="1164" y="102" type="qcurve" smooth="yes"/>
      <point x="1316" y="102"/>
      <point x="1578" y="166"/>
      <point x="1628" y="198" type="qcurve"/>
      <point x="1697" y="103" type="line"/>
      <point x="1630" y="50"/>
      <point x="1329" y="-36"/>
      <point x="1158" y="-36" type="qcurve" smooth="yes"/>
      <point x="687" y="-36"/>
      <point x="98" y="396"/>
    </contour>
  </outline>
</glyph>
<glyph name="A" format="2">
  <advance width="1968"/>
  <unicode hex="0041"/>
  <anchor x="925" y="0" name="bottom"/>
  <anchor x="1775" y="0" name="ogonek"/>
  <anchor x="555" y="1500" name="tonos"/>
  <anchor x="938" y="1500" name="top"/>
  <outline>
    <contour>
      <point x="-17" y="0" type="line"/>
      <point x="-17" y="130" type="line"/>
      <point x="181" y="165" type="line"/>
      <point x="350" y="550" type="line"/>
      <point x="753" y="1521" type="line"/>
      <point x="1215" y="1521" type="line"/>
      <point x="1616" y="574" type="line"/>
      <point x="1797" y="165" type="line"/>
      <point x="1985" y="130" type="line"/>
      <point x="1985" y="0" type="line"/>
      <point x="1094" y="0" type="line"/>
      <point x="1094" y="130" type="line"/>
      <point x="1283" y="161" type="line"/>
      <point x="1139" y="517" type="line"/>
      <point x="871" y="1151" type="line"/>
      <point x="827" y="1265" type="line"/>
      <point x="815" y="1265" type="line"/>
      <point x="771" y="1151" type="line"/>
      <point x="490" y="507" type="line"/>
      <point x="355" y="160" type="line"/>
      <point x="542" y="130" type="line"/>
      <point x="542" y="0" type="line"/>
    </contour>
    <contour>
      <point x="828" y="566" type="line"/>
      <point x="1190" y="582" type="line"/>
      <point x="1254" y="438" type="line"/>
      <point x="828" y="438" type="line"/>
    </contour>
    <contour>
      <point x="403" y="438" type="line"/>
      <point x="465" y="581" type="line"/>
      <point x="828" y="566" type="line"/>
      <point x="828" y="438" type="line"/>
    </contour>
  </outline>
</glyph>
<glyph name="B" format="2">
  <advance width="2008"/>
  <unicode hex="0042"/>
  <anchor x="1003" y="0" name="bottom"/>
  <anchor x="1003" y="1500" name="top"/>
  <outline>
    <contour>
      <point x="90" y="0" type="line"/>
      <point x="90" y="130" type="line"/>
      <point x="308" y="166" type="line"/>
      <point x="310" y="784" type="line"/>
      <point x="308" y="1322" type="line"/>
      <point x="90" y="1356" type="line"/>
      <point x="90" y="1500" type="line"/>
      <point x="1122" y="1500" type="line" smooth="yes"/>
      <point x="1455" y="1500"/>
      <point x="1776" y="1315"/>
      <point x="1776" y="1172" type="qcurve" smooth="yes"/>
      <point x="1776" y="1037"/>
      <point x="1580" y="854"/>
      <point x="1408" y="831" type="qcurve"/>
      <point x="1408" y="821" type="line"/>
      <point x="1622" y="794"/>
      <point x="1924" y="603"/>
      <point x="1924" y="433" type="qcurve" smooth="yes"/>
      <point x="1924" y="246"/>
      <point x="1512" y="0"/>
      <point x="1148" y="0" type="qcurve" smooth="yes"/>
    </contour>
    <contour>
      <point x="812" y="153" type="line"/>
      <point x="845" y="133" type="line"/>
      <point x="1005" y="133" type="line" smooth="yes"/>
      <point x="1210" y="133"/>
      <point x="1404" y="282"/>
      <point x="1404" y="442" type="qcurve" smooth="yes"/>
      <point x="1404" y="579"/>
      <point x="1235" y="726"/>
      <point x="1078" y="726" type="qcurve" smooth="yes"/>
      <point x="821" y="726" type="line"/>
      <point x="812" y="712" type="line"/>
    </contour>
    <contour>
      <point x="811" y="871" type="line"/>
      <point x="820" y="857" type="line"/>
      <point x="993" y="857" type="line" smooth="yes"/>
      <point x="1149" y="857"/>
      <point x="1309" y="990"/>
      <point x="1309" y="1122" type="qcurve" smooth="yes"/>
      <point x="1309" y="1243"/>
      <point x="1154" y="1353"/>
      <point x="1004" y="1353" type="qcurve" smooth="yes"/>
      <point x="843" y="1353" type="line"/>
      <point x="814" y="1335" type="line"/>
    </contour>
  </outline>
</glyph>
<glyph name="C" format="2">
  <advance width="1925"/>
  <unicode hex="0043"/>
  <anchor x="1069" y="0" name="bottom"/>
  <anchor x="1070" y="1500" name="top"/>
  <outline>
    <contour>
      <point x="98" y="706" type="qcurve" smooth="yes"/>
      <point x="98" y="1051"/>
      <point x="616" y="1528"/>
      <point x="1056" y="1528" type="qcurve" smooth="yes"/>
      <point x="1223" y="1528"/>
      <point x="1462" y="1466"/>
      <point x="1531" y="1422" type="qcurve"/>
      <point x="1620" y="1506" type="line"/>
      <point x="1775" y="1506" type="line"/>
      <point x="1775" y="991" type="line"/>
      <point x="1599" y="991" type="line"/>
      <point x="1559" y="1171" type="line" smooth="yes"/>
      <point x="1535" y="1272"/>
      <point x="1363" y="1372"/>
      <point x="1222" y="1372" type="qcurve" smooth="yes"/>
      <point x="962" y="1372"/>
      <point x="616" y="1047"/>
      <point x="618" y="740" type="qcurve" smooth="yes"/>
      <point x="620" y="451"/>
      <point x="955" y="134"/>
      <point x="1232" y="134" type="qcurve" smooth="yes"/>
      <point x="1434" y="134"/>
      <point x="1685" y="257"/>
      <point x="1757" y="352" type="qcurve"/>
      <point x="1870" y="251" type="line"/>
      <point x="1733" y="110"/>
      <point x="1329" y="-38"/>
      <point x="1089" y="-38" type="qcurve" smooth="yes"/>
      <point x="632" y="-38"/>
      <point x="98" y="367"/>
    </contour>
  </outline>
</glyph>
<glyph name="D" format="2">
  <advance width="2368"/>
  <unicode hex="0044"/>
  <anchor x="1087" y="0" name="bottom"/>
  <anchor x="615" y="754" name="center"/>
  <anchor x="1087" y="1500" name="top"/>
  <outline>
    <contour>
      <point x="90" y="0" type="line"/>
      <point x="90" y="130" type="line"/>
      <point x="308" y="165" type="line"/>
      <point x="310" y="754" type="line"/>
      <point x="308" y="1322" type="line"/>
      <point x="90" y="1356" type="line"/>
      <point x="90" y="1500" type="line"/>
      <point x="1102" y="1500" type="line" smooth="yes"/>
      <point x="1627" y="1500"/>
      <point x="2270" y="1119"/>
      <point x="2270" y="777" type="qcurve" smooth="yes"/>
      <point x="2270" y="410"/>
      <point x="1628" y="0"/>
      <point x="1042" y="0" type="qcurve" smooth="yes"/>
    </contour>
    <contour>
      <point x="813" y="159" type="line"/>
      <point x="851" y="153"/>
      <point x="998" y="144"/>
      <point x="1096" y="144" type="qcurve" smooth="yes"/>
      <point x="1383" y="144"/>
      <point x="1746" y="454"/>
      <point x="1749" y="761" type="qcurve" smooth="yes"/>
      <point x="1751" y="1044"/>
      <point x="1370" y="1346"/>
      <point x="1055" y="1346" type="qcurve" smooth="yes"/>
      <point x="989" y="1346"/>
      <point x="853" y="1335"/>
      <point x="813" y="1329" type="qcurve"/>
      <point x="810" y="754" type="line"/>
    </contour>
  </outline>
</glyph>
<glyph name="E" format="2">
  <advance width="1718"/>
  <unicode hex="0045"/>
  <anchor x="938" y="0" name="bottom"/>
  <anchor x="1367" y="0" name="ogonek"/>
  <anchor x="917" y="1500" name="top"/>
  <anchor x="217" y="1500" name="tonos"/>
  <outline>
    <contour>
      <point x="90" y="0" type="line"/>
      <point x="90" y="130" type="line"/>
      <point x="308" y="167" type="line"/>
      <point x="310" y="783" type="line"/>
      <point x="308" y="1322" type="line"/>
      <point x="90" y="1356" type="line"/>
      <point x="90" y="1500" type="line"/>
      <point x="1568" y="1500" type="line"/>
      <point x="1568" y="1122" type="line"/>
      <point x="1396" y="1122" type="line"/>
      <point x="1361" y="1364" type="line"/>
      <point x="833" y="1364" type="line"/>
      <point x="808" y="1344" type="line"/>
      <point x="806" y="783" type="line"/>
      <point x="808" y="166" type="line"/>
      <point x="838" y="127" type="line"/>
      <point x="1424" y="127" type="line"/>
      <point x="1500" y="409" type="line"/>
      <point x="1672" y="409" type="line"/>
      <point x="1632" y="0" type="line"/>
    </contour>
    <contour>
      <point x="724" y="726" type="line"/>
      <point x="724" y="840" type="line"/>
      <point x="1215" y="850" type="line"/>
      <point x="1250" y="1022" type="line"/>
      <point x="1422" y="1022" type="line"/>
      <point x="1422" y="544" type="line"/>
      <point x="1250" y="544" type="line"/>
      <point x="1215" y="716" type="line"/>
    </contour>
  </outline>
</glyph>
<glyph name="F" format="2">
  <advance width="1571"/>
  <unicode hex="0046"/>
  <anchor x="817" y="0" name="bottom"/>
  <anchor x="878" y="1500" name="top"/>
  <outline>
    <contour>
      <point x="90" y="0" type="line"/>
      <point x="90" y="130" type="line"/>
      <point x="308" y="167" type="line"/>
      <point x="310" y="760" type="line"/>
      <point x="308" y="1322" type="line"/>
      <point x="90" y="1356" type="line"/>
      <point x="90" y="1500" type="line"/>
      <point x="1524" y="1500" type="line"/>
      <point x="1524" y="1112" type="line"/>
      <point x="1352" y="1112" type="line"/>
      <point x="1317" y="1364" type="line"/>
      <point x="843" y="1364" type="line"/>
      <point x="813" y="1344" type="line"/>
      <point x="811" y="760" type="line"/>
      <point x="813" y="162" type="line"/>
      <point x="1051" y="130" type="line"/>
      <point x="1051" y="0" type="line"/>
    </contour>
    <contour>
      <point x="723" y="700" type="line"/>
      <point x="723" y="819" type="line"/>
      <point x="1171" y="826" type="line"/>
      <point x="1206" y="1008" type="line"/>
      <point x="1378" y="1008" type="line"/>
      <point x="1378" y="501" type="line"/>
      <point x="1206" y="501" type="line"/>
      <point x="1171" y="693" type="line"/>
    </contour>
  </outline>
</glyph>
<glyph name="G" format="2">
  <advance width="2365"/>
  <unicode hex="0047"/>
  <anchor x="1270" y="0" name="bottom"/>
  <anchor x="1238" y="1500" name="top"/>
  <outline>
    <contour>
      <point x="98" y="744" type="qcurve" smooth="yes"/>
      <point x="98" y="1078"/>
      <point x="721" y="1528"/>
      <point x="1210" y="1528" type="qcurve" smooth="yes"/>
      <point x="1413" y="1528"/>
      <point x="1684" y="1466"/>
      <point x="1751" y="1427" type="qcurve"/>
      <point x="1852" y="1506" type="line"/>
      <point x="2017" y="1506" type="line"/>
      <point x="2017" y="1007" type="line"/>
      <point x="1841" y="1007" type="line"/>
      <point x="1797" y="1154" type="line" smooth="yes"/>
      <point x="1764" y="1260"/>
      <point x="1484" y="1364"/>
      <point x="1295" y="1364" type="qcurve" smooth="yes"/>
      <point x="971" y="1364"/>
      <point x="617" y="1052"/>
      <point x="619" y="765" type="qcurve" smooth="yes"/>
      <point x="621" y="480"/>
      <point x="981" y="110"/>
      <point x="1298" y="110" type="qcurve" smooth="yes"/>
      <point x="1423" y="110"/>
      <point x="1640" y="179"/>
      <point x="1718" y="244" type="qcurve"/>
      <point x="1718" y="508" type="line"/>
      <point x="1509" y="543" type="line"/>
      <point x="1509" y="673" type="line"/>
      <point x="2361" y="673" type="line"/>
      <point x="2361" y="543" type="line"/>
      <point x="2220" y="508" type="line"/>
      <point x="2220" y="219" type="line"/>
      <point x="2090" y="120"/>
      <point x="1595" y="-38"/>
      <point x="1268" y="-38" type="qcurve" smooth="yes"/>
      <point x="682" y="-38"/>
      <point x="98" y="390"/>
    </contour>
  </outline>
</glyph>
<glyph name="I" format="2">
  <advance width="1141"/>
  <unicode hex="0049"/>
  <guideline x="-220" y="1431" angle="0.0" identifier="7uQcXR8R18"/>
  <anchor x="571" y="0" name="bottom"/>
  <anchor x="849" y="0" name="ogonek"/>
  <anchor x="571" y="1500" name="top"/>
  <anchor x="8" y="1500" name="tonos"/>
  <outline>
    <contour>
      <point x="90" y="0" type="line"/>
      <point x="90" y="130" type="line"/>
      <point x="318" y="165" type="line"/>
      <point x="320" y="754" type="line"/>
      <point x="318" y="1322" type="line"/>
      <point x="90" y="1356" type="line"/>
      <point x="90" y="1500" type="line"/>
      <point x="1051" y="1500" type="line"/>
      <point x="1051" y="1356" type="line"/>
      <point x="823" y="1322" type="line"/>
      <point x="821" y="754" type="line"/>
      <point x="823" y="166" type="line"/>
      <point x="1051" y="130" type="line"/>
      <point x="1051" y="0" type="line"/>
    </contour>
  </outline>
</glyph>
<glyph name="K" format="2">
  <advance width="2327"/>
  <unicode hex="004B"/>
  <anchor x="1169" y="0" name="bottom"/>
  <anchor x="1127" y="1500" name="top"/>
  <outline>
    <contour>
      <point x="90" y="0" type="line"/>
      <point x="90" y="130" type="line"/>
      <point x="308" y="165" type="line"/>
      <point x="310" y="754" type="line"/>
      <point x="308" y="1322" type="line"/>
      <point x="90" y="1356" type="line"/>
      <point x="90" y="1500" type="line"/>
      <point x="1021" y="1500" type="line"/>
      <point x="1021" y="1356" type="line"/>
      <point x="813" y="1322" type="line"/>
      <point x="811" y="754" type="line"/>
      <point x="813" y="165" type="line"/>
      <point x="1031" y="130" type="line"/>
      <point x="1031" y="0" type="line"/>
    </contour>
    <contour>
      <point x="723" y="449" type="line"/>
      <point x="723" y="619" type="line"/>
      <point x="1627" y="1308" type="line"/>
      <point x="1498" y="1356" type="line"/>
      <point x="1498" y="1500" type="line"/>
      <point x="2048" y="1500" type="line"/>
      <point x="2048" y="1356" type="line"/>
      <point x="1831" y="1308" type="line"/>
      <point x="1167" y="795" type="line"/>
      <point x="1128" y="767" type="line"/>
    </contour>
    <contour>
      <point x="1013" y="771" type="line"/>
      <point x="1427" y="1084" type="line"/>
      <point x="2160" y="165" type="line"/>
      <point x="2349" y="130" type="line"/>
      <point x="2349" y="0" type="line"/>
      <point x="1353" y="0" type="line"/>
      <point x="1353" y="130" type="line"/>
      <point x="1509" y="165" type="line"/>
    </contour>
  </outline>
</glyph>
<glyph name="L" format="2">
  <advance width="1694"/>
  <unicode hex="004C"/>
  <anchor x="748" y="0" name="bottom"/>
  <anchor x="1309" y="750" name="centerright"/>
  <anchor x="726" y="1500" name="top"/>
  <anchor x="1165" y="1001" name="topright"/>
  <anchor x="551" y="750" name="center"/>
  <outline>
    <contour>
      <point x="90" y="0" type="line"/>
      <point x="90" y="130" type="line"/>
      <point x="308" y="162" type="line"/>
      <point x="310" y="754" type="line"/>
      <point x="308" y="1322" type="line"/>
      <point x="90" y="1356" type="line"/>
      <point x="90" y="1500" type="line"/>
      <point x="1054" y="1500" type="line"/>
      <point x="1054" y="1356" type="line"/>
      <point x="813" y="1322" type="line"/>
      <point x="811" y="754" type="line"/>
      <point x="813" y="166" type="line"/>
      <point x="853" y="139" type="line"/>
      <point x="1431" y="139" type="line"/>
      <point x="1517" y="467" type="line"/>
      <point x="1696" y="467" type="line"/>
      <point x="1645" y="0" type="line"/>
    </contour>
  </outline>
</glyph>
<glyph name="M" format="2">
  <advance width="2958"/>
  <unicode hex="004D"/>
  <anchor x="1464" y="0" name="bottom"/>
  <anchor x="1497" y="1500" name="top"/>
  <outline>
    <contour>
      <point x="90" y="0" type="line"/>
      <point x="90" y="130" type="line"/>
      <point x="308" y="165" type="line"/>
      <point x="310" y="754" type="line"/>
      <point x="308" y="1322" type="line"/>
      <point x="90" y="1356" type="line"/>
      <point x="90" y="1500" type="line"/>
      <point x="934" y="1500" type="line"/>
      <point x="1230" y="811" type="line"/>
      <point x="1439" y="344" type="line"/>
      <point x="1485" y="230" type="line"/>
      <point x="1495" y="230" type="line"/>
      <point x="1541" y="344" type="line"/>
      <point x="1743" y="799" type="line"/>
      <point x="2044" y="1500" type="line"/>
      <point x="2868" y="1500" type="line"/>
      <point x="2868" y="1356" type="line"/>
      <point x="2650" y="1322" type="line"/>
      <point x="2647" y="754" type="line"/>
      <point x="2650" y="165" type="line"/>
      <point x="2868" y="130" type="line"/>
      <point x="2868" y="0" type="line"/>
      <point x="1897" y="0" type="line"/>
      <point x="1897" y="130" type="line"/>
      <point x="2145" y="165" type="line"/>
      <point x="2147" y="754" type="line"/>
      <point x="2145" y="1210" type="line"/>
      <point x="2149" y="1329" type="line"/>
      <point x="2139" y="1331" type="line"/>
      <point x="2096" y="1224" type="line"/>
      <point x="1879" y="748" type="line"/>
      <point x="1554" y="-8" type="line"/>
      <point x="1042" y="-8" type="line"/>
      <point x="723" y="739" type="line"/>
      <point x="504" y="1229" type="line"/>
      <point x="460" y="1336" type="line"/>
      <point x="450" y="1333" type="line"/>
      <point x="455" y="1215" type="line"/>
      <point x="453" y="754" type="line"/>
      <point x="455" y="165" type="line"/>
      <point x="683" y="130" type="line"/>
      <point x="683" y="0" type="line"/>
    </contour>
  </outline>
</glyph>
<glyph name="O" format="2">
  <advance width="2451"/>
  <unicode hex="004F"/>
  <anchor x="1225" y="0" name="bottom"/>
  <anchor x="1225" y="750" name="center"/>
  <anchor x="1564" y="0" name="ogonek"/>
  <anchor x="1225" y="1500" name="top"/>
  <anchor x="1502" y="1500" name="topright"/>
  <anchor x="201" y="1500" name="tonos"/>
  <outline>
    <contour>
      <point x="98" y="737" type="qcurve" smooth="yes"/>
      <point x="98" y="1071"/>
      <point x="720" y="1528"/>
      <point x="1225" y="1528" type="qcurve" smooth="yes"/>
      <point x="1731" y="1528"/>
      <point x="2353" y="1100"/>
      <point x="2353" y="752" type="qcurve" smooth="yes"/>
      <point x="2353" y="420"/>
      <point x="1736" y="-39"/>
      <point x="1229" y="-39" type="qcurve" smooth="yes"/>
      <point x="736" y="-39"/>
      <point x="98" y="393"/>
    </contour>
    <contour>
      <point x="619" y="771" type="qcurve" smooth="yes"/>
      <point x="619" y="487"/>
      <point x="957" y="121"/>
      <point x="1227" y="121" type="qcurve" smooth="yes"/>
      <point x="1523" y="121"/>
      <point x="1832" y="446"/>
      <point x="1832" y="745" type="qcurve" smooth="yes"/>
      <point x="1832" y="1011"/>
      <point x="1501" y="1360"/>
      <point x="1227" y="1360" type="qcurve" smooth="yes"/>
      <point x="932" y="1360"/>
      <point x="619" y="1044"/>
    </contour>
  </outline>
</glyph>
<glyph name="P" format="2">
  <advance width="2022"/>
  <unicode hex="0050"/>
  <anchor x="978" y="0" name="bottom"/>
  <anchor x="1009" y="1500" name="top"/>
  <outline>
    <contour>
      <point x="90" y="0" type="line"/>
      <point x="90" y="130" type="line"/>
      <point x="308" y="167" type="line"/>
      <point x="310" y="754" type="line"/>
      <point x="308" y="1322" type="line"/>
      <point x="90" y="1356" type="line"/>
      <point x="90" y="1500" type="line"/>
      <point x="1169" y="1500" type="line" smooth="yes"/>
      <point x="1553" y="1500"/>
      <point x="1954" y="1276"/>
      <point x="1954" y="1057" type="qcurve" smooth="yes"/>
      <point x="1954" y="847"/>
      <point x="1528" y="575"/>
      <point x="1143" y="575" type="qcurve" smooth="yes"/>
      <point x="960" y="575"/>
      <point x="774" y="596"/>
      <point x="722" y="604" type="qcurve"/>
      <point x="732" y="734" type="line"/>
      <point x="797" y="721"/>
      <point x="923" y="712"/>
      <point x="1036" y="712" type="qcurve" smooth="yes"/>
      <point x="1225" y="712"/>
      <point x="1422" y="895"/>
      <point x="1422" y="1057" type="qcurve" smooth="yes"/>
      <point x="1422" y="1206"/>
      <point x="1234" y="1355"/>
      <point x="1058" y="1355" type="qcurve" smooth="yes"/>
      <point x="847" y="1355" type="line"/>
      <point x="814" y="1333" type="line"/>
      <point x="810" y="764" type="line"/>
      <point x="812" y="162" type="line"/>
      <point x="1074" y="130" type="line"/>
      <point x="1074" y="0" type="line"/>
    </contour>
  </outline>
</glyph>
<glyph name="Q" format="2">
  <advance width="2451"/>
  <unicode hex="0051"/>
  <anchor x="1225" y="0" name="bottom"/>
  <anchor x="1253" y="1494" name="top"/>
  <outline>
    <contour>
      <point x="98" y="746" type="qcurve" smooth="yes"/>
      <point x="98" y="1074"/>
      <point x="739" y="1528"/>
      <point x="1225" y="1528" type="qcurve" smooth="yes"/>
      <point x="1717" y="1528"/>
      <point x="2353" y="1103"/>
      <point x="2353" y="754" type="qcurve" smooth="yes"/>
      <point x="2353" y="404"/>
      <point x="1689" y="-20"/>
      <point x="1225" y="-20" type="qcurve" smooth="yes"/>
      <point x="724" y="-20"/>
      <point x="98" y="419"/>
    </contour>
    <contour>
      <point x="619" y="772" type="qcurve" smooth="yes"/>
      <point x="621" y="498"/>
      <point x="953" y="125"/>
      <point x="1223" y="125" type="qcurve" smooth="yes"/>
      <point x="1514" y="125"/>
      <point x="1830" y="466"/>
      <point x="1832" y="747" type="qcurve" smooth="yes"/>
      <point x="1834" y="1014"/>
      <point x="1501" y="1360"/>
      <point x="1227" y="1360" type="qcurve" smooth="yes"/>
      <point x="932" y="1360"/>
      <point x="617" y="1047"/>
    </contour>
    <contour>
      <point x="750" y="133" type="qcurve" identifier="jWZBD98qkQ"/>
      <point x="1978" y="-154" type="line" smooth="yes" identifier="7ZXZEQkAbx"/>
      <point x="2050" y="-77"/>
      <point x="2131" y="-65"/>
      <point x="2165" y="-8" type="qcurve"/>
      <point x="2283" y="-70" type="line"/>
      <point x="2164" y="-328"/>
      <point x="2000" y="-364"/>
      <point x="1839" y="-534" type="qcurve" smooth="yes" identifier="bSft9tBggp"/>
      <point x="630" y="-247" type="line" identifier="aDYWDNvZlZ"/>
      <point x="569" y="-247"/>
      <point x="450" y="-292"/>
      <point x="391" y="-345" type="qcurve"/>
      <point x="294" y="-247" type="line"/>
      <point x="401" y="-44"/>
      <point x="653" y="133"/>
    </contour>
    <contour>
      <point x="896" y="-96" type="line"/>
      <point x="1022" y="172" type="line"/>
      <point x="1156" y="121" type="line"/>
      <point x="1026" y="-139" type="line"/>
    </contour>
  </outline>
</glyph>
<glyph name="R" format="2">
  <advance width="2132"/>
  <unicode hex="0052"/>
  <anchor x="1146" y="0" name="bottom"/>
  <anchor x="1004" y="1500" name="top"/>
  <outline>
    <contour>
      <point x="90" y="0" type="line"/>
      <point x="90" y="130" type="line"/>
      <point x="308" y="166" type="line"/>
      <point x="310" y="794" type="line"/>
      <point x="308" y="1322" type="line"/>
      <point x="90" y="1356" type="line"/>
      <point x="90" y="1500" type="line"/>
      <point x="1093" y="1500" type="line" smooth="yes"/>
      <point x="1483" y="1500"/>
      <point x="1858" y="1306"/>
      <point x="1858" y="1134" type="qcurve" smooth="yes"/>
      <point x="1858" y="943"/>
      <point x="1397" y="709"/>
      <point x="1089" y="709" type="qcurve" smooth="yes"/>
      <point x="1016" y="709"/>
      <point x="784" y="718"/>
      <point x="723" y="723" type="qcurve"/>
      <point x="723" y="845" type="line"/>
      <point x="1006" y="845" type="line" smooth="yes"/>
      <point x="1178" y="845"/>
      <point x="1335" y="997"/>
      <point x="1335" y="1122" type="qcurve" smooth="yes"/>
      <point x="1335" y="1232"/>
      <point x="1199" y="1355"/>
      <point x="1048" y="1355" type="qcurve" smooth="yes"/>
      <point x="844" y="1355" type="line"/>
      <point x="815" y="1337" type="line"/>
      <point x="811" y="794" type="line"/>
      <point x="813" y="166" type="line"/>
      <point x="1039" y="130" type="line"/>
      <point x="1039" y="0" type="line"/>
    </contour>
    <contour>
      <point x="1012" y="727" type="line"/>
      <point x="1441" y="921" type="line"/>
      <point x="1851" y="345" type="line" smooth="yes"/>
      <point x="1954" y="196"/>
      <point x="2109" y="131"/>
      <point x="2180" y="130" type="qcurve"/>
      <point x="2180" y="0" type="line"/>
      <point x="1534" y="0" type="line"/>
      <point x="1502" y="20" type="line"/>
    </contour>
  </outline>
</glyph>
<glyph name="T" format="2">
  <advance width="1732"/>
  <unicode hex="0054"/>
  <anchor x="859" y="0" name="bottom"/>
  <anchor x="859" y="750" name="center"/>
  <anchor x="859" y="1500" name="top"/>
  <outline>
    <contour>
      <point x="37" y="1010" type="line"/>
      <point x="37" y="1500" type="line"/>
      <point x="1694" y="1500" type="line"/>
      <point x="1694" y="1009" type="line"/>
      <point x="1522" y="1009" type="line"/>
      <point x="1487" y="1352" type="line"/>
      <point x="1137" y="1352" type="line"/>
      <point x="1118" y="1332" type="line"/>
      <point x="1116" y="745" type="line"/>
      <point x="1118" y="166" type="line"/>
      <point x="1345" y="130" type="line"/>
      <point x="1345" y="0" type="line"/>
      <point x="384" y="0" type="line"/>
      <point x="384" y="130" type="line"/>
      <point x="613" y="166" type="line"/>
      <point x="615" y="745" type="line"/>
      <point x="613" y="1332" type="line"/>
      <point x="604" y="1352" type="line"/>
      <point x="244" y="1352" type="line"/>
      <point x="209" y="1010" type="line"/>
    </contour>
  </outline>
</glyph>
<glyph name="U" format="2">
  <advance width="2069"/>
  <unicode hex="0055"/>
  <anchor x="1095" y="0" name="bottom"/>
  <anchor x="1339" y="0" name="ogonek"/>
  <anchor x="1095" y="1500" name="top"/>
  <anchor x="2047" y="1500" name="topright"/>
  <outline>
    <contour>
      <point x="72" y="1356" type="line"/>
      <point x="72" y="1500" type="line"/>
      <point x="1002" y="1500" type="line"/>
      <point x="1002" y="1356" type="line"/>
      <point x="785" y="1322" type="line"/>
      <point x="780" y="808" type="line"/>
      <point x="784" y="494" type="line" smooth="yes"/>
      <point x="786" y="302"/>
      <point x="1034" y="133"/>
      <point x="1232" y="133" type="qcurve" smooth="yes"/>
      <point x="1409" y="133"/>
      <point x="1665" y="317"/>
      <point x="1666" y="514" type="qcurve" smooth="yes"/>
      <point x="1668" y="808" type="line"/>
      <point x="1666" y="1322" type="line"/>
      <point x="1438" y="1356" type="line"/>
      <point x="1438" y="1500" type="line"/>
      <point x="2047" y="1500" type="line"/>
      <point x="2047" y="1356" type="line"/>
      <point x="1829" y="1322" type="line"/>
      <point x="1827" y="794" type="line"/>
      <point x="1829" y="493" type="line" smooth="yes"/>
      <point x="1833" y="230"/>
      <point x="1396" y="-39"/>
      <point x="1065" y="-39" type="qcurve" smooth="yes"/>
      <point x="714" y="-39"/>
      <point x="278" y="238"/>
      <point x="280" y="481" type="qcurve" smooth="yes"/>
      <point x="283" y="794" type="line"/>
      <point x="280" y="1322" type="line"/>
    </contour>
  </outline>
</glyph>
<glyph name="V" format="2">
  <advance width="1889"/>
  <unicode hex="0056"/>
  <anchor x="1022" y="0" name="bottom"/>
  <anchor x="1034" y="1500" name="top"/>
  <outline>
    <contour>
      <point x="-22" y="1356" type="line"/>
      <point x="-22" y="1500" type="line"/>
      <point x="847" y="1500" type="line"/>
      <point x="847" y="1356" type="line"/>
      <point x="681" y="1315" type="line"/>
      <point x="889" y="800" type="line"/>
      <point x="1082" y="327" type="line"/>
      <point x="1120" y="219" type="line"/>
      <point x="1130" y="219" type="line"/>
      <point x="1168" y="327" type="line"/>
      <point x="1360" y="806" type="line"/>
      <point x="1563" y="1322" type="line"/>
      <point x="1377" y="1356" type="line"/>
      <point x="1377" y="1500" type="line"/>
      <point x="1931" y="1503" type="line"/>
      <point x="1931" y="1359" type="line"/>
      <point x="1731" y="1317" type="line"/>
      <point x="1500" y="754" type="line"/>
      <point x="1184" y="-24" type="line"/>
      <point x="720" y="-24" type="line"/>
      <point x="411" y="733" type="line"/>
      <point x="168" y="1317" type="line"/>
    </contour>
  </outline>
</glyph>
<glyph name="W" format="2">
  <advance width="2939"/>
  <unicode hex="0057"/>
  <outline>
    <contour>
      <point x="686" y="-24" type="line"/>
      <point x="399" y="712" type="line"/>
      <point x="156" y="1317" type="line"/>
      <point x="-22" y="1356" type="line"/>
      <point x="-22" y="1500" type="line"/>
      <point x="870" y="1500" type="line"/>
      <point x="870" y="1356" type="line"/>
      <point x="672" y="1315" type="line"/>
      <point x="878" y="774" type="line"/>
      <point x="1044" y="342" type="line"/>
      <point x="1084" y="228" type="line"/>
      <point x="1094" y="228" type="line"/>
      <point x="1134" y="342" type="line"/>
      <point x="1256" y="677" type="line"/>
      <point x="1390" y="1047" type="line"/>
      <point x="1287" y="1325" type="line"/>
      <point x="1109" y="1364" type="line"/>
      <point x="1109" y="1500" type="line"/>
      <point x="1979" y="1500" type="line"/>
      <point x="1979" y="1364" type="line"/>
      <point x="1801" y="1323" type="line"/>
      <point x="1976" y="808" type="line"/>
      <point x="2138" y="342" type="line"/>
      <point x="2174" y="228" type="line"/>
      <point x="2185" y="228" type="line"/>
      <point x="2226" y="342" type="line"/>
      <point x="2407" y="802" type="line"/>
      <point x="2605" y="1322" type="line"/>
      <point x="2398" y="1356" type="line"/>
      <point x="2398" y="1500" type="line"/>
      <point x="2981" y="1500" type="line"/>
      <point x="2981" y="1356" type="line"/>
      <point x="2783" y="1317" type="line"/>
      <point x="2553" y="758" type="line"/>
      <point x="2238" y="-24" type="line"/>
      <point x="1773" y="-24" type="line"/>
      <point x="1507" y="724" type="line"/>
      <point x="1468" y="840" type="line"/>
      <point x="1458" y="840" type="line"/>
      <point x="1419" y="724" type="line"/>
      <point x="1146" y="-24" type="line"/>
    </contour>
  </outline>
</glyph>
<glyph name="X" format="2">
  <advance width="1931"/>
  <unicode hex="0058"/>
  <anchor x="931" y="0" name="bottom"/>
  <anchor x="943" y="1500" name="top"/>
  <outline>
    <contour>
      <point x="-12" y="0" type="line"/>
      <point x="-12" y="130" type="line"/>
      <point x="186" y="165" type="line"/>
      <point x="626" y="787" type="line"/>
      <point x="226" y="1326" type="line"/>
      <point x="38" y="1357" type="line"/>
      <point x="38" y="1500" type="line"/>
      <point x="1038" y="1500" type="line"/>
      <point x="1038" y="1357" type="line"/>
      <point x="874" y="1324" type="line"/>
      <point x="1089" y="1038" type="line"/>
      <point x="1168" y="924" type="line"/>
      <point x="1178" y="924" type="line"/>
      <point x="1252" y="1038" type="line"/>
      <point x="1460" y="1331" type="line"/>
      <point x="1291" y="1357" type="line"/>
      <point x="1291" y="1500" type="line"/>
      <point x="1848" y="1500" type="line"/>
      <point x="1848" y="1357" type="line"/>
      <point x="1640" y="1326" type="line"/>
      <point x="1279" y="818" type="line"/>
      <point x="1765" y="165" type="line"/>
      <point x="1963" y="130" type="line"/>
      <point x="1963" y="0" type="line"/>
      <point x="954" y="0" type="line"/>
      <point x="954" y="130" type="line"/>
      <point x="1116" y="165" type="line"/>
      <point x="816" y="569" type="line"/>
      <point x="737" y="683" type="line"/>
      <point x="727" y="683" type="line"/>
      <point x="653" y="569" type="line"/>
      <point x="366" y="160" type="line"/>
      <point x="534" y="130" type="line"/>
      <point x="534" y="0" type="line"/>
    </contour>
  </outline>
</glyph>
<glyph name="Y" format="2">
  <advance width="1709"/>
  <unicode hex="0059"/>
  <anchor x="853" y="0" name="bottom"/>
  <anchor x="857" y="1500" name="top"/>
  <anchor x="-92" y="1500" name="tonos"/>
  <outline>
    <contour>
      <point x="368" y="0" type="line"/>
      <point x="368" y="130" type="line"/>
      <point x="599" y="165" type="line"/>
      <point x="601" y="635" type="line"/>
      <point x="386" y="970" type="line"/>
      <point x="150" y="1330" type="line"/>
      <point x="-22" y="1356" type="line"/>
      <point x="-22" y="1500" type="line"/>
      <point x="850" y="1500" type="line"/>
      <point x="850" y="1356" type="line"/>
      <point x="683" y="1321" type="line"/>
      <point x="844" y="1056" type="line"/>
      <point x="1024" y="787" type="line"/>
      <point x="1034" y="787" type="line"/>
      <point x="1213" y="1075" type="line"/>
      <point x="1365" y="1328" type="line"/>
      <point x="1168" y="1356" type="line"/>
      <point x="1168" y="1500" type="line"/>
      <point x="1731" y="1500" type="line"/>
      <point x="1731" y="1356" type="line"/>
      <point x="1553" y="1329" type="line"/>
      <point x="1336" y="996" type="line"/>
      <point x="1102" y="624" type="line"/>
      <point x="1104" y="165" type="line"/>
      <point x="1332" y="130" type="line"/>
      <point x="1332" y="0" type="line"/>
    </contour>
  </outline>
</glyph>
<glyph name="Z" format="2">
  <advance width="1687"/>
  <unicode hex="005A"/>
  <anchor x="842" y="0" name="bottom"/>
  <anchor x="842" y="1500" name="top"/>
  <outline>
    <contour>
      <point x="88" y="0" type="line"/>
      <point x="58" y="92" type="line"/>
      <point x="964" y="1350" type="line"/>
      <point x="955" y="1358" type="line"/>
      <point x="317" y="1358" type="line"/>
      <point x="281" y="1022" type="line"/>
      <point x="97" y="1022" type="line"/>
      <point x="97" y="1500" type="line"/>
      <point x="1604" y="1500" type="line"/>
      <point x="1604" y="1409" type="line"/>
      <point x="692" y="144" type="line"/>
      <point x="700" y="138" type="line"/>
      <point x="1421" y="138" type="line"/>
      <point x="1497" y="420" type="line"/>
      <point x="1669" y="420" type="line"/>
      <point x="1629" y="0" type="line"/>
    </contour>
  </outline>
</glyph>
<glyph name="bracketleft" format="2">
  <advance width="989"/>
  <unicode hex="005B"/>
  <outline>
    <contour>
      <point x="163" y="508" type="line"/>
      <point x="151" y="1335" type="line"/>
      <point x="132" y="1355" type="line"/>
      <point x="132" y="1500" type="line"/>
      <point x="907" y="1500" type="line"/>
      <point x="907" y="1354" type="line"/>
      <point x="584" y="1335" type="line"/>
      <point x="572" y="508" type="line"/>
      <point x="584" y="-315" type="line"/>
      <point x="907" y="-334" type="line"/>
      <point x="907" y="-480" type="line"/>
      <point x="132" y="-480" type="line"/>
      <point x="132" y="-335" type="line"/>
      <point x="151" y="-315" type="line"/>
    </contour>
  </outline>
</glyph>
<glyph name="backslash" format="2">
  <advance width="779"/>
  <unicode hex="005C"/>
  <outline>
    <contour>
      <point x="-32" y="1504" type="line"/>
      <point x="116" y="1557" type="line"/>
      <point x="822" y="-110" type="line"/>
      <point x="674" y="-162" type="line"/>
    </contour>
  </outline>
</glyph>
<glyph name="bracketright" format="2">
  <advance width="989"/>
  <unicode hex="005D"/>
  <outline>
    <contour>
      <point x="82" y="-480" type="line"/>
      <point x="82" y="-334" type="line"/>
      <point x="404" y="-315" type="line"/>
      <point x="416" y="508" type="line"/>
      <point x="404" y="1335" type="line"/>
      <point x="82" y="1354" type="line"/>
      <point x="82" y="1500" type="line"/>
      <point x="857" y="1500" type="line"/>
      <point x="857" y="1355" type="line"/>
      <point x="838" y="1335" type="line"/>
      <point x="826" y="508" type="line"/>
      <point x="838" y="-315" type="line"/>
      <point x="857" y="-335" type="line"/>
      <point x="857" y="-480" type="line"/>
    </contour>
  </outline>
</glyph>
<glyph name="asciicircum" format="2">
  <advance width="1463"/>
  <unicode hex="005E"/>
  <outline>
    <contour>
      <point x="140" y="926" type="line"/>
      <point x="200" y="988"/>
      <point x="684" y="1501"/>
      <point x="709" y="1524" type="qcurve"/>
      <point x="731" y="1501"/>
      <point x="1262" y="989"/>
      <point x="1322" y="927" type="qcurve"/>
      <point x="1219" y="814" type="line"/>
      <point x="1057" y="909"/>
      <point x="762" y="1104"/>
      <point x="711" y="1123" type="qcurve"/>
      <point x="660" y="1096"/>
      <point x="395" y="913"/>
      <point x="244" y="816" type="qcurve"/>
    </contour>
  </outline>
</glyph>
<glyph name="a" format="2">
  <advance width="1801"/>
  <unicode hex="0061"/>
  <anchor x="886" y="0" name="bottom"/>
  <anchor x="1565" y="0" name="ogonek"/>
  <anchor x="866" y="1051" name="top"/>
  <outline>
    <contour>
      <point x="119" y="246" type="qcurve" smooth="yes"/>
      <point x="119" y="405"/>
      <point x="566" y="622"/>
      <point x="1157" y="661" type="qcurve"/>
      <point x="1157" y="566" type="line"/>
      <point x="879" y="530"/>
      <point x="593" y="408"/>
      <point x="593" y="270" type="qcurve" smooth="yes"/>
      <point x="593" y="190"/>
      <point x="695" y="110"/>
      <point x="779" y="110" type="qcurve" smooth="yes"/>
      <point x="862" y="110"/>
      <point x="1049" y="206"/>
      <point x="1089" y="257" type="qcurve"/>
      <point x="1091" y="663" type="line" smooth="yes"/>
      <point x="1092" y="841"/>
      <point x="957" y="952"/>
      <point x="853" y="952" type="qcurve" smooth="yes"/>
      <point x="768" y="952"/>
      <point x="649" y="909"/>
      <point x="611" y="874" type="qcurve"/>
      <point x="653" y="849"/>
      <point x="700" y="799"/>
      <point x="710" y="762" type="qcurve" smooth="yes"/>
      <point x="723" y="709"/>
      <point x="585" y="619"/>
      <point x="473" y="619" type="qcurve" smooth="yes"/>
      <point x="353" y="619"/>
      <point x="201" y="709"/>
      <point x="201" y="791" type="qcurve" smooth="yes"/>
      <point x="201" y="930"/>
      <point x="577" y="1080"/>
      <point x="887" y="1080" type="qcurve" smooth="yes"/>
      <point x="1214" y="1080"/>
      <point x="1564" y="906"/>
      <point x="1564" y="715" type="qcurve" smooth="yes"/>
      <point x="1564" y="159" type="line"/>
      <point x="1767" y="124" type="line"/>
      <point x="1767" y="0" type="line"/>
      <point x="1158" y="0" type="line"/>
      <point x="1106" y="60" type="line"/>
      <point x="1089" y="157" type="line"/>
      <point x="1017" y="77"/>
      <point x="759" y="-21"/>
      <point x="579" y="-21" type="qcurve" smooth="yes"/>
      <point x="319" y="-21"/>
      <point x="119" y="138"/>
    </contour>
  </outline>
</glyph>
<glyph name="b" format="2">
  <advance width="1854"/>
  <unicode hex="0062"/>
  <anchor x="927" y="0" name="bottom"/>
  <anchor x="927" y="1533" name="top"/>
  <outline>
    <contour>
      <point x="173" y="0" type="line"/>
      <point x="184" y="477" type="line"/>
      <point x="173" y="1332" type="line"/>
      <point x="-44" y="1362" type="line"/>
      <point x="-44" y="1500" type="line"/>
      <point x="592" y="1539" type="line"/>
      <point x="623" y="1539" type="line"/>
      <point x="651" y="1507" type="line"/>
      <point x="649" y="907" type="line"/>
      <point x="723" y="984"/>
      <point x="975" y="1079"/>
      <point x="1151" y="1079" type="qcurve" smooth="yes"/>
      <point x="1421" y="1079"/>
      <point x="1772" y="796"/>
      <point x="1772" y="558" type="qcurve" smooth="yes"/>
      <point x="1772" y="299"/>
      <point x="1407" y="-18"/>
      <point x="1079" y="-18" type="qcurve" smooth="yes"/>
      <point x="945" y="-18"/>
      <point x="721" y="46"/>
      <point x="651" y="92" type="qcurve"/>
      <point x="564" y="0" type="line"/>
    </contour>
    <contour>
      <point x="639" y="529" type="line"/>
      <point x="649" y="255" type="line"/>
      <point x="686" y="195"/>
      <point x="849" y="107"/>
      <point x="958" y="107" type="qcurve" smooth="yes"/>
      <point x="1108" y="107"/>
      <point x="1278" y="334"/>
      <point x="1278" y="530" type="qcurve" smooth="yes"/>
      <point x="1278" y="720"/>
      <point x="1109" y="934"/>
      <point x="963" y="934" type="qcurve" smooth="yes"/>
      <point x="852" y="934"/>
      <point x="695" y="844"/>
      <point x="649" y="775" type="qcurve"/>
    </contour>
  </outline>
</glyph>
<glyph name="c" format="2">
  <advance width="1513"/>
  <unicode hex="0063"/>
  <anchor x="793" y="0" name="bottom"/>
  <anchor x="808" y="1051" name="top"/>
  <outline>
    <contour>
      <point x="82" y="514" type="qcurve" smooth="yes"/>
      <point x="82" y="754"/>
      <point x="490" y="1078"/>
      <point x="783" y="1078" type="qcurve" smooth="yes"/>
      <point x="904" y="1078"/>
      <point x="1118" y="1035"/>
      <point x="1162" y="1008" type="qcurve"/>
      <point x="1193" y="1070" type="line"/>
      <point x="1376" y="1070" type="line"/>
      <point x="1399" y="662" type="line"/>
      <point x="1248" y="662" type="line"/>
      <point x="1231" y="747" type="line" smooth="yes"/>
      <point x="1205" y="837"/>
      <point x="1051" y="948"/>
      <point x="947" y="948" type="qcurve" smooth="yes"/>
      <point x="799" y="948"/>
      <point x="574" y="744"/>
      <point x="574" y="533" type="qcurve" smooth="yes"/>
      <point x="574" y="335"/>
      <point x="827" y="124"/>
      <point x="999" y="124" type="qcurve" smooth="yes"/>
      <point x="1115" y="124"/>
      <point x="1323" y="195"/>
      <point x="1381" y="243" type="qcurve"/>
      <point x="1441" y="168" type="line"/>
      <point x="1367" y="89"/>
      <point x="1049" y="-27"/>
      <point x="827" y="-27" type="qcurve" smooth="yes"/>
      <point x="533" y="-27"/>
      <point x="82" y="265"/>
    </contour>
  </outline>
</glyph>
<glyph name="d" format="2">
  <advance width="1923"/>
  <unicode hex="0064"/>
  <anchor x="954" y="0" name="bottom"/>
  <anchor x="1449" y="1220" name="center"/>
  <anchor x="954" y="1534" name="top"/>
  <anchor x="1659" y="1000" name="topright"/>
  <outline>
    <contour>
      <point x="86" y="502" type="qcurve" smooth="yes"/>
      <point x="86" y="761"/>
      <point x="483" y="1078"/>
      <point x="807" y="1078" type="qcurve" smooth="yes"/>
      <point x="925" y="1078"/>
      <point x="1154" y="1026"/>
      <point x="1227" y="985" type="qcurve"/>
      <point x="1221" y="1332" type="line"/>
      <point x="1004" y="1362" type="line"/>
      <point x="1004" y="1500" type="line"/>
      <point x="1641" y="1539" type="line"/>
      <point x="1672" y="1539" type="line"/>
      <point x="1700" y="1507" type="line"/>
      <point x="1697" y="565" type="line"/>
      <point x="1705" y="159" type="line"/>
      <point x="1905" y="124" type="line"/>
      <point x="1905" y="0" type="line"/>
      <point x="1301" y="0" type="line"/>
      <point x="1250" y="60" type="line"/>
      <point x="1233" y="157" type="line"/>
      <point x="1161" y="86"/>
      <point x="922" y="-15"/>
      <point x="741" y="-15" type="qcurve" smooth="yes"/>
      <point x="450" y="-15"/>
      <point x="86" y="264"/>
    </contour>
    <contour>
      <point x="580" y="529" type="qcurve" smooth="yes"/>
      <point x="580" y="341"/>
      <point x="761" y="132"/>
      <point x="921" y="132" type="qcurve" smooth="yes"/>
      <point x="1037" y="132"/>
      <point x="1187" y="222"/>
      <point x="1231" y="285" type="qcurve"/>
      <point x="1237" y="551" type="line"/>
      <point x="1236" y="826" type="line"/>
      <point x="1192" y="882"/>
      <point x="1046" y="950"/>
      <point x="943" y="950" type="qcurve" smooth="yes"/>
      <point x="777" y="950"/>
      <point x="580" y="707"/>
    </contour>
  </outline>
</glyph>
<glyph name="e" format="2">
  <advance width="1740"/>
  <unicode hex="0065"/>
  <anchor x="930" y="0" name="bottom"/>
  <anchor x="1108" y="0" name="ogonek"/>
  <anchor x="899" y="1051" name="top"/>
  <outline>
    <contour>
      <point x="81" y="519" type="qcurve" smooth="yes"/>
      <point x="81" y="751"/>
      <point x="508" y="1079"/>
      <point x="894" y="1079" type="qcurve" smooth="yes"/>
      <point x="1229" y="1079"/>
      <point x="1621" y="835"/>
      <point x="1649" y="617" type="qcurve"/>
      <point x="1649" y="549" type="line"/>
      <point x="451" y="549" type="line"/>
      <point x="451" y="652" type="line"/>
      <point x="1198" y="652" type="line"/>
      <point x="1179" y="796"/>
      <point x="1016" y="953"/>
      <point x="893" y="953" type="qcurve" smooth="yes"/>
      <point x="741" y="953"/>
      <point x="573" y="733"/>
      <point x="574" y="530" type="qcurve" smooth="yes"/>
      <point x="575" y="342"/>
      <point x="799" y="116"/>
      <point x="1057" y="116" type="qcurve" smooth="yes"/>
      <point x="1189" y="116"/>
      <point x="1424" y="181"/>
      <point x="1541" y="261" type="qcurve"/>
      <point x="1605" y="186" type="line"/>
      <point x="1519" y="93"/>
      <point x="1178" y="-27"/>
      <point x="946" y="-27" type="qcurve" smooth="yes"/>
      <point x="492" y="-27"/>
      <point x="81" y="270"/>
    </contour>
  </outline>
</glyph>
<glyph name="f" format="2">
  <advance width="1009"/>
  <unicode hex="0066"/>
  <anchor x="517" y="0" name="bottom"/>
  <anchor x="543" y="1536" name="top"/>
  <outline>
    <contour>
      <point x="38" y="0" type="line"/>
      <point x="38" y="124" type="line"/>
      <point x="257" y="159" type="line"/>
      <point x="258" y="528" type="line"/>
      <point x="256" y="901" type="line"/>
      <point x="81" y="906" type="line"/>
      <point x="81" y="1021" type="line"/>
      <point x="257" y="1039" type="line"/>
      <point x="261" y="1231" type="line" smooth="yes"/>
      <point x="263" y="1391"/>
      <point x="506" y="1543"/>
      <point x="689" y="1543" type="qcurve" smooth="yes"/>
      <point x="758" y="1543"/>
      <point x="895" y="1534"/>
      <point x="960" y="1521" type="qcurve" smooth="yes"/>
      <point x="982" y="1516" type="line"/>
      <point x="965" y="1400" type="line"/>
      <point x="944" y="1405" type="line" smooth="yes"/>
      <point x="930" y="1407"/>
      <point x="899" y="1410"/>
      <point x="878" y="1410" type="qcurve" smooth="yes"/>
      <point x="802" y="1410"/>
      <point x="722" y="1312"/>
      <point x="722" y="1235" type="qcurve" smooth="yes"/>
      <point x="724" y="1040" type="line"/>
      <point x="963" y="1040" type="line"/>
      <point x="963" y="907" type="line"/>
      <point x="724" y="907" type="line"/>
      <point x="726" y="529" type="line"/>
      <point x="732" y="159" type="line"/>
      <point x="973" y="124" type="line"/>
      <point x="973" y="0" type="line"/>
    </contour>
  </outline>
</glyph>
<glyph name="g" format="2">
  <advance width="1742"/>
  <unicode hex="0067"/>
  <anchor x="870" y="-416" name="bottom"/>
  <anchor x="830" y="1051" name="top"/>
  <outline>
    <contour>
      <point x="32" y="-270" type="qcurve" smooth="yes"/>
      <point x="32" y="-178"/>
      <point x="333" y="-84"/>
      <point x="592" y="-70" type="qcurve"/>
      <point x="654" y="-102" type="line"/>
      <point x="583" y="-133"/>
      <point x="498" y="-198"/>
      <point x="498" y="-263" type="qcurve" smooth="yes"/>
      <point x="498" y="-329"/>
      <point x="672" y="-409"/>
      <point x="901" y="-409" type="qcurve" smooth="yes"/>
      <point x="1070" y="-409"/>
      <point x="1269" y="-336"/>
      <point x="1269" y="-263" type="qcurve" smooth="yes"/>
      <point x="1269" y="-205"/>
      <point x="1099" y="-177"/>
      <point x="876" y="-165" type="qcurve" smooth="yes"/>
      <point x="512" y="-147"/>
      <point x="102" y="-31"/>
      <point x="102" y="112" type="qcurve" smooth="yes"/>
      <point x="102" y="237"/>
      <point x="398" y="360"/>
      <point x="608" y="395" type="qcurve"/>
      <point x="669" y="322" type="line"/>
      <point x="609" y="306"/>
      <point x="527" y="259"/>
      <point x="527" y="220" type="qcurve" smooth="yes"/>
      <point x="527" y="180"/>
      <point x="683" y="147"/>
      <point x="901" y="141" type="qcurve" smooth="yes"/>
      <point x="1430" y="128"/>
      <point x="1716" y="-10"/>
      <point x="1716" y="-136" type="qcurve" smooth="yes"/>
      <point x="1716" y="-284"/>
      <point x="1300" y="-525"/>
      <point x="845" y="-525" type="qcurve" smooth="yes"/>
      <point x="408" y="-525"/>
      <point x="32" y="-372"/>
    </contour>
    <contour>
      <point x="111" y="682" type="qcurve" smooth="yes"/>
      <point x="111" y="855"/>
      <point x="513" y="1080"/>
      <point x="839" y="1080" type="qcurve" smooth="yes"/>
      <point x="1166" y="1080"/>
      <point x="1570" y="871"/>
      <point x="1570" y="687" type="qcurve" smooth="yes"/>
      <point x="1570" y="515"/>
      <point x="1170" y="268"/>
      <point x="844" y="268" type="qcurve" smooth="yes"/>
      <point x="519" y="268"/>
      <point x="111" y="496"/>
    </contour>
    <contour>
      <point x="581" y="692" type="qcurve" smooth="yes"/>
      <point x="581" y="543"/>
      <point x="723" y="385"/>
      <point x="848" y="385" type="qcurve" smooth="yes"/>
      <point x="964" y="385"/>
      <point x="1098" y="531"/>
      <point x="1098" y="681" type="qcurve" smooth="yes"/>
      <point x="1098" y="806"/>
      <point x="957" y="952"/>
      <point x="833" y="952" type="qcurve" smooth="yes"/>
      <point x="718" y="952"/>
      <point x="581" y="822"/>
    </contour>
    <contour>
      <point x="942" y="972" type="line"/>
      <point x="912" y="1051" type="line"/>
      <point x="1724" y="1051" type="line"/>
      <point x="1724" y="901" type="line"/>
    </contour>
  </outline>
</glyph>
<glyph name="h" format="2">
  <advance width="1970"/>
  <unicode hex="0068"/>
  <anchor x="980" y="0" name="bottom"/>
  <anchor x="468" y="1220" name="center"/>
  <anchor x="628" y="1534" name="top"/>
  <outline>
    <contour>
      <point x="44" y="0" type="line"/>
      <point x="44" y="124" type="line"/>
      <point x="236" y="159" type="line"/>
      <point x="238" y="530" type="line"/>
      <point x="236" y="1332" type="line"/>
      <point x="20" y="1362" type="line"/>
      <point x="20" y="1500" type="line"/>
      <point x="652" y="1539" type="line"/>
      <point x="684" y="1539" type="line"/>
      <point x="712" y="1507" type="line"/>
      <point x="711" y="903" type="line"/>
      <point x="796" y="982"/>
      <point x="1054" y="1079"/>
      <point x="1221" y="1079" type="qcurve" smooth="yes"/>
      <point x="1463" y="1079"/>
      <point x="1724" y="930"/>
      <point x="1724" y="800" type="qcurve" smooth="yes"/>
      <point x="1724" y="709"/>
      <point x="1719" y="530"/>
      <point x="1719" y="530" type="qcurve"/>
      <point x="1723" y="159" type="line"/>
      <point x="1922" y="124" type="line"/>
      <point x="1922" y="0" type="line"/>
      <point x="1040" y="0" type="line"/>
      <point x="1040" y="124" type="line"/>
      <point x="1248" y="159" type="line"/>
      <point x="1250" y="515" type="line"/>
      <point x="1250" y="739" type="line" smooth="yes"/>
      <point x="1250" y="813"/>
      <point x="1135" y="915"/>
      <point x="1033" y="915" type="qcurve" smooth="yes"/>
      <point x="943" y="915"/>
      <point x="766" y="830"/>
      <point x="710" y="755" type="qcurve"/>
      <point x="710" y="515" type="line"/>
      <point x="712" y="159" type="line"/>
      <point x="900" y="124" type="line"/>
      <point x="900" y="0" type="line"/>
    </contour>
  </outline>
</glyph>
<glyph name="k" format="2">
  <advance width="1909"/>
  <unicode hex="006B"/>
  <anchor x="952" y="0" name="bottom"/>
  <anchor x="922" y="1534" name="top"/>
  <outline>
    <contour>
      <point x="44" y="0" type="line"/>
      <point x="44" y="124" type="line"/>
      <point x="236" y="159" type="line"/>
      <point x="238" y="527" type="line"/>
      <point x="236" y="1332" type="line"/>
      <point x="20" y="1362" type="line"/>
      <point x="20" y="1500" type="line"/>
      <point x="652" y="1539" type="line"/>
      <point x="684" y="1539" type="line"/>
      <point x="712" y="1507" type="line"/>
      <point x="710" y="507" type="line"/>
      <point x="712" y="159" type="line"/>
      <point x="900" y="124" type="line"/>
      <point x="900" y="0" type="line"/>
    </contour>
    <contour>
      <point x="685" y="422" type="line"/>
      <point x="677" y="536" type="line"/>
      <point x="1306" y="887" type="line"/>
      <point x="1114" y="917" type="line"/>
      <point x="1114" y="1051" type="line"/>
      <point x="1695" y="1051" type="line"/>
      <point x="1695" y="917" type="line"/>
      <point x="1491" y="882" type="line"/>
    </contour>
    <contour>
      <point x="864" y="574" type="line"/>
      <point x="1249" y="793" type="line"/>
      <point x="1758" y="159" type="line"/>
      <point x="1912" y="124" type="line"/>
      <point x="1912" y="0" type="line"/>
      <point x="1146" y="0" type="line"/>
      <point x="1141" y="123" type="line"/>
      <point x="1198" y="155" type="line"/>
    </contour>
  </outline>
</glyph>
<glyph name="m" format="2">
  <advance width="2966"/>
  <unicode hex="006D"/>
  <anchor x="1481" y="0" name="bottom"/>
  <anchor x="1481" y="1051" name="top"/>
  <outline>
    <contour>
      <point x="44" y="0" type="line"/>
      <point x="44" y="124" type="line"/>
      <point x="242" y="159" type="line"/>
      <point x="244" y="527" type="line"/>
      <point x="242" y="848" type="line"/>
      <point x="44" y="878" type="line"/>
      <point x="44" y="1016" type="line"/>
      <point x="658" y="1056" type="line"/>
      <point x="693" y="1029" type="line"/>
      <point x="718" y="904" type="line"/>
      <point x="807" y="982"/>
      <point x="1098" y="1079"/>
      <point x="1253" y="1079" type="qcurve" smooth="yes"/>
      <point x="1442" y="1079"/>
      <point x="1661" y="984"/>
      <point x="1720" y="898" type="qcurve"/>
      <point x="1810" y="978"/>
      <point x="2107" y="1079"/>
      <point x="2268" y="1079" type="qcurve" smooth="yes"/>
      <point x="2502" y="1079"/>
      <point x="2735" y="930"/>
      <point x="2735" y="800" type="qcurve" smooth="yes"/>
      <point x="2735" y="714"/>
      <point x="2728" y="557"/>
      <point x="2729" y="522" type="qcurve" smooth="yes"/>
      <point x="2734" y="159" type="line"/>
      <point x="2932" y="124" type="line"/>
      <point x="2932" y="0" type="line"/>
      <point x="2052" y="0" type="line"/>
      <point x="2052" y="124" type="line"/>
      <point x="2260" y="159" type="line"/>
      <point x="2262" y="512" type="line"/>
      <point x="2262" y="739" type="line" smooth="yes"/>
      <point x="2262" y="817"/>
      <point x="2146" y="914"/>
      <point x="2046" y="914" type="qcurve" smooth="yes"/>
      <point x="1948" y="914"/>
      <point x="1781" y="838"/>
      <point x="1727" y="768" type="qcurve"/>
      <point x="1723" y="698"/>
      <point x="1722" y="533"/>
      <point x="1722" y="512" type="qcurve" smooth="yes"/>
      <point x="1727" y="159" type="line"/>
      <point x="1925" y="124" type="line"/>
      <point x="1925" y="0" type="line"/>
      <point x="1045" y="0" type="line"/>
      <point x="1045" y="124" type="line"/>
      <point x="1253" y="159" type="line"/>
      <point x="1255" y="512" type="line"/>
      <point x="1255" y="739" type="line" smooth="yes"/>
      <point x="1255" y="817"/>
      <point x="1131" y="914"/>
      <point x="1038" y="914" type="qcurve" smooth="yes"/>
      <point x="941" y="914"/>
      <point x="769" y="827"/>
      <point x="717" y="755" type="qcurve"/>
      <point x="716" y="512" type="line"/>
      <point x="718" y="159" type="line"/>
      <point x="906" y="124" type="line"/>
      <point x="906" y="0" type="line"/>
    </contour>
  </outline>
</glyph>
<glyph name="n" format="2">
  <advance width="1963"/>
  <unicode hex="006E"/>
  <anchor x="978" y="0" name="bottom"/>
  <anchor x="978" y="1051" name="top"/>
  <outline>
    <contour>
      <point x="44" y="0" type="line"/>
      <point x="44" y="124" type="line"/>
      <point x="242" y="159" type="line"/>
      <point x="244" y="530" type="line"/>
      <point x="242" y="848" type="line"/>
      <point x="44" y="878" type="line"/>
      <point x="44" y="1016" type="line"/>
      <point x="658" y="1056" type="line"/>
      <point x="693" y="1029" type="line"/>
      <point x="718" y="904" type="line"/>
      <point x="802" y="982"/>
      <point x="1061" y="1079"/>
      <point x="1227" y="1079" type="qcurve" smooth="yes"/>
      <point x="1469" y="1079"/>
      <point x="1731" y="930"/>
      <point x="1731" y="800" type="qcurve" smooth="yes"/>
      <point x="1731" y="720"/>
      <point x="1726" y="564"/>
      <point x="1726" y="537" type="qcurve" smooth="yes"/>
      <point x="1730" y="159" type="line"/>
      <point x="1929" y="124" type="line"/>
      <point x="1929" y="0" type="line"/>
      <point x="1046" y="0" type="line"/>
      <point x="1046" y="124" type="line"/>
      <point x="1254" y="159" type="line"/>
      <point x="1256" y="522" type="line"/>
      <point x="1256" y="739" type="line" smooth="yes"/>
      <point x="1256" y="822"/>
      <point x="1137" y="914"/>
      <point x="1039" y="914" type="qcurve" smooth="yes"/>
      <point x="941" y="914"/>
      <point x="767" y="826"/>
      <point x="717" y="755" type="qcurve"/>
      <point x="716" y="515" type="line"/>
      <point x="718" y="159" type="line"/>
      <point x="906" y="124" type="line"/>
      <point x="906" y="0" type="line"/>
    </contour>
  </outline>
</glyph>
<glyph name="p" format="2">
  <advance width="1908"/>
  <unicode hex="0070"/>
  <anchor x="962" y="0" name="bottom"/>
  <anchor x="962" y="1051" name="top"/>
  <outline>
    <contour>
      <point x="29" y="-480" type="line"/>
      <point x="29" y="-356" type="line"/>
      <point x="222" y="-321" type="line"/>
      <point x="224" y="460" type="line"/>
      <point x="222" y="849" type="line"/>
      <point x="24" y="879" type="line"/>
      <point x="24" y="1017" type="line"/>
      <point x="648" y="1056" type="line"/>
      <point x="683" y="1029" type="line"/>
      <point x="699" y="913" type="line"/>
      <point x="774" y="986"/>
      <point x="1024" y="1078"/>
      <point x="1199" y="1078" type="qcurve" smooth="yes"/>
      <point x="1470" y="1078"/>
      <point x="1822" y="794"/>
      <point x="1822" y="555" type="qcurve" smooth="yes"/>
      <point x="1822" y="298"/>
      <point x="1456" y="-17"/>
      <point x="1149" y="-17" type="qcurve" smooth="yes"/>
      <point x="998" y="-17"/>
      <point x="766" y="44"/>
      <point x="696" y="89" type="qcurve"/>
      <point x="698" y="-321" type="line"/>
      <point x="900" y="-356" type="line"/>
      <point x="900" y="-480" type="line"/>
    </contour>
    <contour>
      <point x="696" y="251" type="line"/>
      <point x="733" y="193"/>
      <point x="896" y="108"/>
      <point x="1007" y="108" type="qcurve" smooth="yes"/>
      <point x="1157" y="108"/>
      <point x="1329" y="335"/>
      <point x="1329" y="532" type="qcurve" smooth="yes"/>
      <point x="1329" y="720"/>
      <point x="1158" y="933"/>
      <point x="1012" y="933" type="qcurve" smooth="yes"/>
      <point x="903" y="933"/>
      <point x="744" y="851"/>
      <point x="697" y="787" type="qcurve"/>
      <point x="694" y="465" type="line"/>
    </contour>
  </outline>
</glyph>
<glyph name="q" format="2">
  <advance width="1899"/>
  <unicode hex="0071"/>
  <anchor x="936" y="0" name="bottom"/>
  <anchor x="946" y="1051" name="top"/>
  <outline>
    <contour>
      <point x="86" y="501" type="qcurve" smooth="yes"/>
      <point x="86" y="765"/>
      <point x="482" y="1077"/>
      <point x="806" y="1077" type="qcurve" smooth="yes"/>
      <point x="928" y="1077"/>
      <point x="1161" y="1022"/>
      <point x="1234" y="979" type="qcurve"/>
      <point x="1290" y="1066" type="line"/>
      <point x="1891" y="1026" type="line"/>
      <point x="1891" y="889" type="line"/>
      <point x="1692" y="855" type="line"/>
      <point x="1685" y="449" type="line"/>
      <point x="1687" y="-321" type="line"/>
      <point x="1889" y="-356" type="line"/>
      <point x="1889" y="-480" type="line"/>
      <point x="987" y="-480" type="line"/>
      <point x="987" y="-356" type="line"/>
      <point x="1210" y="-321" type="line"/>
      <point x="1210" y="138" type="line"/>
      <point x="1131" y="67"/>
      <point x="881" y="-15"/>
      <point x="717" y="-15" type="qcurve" smooth="yes"/>
      <point x="448" y="-15"/>
      <point x="86" y="264"/>
    </contour>
    <contour>
      <point x="580" y="529" type="qcurve" smooth="yes"/>
      <point x="580" y="341"/>
      <point x="760" y="131"/>
      <point x="906" y="131" type="qcurve" smooth="yes"/>
      <point x="1009" y="131"/>
      <point x="1168" y="207"/>
      <point x="1218" y="270" type="qcurve"/>
      <point x="1220" y="839" type="line"/>
      <point x="1180" y="891"/>
      <point x="1039" y="954"/>
      <point x="933" y="954" type="qcurve" smooth="yes"/>
      <point x="777" y="954"/>
      <point x="580" y="714"/>
    </contour>
  </outline>
</glyph>
<glyph name="r" format="2">
  <advance width="1241"/>
  <unicode hex="0072"/>
  <anchor x="580" y="0" name="bottom"/>
  <anchor x="655" y="1051" name="top"/>
  <outline>
    <contour>
      <point x="44" y="0" type="line"/>
      <point x="44" y="124" type="line"/>
      <point x="242" y="159" type="line"/>
      <point x="244" y="548" type="line"/>
      <point x="242" y="848" type="line"/>
      <point x="44" y="878" type="line"/>
      <point x="44" y="1016" type="line"/>
      <point x="658" y="1056" type="line"/>
      <point x="693" y="1029" type="line"/>
      <point x="718" y="910" type="line"/>
      <point x="780" y="968"/>
      <point x="981" y="1055"/>
      <point x="1099" y="1055" type="qcurve" smooth="yes"/>
      <point x="1214" y="1055" type="line"/>
      <point x="1214" y="722" type="line"/>
      <point x="1050" y="722" type="line"/>
      <point x="1016" y="889" type="line"/>
      <point x="946" y="885"/>
      <point x="777" y="822"/>
      <point x="716" y="751" type="qcurve"/>
      <point x="716" y="535" type="line"/>
      <point x="718" y="159" type="line"/>
      <point x="926" y="124" type="line"/>
      <point x="926" y="0" type="line"/>
    </contour>
  </outline>
</glyph>
<glyph name="s" format="2">
  <advance width="1232"/>
  <unicode hex="0073"/>
  <anchor x="606" y="0" name="bottom"/>
  <anchor x="594" y="1051" name="top"/>
  <outline>
    <contour>
      <point x="59" y="-12" type="line"/>
      <point x="59" y="377" type="line"/>
      <point x="222" y="377" type="line"/>
      <point x="234" y="293" type="line" smooth="yes"/>
      <point x="251" y="206"/>
      <point x="394" y="100"/>
      <point x="508" y="100" type="qcurve" smooth="yes"/>
      <point x="615" y="100"/>
      <point x="732" y="161"/>
      <point x="732" y="230" type="qcurve" smooth="yes"/>
      <point x="732" y="294"/>
      <point x="590" y="361"/>
      <point x="415" y="413" type="qcurve" smooth="yes"/>
      <point x="242" y="464"/>
      <point x="107" y="608"/>
      <point x="107" y="715" type="qcurve" smooth="yes"/>
      <point x="107" y="880"/>
      <point x="350" y="1078"/>
      <point x="578" y="1078" type="qcurve" smooth="yes"/>
      <point x="698" y="1078"/>
      <point x="896" y="1040"/>
      <point x="946" y="1010" type="qcurve"/>
      <point x="962" y="1063" type="line"/>
      <point x="1109" y="1063" type="line"/>
      <point x="1109" y="721" type="line"/>
      <point x="947" y="721" type="line"/>
      <point x="930" y="838" type="line" smooth="yes"/>
      <point x="922" y="884"/>
      <point x="805" y="956"/>
      <point x="722" y="956" type="qcurve" smooth="yes"/>
      <point x="630" y="956"/>
      <point x="540" y="904"/>
      <point x="540" y="847" type="qcurve" smooth="yes"/>
      <point x="540" y="802"/>
      <point x="634" y="738"/>
      <point x="811" y="685" type="qcurve" smooth="yes"/>
      <point x="979" y="635"/>
      <point x="1166" y="495"/>
      <point x="1166" y="353" type="qcurve" smooth="yes"/>
      <point x="1166" y="174"/>
      <point x="870" y="-25"/>
      <point x="652" y="-25" type="qcurve" smooth="yes"/>
      <point x="497" y="-25"/>
      <point x="294" y="22"/>
      <point x="246" y="74" type="qcurve"/>
      <point x="206" y="-12" type="line"/>
    </contour>
  </outline>
</glyph>
<glyph name="t" format="2">
  <advance width="1023"/>
  <unicode hex="0074"/>
  <anchor x="474" y="0" name="bottom"/>
  <anchor x="458" y="622" name="center"/>
  <anchor x="472" y="1179" name="top"/>
  <anchor x="866" y="1000" name="topright"/>
  <outline>
    <contour>
      <point x="44" y="908" type="line"/>
      <point x="44" y="1004" type="line"/>
      <point x="202" y="1032"/>
      <point x="379" y="1177"/>
      <point x="423" y="1238" type="qcurve"/>
      <point x="681" y="1238" type="line"/>
      <point x="714" y="1198" type="line"/>
      <point x="709" y="1032" type="line"/>
      <point x="942" y="1032" type="line"/>
      <point x="942" y="908" type="line"/>
      <point x="706" y="908" type="line"/>
      <point x="697" y="539" type="line"/>
      <point x="700" y="229" type="line" smooth="yes"/>
      <point x="701" y="167"/>
      <point x="765" y="127"/>
      <point x="859" y="127" type="qcurve" smooth="yes"/>
      <point x="939" y="127" type="line"/>
      <point x="939" y="29" type="line"/>
      <point x="474" y="-14" type="line"/>
      <point x="337" y="-14"/>
      <point x="224" y="72"/>
      <point x="224" y="162" type="qcurve" smooth="yes"/>
      <point x="224" y="538" type="line"/>
      <point x="224" y="896" type="line"/>
    </contour>
  </outline>
</glyph>
<glyph name="u" format="2">
  <advance width="1945"/>
  <unicode hex="0075"/>
  <anchor x="962" y="0" name="bottom"/>
  <anchor x="1756" y="20" name="ogonek"/>
  <anchor x="964" y="1051" name="top"/>
  <anchor x="1689" y="1051" name="topright"/>
  <outline>
    <contour>
      <point x="24" y="879" type="line"/>
      <point x="24" y="1017" type="line"/>
      <point x="640" y="1051" type="line"/>
      <point x="675" y="1051" type="line"/>
      <point x="700" y="1015" type="line"/>
      <point x="698" y="517" type="line"/>
      <point x="698" y="308" type="line" smooth="yes"/>
      <point x="698" y="241"/>
      <point x="811" y="133"/>
      <point x="915" y="133" type="qcurve" smooth="yes"/>
      <point x="1001" y="133"/>
      <point x="1180" y="214"/>
      <point x="1237" y="290" type="qcurve"/>
      <point x="1238" y="522" type="line"/>
      <point x="1236" y="849" type="line"/>
      <point x="1048" y="879" type="line"/>
      <point x="1048" y="1017" type="line"/>
      <point x="1653" y="1051" type="line"/>
      <point x="1688" y="1051" type="line"/>
      <point x="1713" y="1015" type="line"/>
      <point x="1711" y="503" type="line"/>
      <point x="1713" y="185" type="line"/>
      <point x="1911" y="155" type="line"/>
      <point x="1911" y="34" type="line"/>
      <point x="1296" y="0" type="line"/>
      <point x="1261" y="27" type="line"/>
      <point x="1237" y="147" type="line"/>
      <point x="1147" y="71"/>
      <point x="850" y="-27"/>
      <point x="690" y="-27" type="qcurve" smooth="yes"/>
      <point x="457" y="-27"/>
      <point x="222" y="122"/>
      <point x="222" y="252" type="qcurve" smooth="yes"/>
      <point x="222" y="324"/>
      <point x="227" y="473"/>
      <point x="227" y="498" type="qcurve" smooth="yes"/>
      <point x="222" y="849" type="line"/>
    </contour>
  </outline>
</glyph>
<glyph name="v" format="2">
  <advance width="1450"/>
  <unicode hex="0076"/>
  <anchor x="736" y="0" name="bottom"/>
  <anchor x="799" y="1051" name="top"/>
  <outline>
    <contour>
      <point x="-42" y="917" type="line"/>
      <point x="-42" y="1051" type="line"/>
      <point x="797" y="1051" type="line"/>
      <point x="797" y="917" type="line"/>
      <point x="630" y="880" type="line"/>
      <point x="747" y="564" type="line"/>
      <point x="843" y="293" type="line"/>
      <point x="882" y="179" type="line"/>
      <point x="892" y="179" type="line"/>
      <point x="930" y="293" type="line"/>
      <point x="1029" y="566" type="line"/>
      <point x="1146" y="887" type="line"/>
      <point x="974" y="917" type="line"/>
      <point x="974" y="1051" type="line"/>
      <point x="1512" y="1051" type="line"/>
      <point x="1512" y="917" type="line"/>
      <point x="1297" y="882" type="line"/>
      <point x="1155" y="524" type="line"/>
      <point x="954" y="-13" type="line"/>
      <point x="495" y="-13" type="line"/>
      <point x="295" y="508" type="line"/>
      <point x="143" y="882" type="line"/>
    </contour>
  </outline>
</glyph>
<glyph name="w" format="2">
  <advance width="2361"/>
  <unicode hex="0077"/>
  <anchor x="1169" y="0" name="bottom"/>
  <anchor x="1169" y="1051" name="top"/>
  <outline>
    <contour>
      <point x="477" y="-13" type="line"/>
      <point x="282" y="484" type="line"/>
      <point x="126" y="882" type="line"/>
      <point x="-42" y="917" type="line"/>
      <point x="-42" y="1051" type="line"/>
      <point x="798" y="1051" type="line"/>
      <point x="798" y="917" type="line"/>
      <point x="615" y="880" type="line"/>
      <point x="735" y="538" type="line"/>
      <point x="829" y="289" type="line"/>
      <point x="870" y="175" type="line"/>
      <point x="881" y="175" type="line"/>
      <point x="920" y="289" type="line"/>
      <point x="998" y="506" type="line"/>
      <point x="1096" y="790" type="line"/>
      <point x="1059" y="884" type="line"/>
      <point x="885" y="917" type="line"/>
      <point x="885" y="1051" type="line"/>
      <point x="1721" y="1051" type="line"/>
      <point x="1721" y="917" type="line"/>
      <point x="1553" y="880" type="line"/>
      <point x="1688" y="504" type="line"/>
      <point x="1768" y="289" type="line"/>
      <point x="1808" y="175" type="line"/>
      <point x="1818" y="175" type="line"/>
      <point x="1860" y="289" type="line"/>
      <point x="1960" y="551" type="line"/>
      <point x="2083" y="887" type="line"/>
      <point x="1896" y="917" type="line"/>
      <point x="1896" y="1051" type="line"/>
      <point x="2423" y="1051" type="line"/>
      <point x="2423" y="917" type="line"/>
      <point x="2225" y="882" type="line"/>
      <point x="2075" y="499" type="line"/>
      <point x="1877" y="-13" type="line"/>
      <point x="1418" y="-13" type="line"/>
      <point x="1220" y="504" type="line"/>
      <point x="1178" y="619" type="line"/>
      <point x="1168" y="619" type="line"/>
      <point x="1128" y="504" type="line"/>
      <point x="933" y="-13" type="line"/>
    </contour>
  </outline>
</glyph>
<glyph name="x" format="2">
  <advance width="1520"/>
  <unicode hex="0078"/>
  <anchor x="720" y="0" name="bottom"/>
  <anchor x="720" y="1051" name="top"/>
  <outline>
    <contour>
      <point x="-16" y="0" type="line"/>
      <point x="-16" y="124" type="line"/>
      <point x="190" y="159" type="line"/>
      <point x="477" y="508" type="line"/>
      <point x="149" y="882" type="line"/>
      <point x="-12" y="917" type="line"/>
      <point x="-12" y="1051" type="line"/>
      <point x="867" y="1051" type="line"/>
      <point x="867" y="917" type="line"/>
      <point x="701" y="880" type="line"/>
      <point x="846" y="710" type="line"/>
      <point x="922" y="622" type="line"/>
      <point x="932" y="622" type="line"/>
      <point x="1004" y="710" type="line"/>
      <point x="1147" y="887" type="line"/>
      <point x="960" y="917" type="line"/>
      <point x="960" y="1051" type="line"/>
      <point x="1501" y="1051" type="line"/>
      <point x="1501" y="917" type="line"/>
      <point x="1305" y="882" type="line"/>
      <point x="1026" y="546" type="line"/>
      <point x="1367" y="159" type="line"/>
      <point x="1539" y="124" type="line"/>
      <point x="1539" y="0" type="line"/>
      <point x="650" y="0" type="line"/>
      <point x="650" y="124" type="line"/>
      <point x="816" y="161" type="line"/>
      <point x="657" y="346" type="line"/>
      <point x="581" y="433" type="line"/>
      <point x="571" y="433" type="line"/>
      <point x="503" y="346" type="line"/>
      <point x="349" y="154" type="line"/>
      <point x="526" y="124" type="line"/>
      <point x="526" y="0" type="line"/>
    </contour>
  </outline>
</glyph>
<glyph name="y" format="2">
  <advance width="1452"/>
  <unicode hex="0079"/>
  <anchor x="1161" y="0" name="bottom"/>
  <anchor x="812" y="1051" name="top"/>
  <outline>
    <contour>
      <point x="-42" y="917" type="line"/>
      <point x="-42" y="1051" type="line"/>
      <point x="797" y="1051" type="line"/>
      <point x="797" y="917" type="line"/>
      <point x="614" y="880" type="line"/>
      <point x="740" y="560" type="line"/>
      <point x="837" y="312" type="line"/>
      <point x="883" y="194" type="line"/>
      <point x="893" y="194" type="line"/>
      <point x="939" y="312" type="line"/>
      <point x="1034" y="563" type="line"/>
      <point x="1161" y="887" type="line"/>
      <point x="956" y="917" type="line"/>
      <point x="956" y="1051" type="line"/>
      <point x="1514" y="1051" type="line"/>
      <point x="1514" y="917" type="line"/>
      <point x="1316" y="882" type="line"/>
      <point x="1161" y="519" type="line"/>
      <point x="830" y="-287" type="line" smooth="yes"/>
      <point x="783" y="-401"/>
      <point x="632" y="-496"/>
      <point x="532" y="-496" type="qcurve"/>
      <point x="369" y="-460" type="line"/>
      <point x="369" y="-350" type="line"/>
      <point x="467" y="-350" type="line" smooth="yes"/>
      <point x="528" y="-350"/>
      <point x="682" y="-290"/>
      <point x="726" y="-183" type="qcurve" smooth="yes"/>
      <point x="810" y="15" type="line"/>
      <point x="493" y="15" type="line"/>
      <point x="289" y="503" type="line"/>
      <point x="126" y="882" type="line"/>
    </contour>
  </outline>
</glyph>
<glyph name="z" format="2">
  <advance width="1296"/>
  <unicode hex="007A"/>
  <anchor x="642" y="0" name="bottom"/>
  <anchor x="642" y="1051" name="top"/>
  <outline>
    <contour>
      <point x="50" y="0" type="line"/>
      <point x="50" y="90" type="line"/>
      <point x="680" y="917" type="line"/>
      <point x="260" y="917" type="line"/>
      <point x="233" y="737" type="line"/>
      <point x="70" y="737" type="line"/>
      <point x="70" y="1051" type="line"/>
      <point x="1228" y="1051" type="line"/>
      <point x="1228" y="962" type="line"/>
      <point x="586" y="134" type="line"/>
      <point x="1062" y="134" type="line"/>
      <point x="1089" y="314" type="line"/>
      <point x="1253" y="314" type="line"/>
      <point x="1253" y="0" type="line"/>
    </contour>
  </outline>
</glyph>
<glyph name="braceleft" format="2">
  <advance width="1002"/>
  <unicode hex="007B"/>
  <outline>
    <contour>
      <point x="71" y="475" type="line"/>
      <point x="71" y="597" type="line"/>
      <point x="202" y="607" type="line" smooth="yes"/>
      <point x="258" y="611"/>
      <point x="329" y="667"/>
      <point x="329" y="723" type="qcurve" smooth="yes"/>
      <point x="329" y="840"/>
      <point x="192" y="1069"/>
      <point x="192" y="1186" type="qcurve" smooth="yes"/>
      <point x="192" y="1343"/>
      <point x="463" y="1510"/>
      <point x="666" y="1510" type="qcurve" smooth="yes"/>
      <point x="830" y="1510"/>
      <point x="932" y="1503"/>
      <point x="974" y="1500" type="qcurve"/>
      <point x="974" y="1360" type="line"/>
      <point x="916" y="1362"/>
      <point x="867" y="1362"/>
      <point x="812" y="1362" type="qcurve" smooth="yes"/>
      <point x="719" y="1362"/>
      <point x="611" y="1272"/>
      <point x="611" y="1178" type="qcurve" smooth="yes"/>
      <point x="611" y="1079"/>
      <point x="698" y="876"/>
      <point x="698" y="789" type="qcurve" smooth="yes"/>
      <point x="698" y="697"/>
      <point x="633" y="571"/>
      <point x="582" y="550" type="qcurve"/>
      <point x="645" y="516"/>
      <point x="698" y="384"/>
      <point x="698" y="316" type="qcurve" smooth="yes"/>
      <point x="698" y="229"/>
      <point x="577" y="-62"/>
      <point x="577" y="-160" type="qcurve" smooth="yes"/>
      <point x="577" y="-255"/>
      <point x="691" y="-348"/>
      <point x="783" y="-348" type="qcurve" smooth="yes"/>
      <point x="839" y="-348"/>
      <point x="910" y="-348"/>
      <point x="968" y="-346" type="qcurve"/>
      <point x="968" y="-484" type="line"/>
      <point x="927" y="-487"/>
      <point x="834" y="-495"/>
      <point x="661" y="-495" type="qcurve" smooth="yes"/>
      <point x="457" y="-495"/>
      <point x="162" y="-327"/>
      <point x="162" y="-168" type="qcurve" smooth="yes"/>
      <point x="162" y="-50"/>
      <point x="328" y="246"/>
      <point x="328" y="364" type="qcurve"/>
      <point x="328" y="475" type="line"/>
    </contour>
  </outline>
</glyph>
<glyph name="braceright" format="2">
  <advance width="1002"/>
  <unicode hex="007D"/>
  <outline>
    <contour>
      <point x="34" y="-484" type="qcurve"/>
      <point x="34" y="-346" type="line"/>
      <point x="92" y="-348"/>
      <point x="154" y="-348"/>
      <point x="203" y="-348" type="qcurve" smooth="yes"/>
      <point x="302" y="-348"/>
      <point x="401" y="-255"/>
      <point x="401" y="-160" type="qcurve" smooth="yes"/>
      <point x="401" y="-62"/>
      <point x="303" y="229"/>
      <point x="303" y="316" type="qcurve" smooth="yes"/>
      <point x="303" y="384"/>
      <point x="356" y="516"/>
      <point x="419" y="550" type="qcurve"/>
      <point x="368" y="571"/>
      <point x="303" y="697"/>
      <point x="303" y="788" type="qcurve" smooth="yes"/>
      <point x="303" y="876"/>
      <point x="408" y="1079"/>
      <point x="408" y="1177" type="qcurve" smooth="yes"/>
      <point x="408" y="1272"/>
      <point x="293" y="1362"/>
      <point x="204" y="1362" type="qcurve" smooth="yes"/>
      <point x="146" y="1362"/>
      <point x="86" y="1362"/>
      <point x="28" y="1360" type="qcurve"/>
      <point x="28" y="1500" type="line"/>
      <point x="72" y="1504"/>
      <point x="153" y="1510"/>
      <point x="322" y="1510" type="qcurve" smooth="yes"/>
      <point x="545" y="1510"/>
      <point x="814" y="1343"/>
      <point x="814" y="1186" type="qcurve" smooth="yes"/>
      <point x="814" y="1069"/>
      <point x="672" y="839"/>
      <point x="672" y="723" type="qcurve" smooth="yes"/>
      <point x="672" y="667"/>
      <point x="744" y="611"/>
      <point x="800" y="607" type="qcurve" smooth="yes"/>
      <point x="931" y="597" type="line"/>
      <point x="931" y="475" type="line"/>
      <point x="673" y="475" type="line"/>
      <point x="673" y="364" type="line"/>
      <point x="673" y="246"/>
      <point x="834" y="-50"/>
      <point x="834" y="-168" type="qcurve" smooth="yes"/>
      <point x="834" y="-327"/>
      <point x="552" y="-495"/>
      <point x="334" y="-495" type="qcurve" smooth="yes"/>
      <point x="162" y="-495"/>
      <point x="75" y="-487"/>
    </contour>
  </outline>
</glyph>
<glyph name="asciitilde" format="2">
  <advance width="1136"/>
  <unicode hex="007E"/>
  <outline>
    <contour>
      <point x="29" y="605" type="line"/>
      <point x="91" y="698"/>
      <point x="334" y="893"/>
      <point x="427" y="893" type="qcurve"/>
      <point x="823" y="762" type="line"/>
      <point x="874" y="750"/>
      <point x="946" y="760"/>
      <point x="987" y="821" type="qcurve"/>
      <point x="1107" y="758" type="line"/>
      <point x="1055" y="652"/>
      <point x="855" y="450"/>
      <point x="723" y="450" type="qcurve"/>
      <point x="347" y="574" type="line"/>
      <point x="288" y="588"/>
      <point x="181" y="584"/>
      <point x="124" y="532" type="qcurve"/>
    </contour>
  </outline>
</glyph>
<glyph name="cent" format="2">
  <advance width="1374"/>
  <unicode hex="00A2"/>
  <outline>
    <contour>
      <point x="82" y="475" type="qcurve" smooth="yes"/>
      <point x="82" y="714"/>
      <point x="470" y="1022"/>
      <point x="808" y="1022" type="qcurve" smooth="yes"/>
      <point x="906" y="1022"/>
      <point x="1093" y="989"/>
      <point x="1139" y="965" type="qcurve"/>
      <point x="1171" y="1019" type="line"/>
      <point x="1259" y="990" type="line"/>
      <point x="1275" y="646" type="line"/>
      <point x="1177" y="629" type="line"/>
      <point x="1156" y="697" type="line" smooth="yes"/>
      <point x="1132" y="776"/>
      <point x="982" y="893"/>
      <point x="900" y="893" type="qcurve" smooth="yes"/>
      <point x="747" y="893"/>
      <point x="561" y="702"/>
      <point x="561" y="517" type="qcurve" smooth="yes"/>
      <point x="561" y="324"/>
      <point x="779" y="126"/>
      <point x="969" y="126" type="qcurve" smooth="yes"/>
      <point x="1075" y="126"/>
      <point x="1231" y="195"/>
      <point x="1296" y="253" type="qcurve"/>
      <point x="1348" y="175" type="line"/>
      <point x="1269" y="93"/>
      <point x="997" y="-22"/>
      <point x="796" y="-22" type="qcurve" smooth="yes"/>
      <point x="472" y="-22"/>
      <point x="82" y="246"/>
    </contour>
    <contour>
      <point x="818" y="-210" type="line"/>
      <point x="818" y="56" type="line"/>
      <point x="844" y="56" type="line"/>
      <point x="844" y="520" type="line"/>
      <point x="962" y="478" type="line"/>
      <point x="962" y="56" type="line"/>
      <point x="991" y="56" type="line"/>
      <point x="991" y="-160" type="line"/>
    </contour>
    <contour>
      <point x="817" y="1165" type="line"/>
      <point x="989" y="1204" type="line"/>
      <point x="989" y="980" type="line"/>
      <point x="962" y="980" type="line"/>
      <point x="962" y="478" type="line"/>
      <point x="844" y="520" type="line"/>
      <point x="844" y="980" type="line"/>
      <point x="817" y="980" type="line"/>
    </contour>
  </outline>
</glyph>
<glyph name="sterling" format="2">
  <advance width="1512"/>
  <unicode hex="00A3"/>
  <outline>
    <contour>
      <point x="1003" y="552" type="qcurve" smooth="yes"/>
      <point x="1003" y="425"/>
      <point x="846" y="207"/>
      <point x="750" y="165" type="qcurve"/>
      <point x="758" y="132" type="line"/>
      <point x="1165" y="132" type="line"/>
      <point x="1299" y="396" type="line"/>
      <point x="1473" y="396" type="line"/>
      <point x="1374" y="0" type="line"/>
      <point x="88" y="0" type="line"/>
      <point x="28" y="124" type="line"/>
      <point x="55" y="149" type="line"/>
      <point x="266" y="138"/>
      <point x="485" y="363"/>
      <point x="485" y="453" type="qcurve" smooth="yes"/>
      <point x="485" y="536"/>
      <point x="401" y="685"/>
      <point x="345" y="755" type="qcurve" smooth="yes"/>
      <point x="271" y="848"/>
      <point x="132" y="1041"/>
      <point x="132" y="1146" type="qcurve" smooth="yes"/>
      <point x="132" y="1279"/>
      <point x="482" y="1501"/>
      <point x="747" y="1501" type="qcurve" smooth="yes"/>
      <point x="990" y="1501"/>
      <point x="1270" y="1411"/>
      <point x="1391" y="1328" type="qcurve"/>
      <point x="1319" y="1192" type="line"/>
      <point x="1254" y="1249"/>
      <point x="1072" y="1341"/>
      <point x="944" y="1341" type="qcurve" smooth="yes"/>
      <point x="802" y="1341"/>
      <point x="658" y="1220"/>
      <point x="658" y="1140" type="qcurve" smooth="yes"/>
      <point x="658" y="1067"/>
      <point x="778" y="910"/>
      <point x="846" y="828" type="qcurve" smooth="yes"/>
      <point x="907" y="754"/>
      <point x="1003" y="611"/>
    </contour>
    <contour>
      <point x="191" y="567" type="line"/>
      <point x="167" y="717" type="line"/>
      <point x="1314" y="717" type="line"/>
      <point x="1284" y="567" type="line"/>
    </contour>
  </outline>
</glyph>
<glyph name="yen" format="2">
  <advance width="1710"/>
  <unicode hex="00A5"/>
  <outline>
    <contour>
      <point x="231" y="624" type="line"/>
      <point x="201" y="764" type="line"/>
      <point x="1500" y="764" type="line"/>
      <point x="1470" y="624" type="line"/>
    </contour>
    <contour>
      <point x="602" y="657" type="line"/>
      <point x="403" y="977" type="line"/>
      <point x="162" y="1360" type="line"/>
      <point x="-2" y="1386" type="line"/>
      <point x="-2" y="1500" type="line"/>
      <point x="854" y="1500" type="line"/>
      <point x="854" y="1386" type="line"/>
      <point x="695" y="1351" type="line"/>
      <point x="861" y="1068" type="line"/>
      <point x="1031" y="810" type="line"/>
      <point x="1200" y="1088" type="line"/>
      <point x="1354" y="1358" type="line"/>
      <point x="1165" y="1386" type="line"/>
      <point x="1165" y="1500" type="line"/>
      <point x="1712" y="1500" type="line"/>
      <point x="1712" y="1386" type="line"/>
      <point x="1542" y="1359" type="line"/>
      <point x="1321" y="1006" type="line"/>
      <point x="1103" y="646" type="line"/>
      <point x="1105" y="135" type="line"/>
      <point x="1333" y="100" type="line"/>
      <point x="1333" y="0" type="line"/>
      <point x="369" y="0" type="line"/>
      <point x="369" y="100" type="line"/>
      <point x="600" y="135" type="line"/>
    </contour>
    <contour>
      <point x="291" y="324" type="line"/>
      <point x="261" y="464" type="line"/>
      <point x="1440" y="464" type="line"/>
      <point x="1410" y="324" type="line"/>
    </contour>
  </outline>
</glyph>
<glyph name="section" format="2">
  <advance width="1807"/>
  <unicode hex="00A7"/>
  <outline>
    <contour>
      <point x="1688" y="158" type="qcurve" smooth="yes"/>
      <point x="1688" y="-35"/>
      <point x="1283" y="-253"/>
      <point x="941" y="-253" type="qcurve" smooth="yes"/>
      <point x="731" y="-253"/>
      <point x="426" y="-187"/>
      <point x="327" y="-135" type="qcurve"/>
      <point x="286" y="-235" type="line"/>
      <point x="128" y="-235" type="line"/>
      <point x="128" y="212" type="line"/>
      <point x="296" y="212" type="line"/>
      <point x="316" y="119" type="line" smooth="yes"/>
      <point x="343" y="-11"/>
      <point x="628" y="-118"/>
      <point x="815" y="-118" type="qcurve" smooth="yes"/>
      <point x="1027" y="-118"/>
      <point x="1215" y="-31"/>
      <point x="1215" y="60" type="qcurve" smooth="yes"/>
      <point x="1215" y="150"/>
      <point x="972" y="250"/>
      <point x="692" y="307" type="qcurve" smooth="yes"/>
      <point x="390" y="370"/>
      <point x="174" y="528"/>
      <point x="174" y="645" type="qcurve" smooth="yes"/>
      <point x="174" y="764"/>
      <point x="342" y="922"/>
      <point x="536" y="975" type="qcurve"/>
      <point x="371" y="1007"/>
      <point x="227" y="1130"/>
      <point x="227" y="1221" type="qcurve" smooth="yes"/>
      <point x="227" y="1349"/>
      <point x="589" y="1512"/>
      <point x="928" y="1512" type="qcurve" smooth="yes"/>
      <point x="1092" y="1512"/>
      <point x="1333" y="1474"/>
      <point x="1417" y="1449" type="qcurve"/>
      <point x="1431" y="1480" type="line"/>
      <point x="1584" y="1480" type="line"/>
      <point x="1584" y="1172" type="line"/>
      <point x="1416" y="1172" type="line"/>
      <point x="1393" y="1285" type="line" smooth="yes"/>
      <point x="1384" y="1329"/>
      <point x="1175" y="1389"/>
      <point x="1028" y="1389" type="qcurve" smooth="yes"/>
      <point x="846" y="1389"/>
      <point x="699" y="1328"/>
      <point x="699" y="1282" type="qcurve" smooth="yes"/>
      <point x="699" y="1234"/>
      <point x="843" y="1176"/>
      <point x="1101" y="1136" type="qcurve" smooth="yes"/>
      <point x="1356" y="1097"/>
      <point x="1657" y="937"/>
      <point x="1657" y="809" type="qcurve" smooth="yes"/>
      <point x="1657" y="695"/>
      <point x="1414" y="562"/>
      <point x="1214" y="545" type="qcurve"/>
      <point x="1440" y="497"/>
      <point x="1688" y="303"/>
    </contour>
    <contour>
      <point x="637" y="830" type="qcurve" smooth="yes"/>
      <point x="637" y="752"/>
      <point x="794" y="648"/>
      <point x="1039" y="591" type="qcurve"/>
      <point x="1104" y="607"/>
      <point x="1192" y="688"/>
      <point x="1192" y="740" type="qcurve" smooth="yes"/>
      <point x="1192" y="816"/>
      <point x="1000" y="878"/>
      <point x="835" y="909" type="qcurve" smooth="yes"/>
      <point x="797" y="916"/>
      <point x="733" y="929"/>
      <point x="701" y="936" type="qcurve"/>
      <point x="665" y="911"/>
      <point x="637" y="858"/>
    </contour>
  </outline>
</glyph>
<glyph name="ordfeminine" format="2">
  <advance width="1472"/>
  <unicode hex="00AA"/>
  <outline>
    <contour>
      <point x="87" y="889" type="qcurve" smooth="yes"/>
      <point x="87" y="1006"/>
      <point x="510" y="1183"/>
      <point x="932" y="1215" type="qcurve"/>
      <point x="941" y="1122" type="line"/>
      <point x="729" y="1099"/>
      <point x="471" y="1010"/>
      <point x="471" y="902" type="qcurve" smooth="yes"/>
      <point x="471" y="843"/>
      <point x="561" y="790"/>
      <point x="635" y="790" type="qcurve" smooth="yes"/>
      <point x="708" y="790"/>
      <point x="870" y="865"/>
      <point x="902" y="909" type="qcurve"/>
      <point x="904" y="1202" type="line" smooth="yes"/>
      <point x="905" y="1347"/>
      <point x="807" y="1435"/>
      <point x="717" y="1435" type="qcurve" smooth="yes"/>
      <point x="635" y="1435"/>
      <point x="515" y="1401"/>
      <point x="473" y="1376" type="qcurve"/>
      <point x="500" y="1358"/>
      <point x="527" y="1318"/>
      <point x="529" y="1292" type="qcurve" smooth="yes"/>
      <point x="535" y="1238"/>
      <point x="422" y="1185"/>
      <point x="345" y="1185" type="qcurve" smooth="yes"/>
      <point x="268" y="1185"/>
      <point x="169" y="1251"/>
      <point x="169" y="1308" type="qcurve" smooth="yes"/>
      <point x="169" y="1414"/>
      <point x="542" y="1543"/>
      <point x="727" y="1543" type="qcurve" smooth="yes"/>
      <point x="998" y="1543"/>
      <point x="1275" y="1386"/>
      <point x="1277" y="1194" type="qcurve" smooth="yes"/>
      <point x="1282" y="780" type="line"/>
      <point x="1412" y="751" type="line"/>
      <point x="1412" y="684" type="line"/>
      <point x="969" y="684" type="line"/>
      <point x="925" y="734" type="line"/>
      <point x="910" y="791" type="line"/>
      <point x="849" y="748"/>
      <point x="617" y="670"/>
      <point x="446" y="670" type="qcurve" smooth="yes"/>
      <point x="280" y="670"/>
      <point x="87" y="782"/>
    </contour>
  </outline>
</glyph>
<glyph name="guillemotleft" format="2">
  <advance width="1417"/>
  <unicode hex="00AB"/>
  <outline>
    <contour>
      <point x="25" y="624" type="line"/>
      <point x="115" y="673"/>
      <point x="639" y="979"/>
      <point x="715" y="1024" type="qcurve" smooth="yes"/>
      <point x="793" y="1072"/>
      <point x="863" y="969"/>
      <point x="800" y="909" type="qcurve" smooth="yes"/>
      <point x="731" y="839"/>
      <point x="523" y="674"/>
      <point x="471" y="613" type="qcurve"/>
      <point x="524" y="550"/>
      <point x="735" y="375"/>
      <point x="801" y="299" type="qcurve" smooth="yes"/>
      <point x="862" y="240"/>
      <point x="811" y="133"/>
      <point x="732" y="175" type="qcurve" smooth="yes"/>
      <point x="668" y="206"/>
      <point x="104" y="536"/>
      <point x="25" y="584" type="qcurve"/>
    </contour>
    <contour>
      <point x="574" y="624" type="line"/>
      <point x="663" y="673"/>
      <point x="1188" y="979"/>
      <point x="1264" y="1024" type="qcurve" smooth="yes"/>
      <point x="1342" y="1072"/>
      <point x="1412" y="969"/>
      <point x="1348" y="909" type="qcurve" smooth="yes"/>
      <point x="1280" y="839"/>
      <point x="1072" y="674"/>
      <point x="1020" y="613" type="qcurve"/>
      <point x="1073" y="550"/>
      <point x="1284" y="375"/>
      <point x="1350" y="299" type="qcurve" smooth="yes"/>
      <point x="1411" y="240"/>
      <point x="1360" y="133"/>
      <point x="1281" y="175" type="qcurve" smooth="yes"/>
      <point x="1217" y="206"/>
      <point x="653" y="536"/>
      <point x="574" y="584" type="qcurve"/>
    </contour>
  </outline>
</glyph>
<glyph name="logicalnot" format="2">
  <advance width="1136"/>
  <unicode hex="00AC"/>
  <outline>
    <contour>
      <point x="85" y="713" type="line"/>
      <point x="1025" y="713" type="line"/>
      <point x="1025" y="200" type="line"/>
      <point x="853" y="200" type="line"/>
      <point x="853" y="550" type="line"/>
      <point x="85" y="550" type="line"/>
    </contour>
  </outline>
</glyph>
<glyph name="degree" format="2">
  <advance width="918"/>
  <unicode hex="00B0"/>
  <outline>
    <contour>
      <point x="142" y="1243" type="qcurve" smooth="yes"/>
      <point x="142" y="1371"/>
      <point x="320" y="1560"/>
      <point x="459" y="1560" type="qcurve" smooth="yes"/>
      <point x="598" y="1560"/>
      <point x="776" y="1371"/>
      <point x="776" y="1243" type="qcurve" smooth="yes"/>
      <point x="776" y="1118"/>
      <point x="598" y="928"/>
      <point x="459" y="928" type="qcurve" smooth="yes"/>
      <point x="320" y="928"/>
      <point x="142" y="1118"/>
    </contour>
    <contour>
      <point x="263" y="1243" type="qcurve" smooth="yes"/>
      <point x="263" y="1167"/>
      <point x="374" y="1049"/>
      <point x="459" y="1049" type="qcurve" smooth="yes"/>
      <point x="545" y="1049"/>
      <point x="655" y="1167"/>
      <point x="655" y="1243" type="qcurve" smooth="yes"/>
      <point x="655" y="1323"/>
      <point x="545" y="1439"/>
      <point x="459" y="1439" type="qcurve" smooth="yes"/>
      <point x="374" y="1439"/>
      <point x="263" y="1323"/>
    </contour>
  </outline>
</glyph>
<glyph name="plusminus" format="2">
  <advance width="1136"/>
  <unicode hex="00B1"/>
  <outline>
    <contour>
      <point x="95" y="578" type="line"/>
      <point x="95" y="741" type="line"/>
      <point x="1040" y="741" type="line"/>
      <point x="1040" y="578" type="line"/>
    </contour>
    <contour>
      <point x="482" y="239" type="line"/>
      <point x="482" y="1110" type="line"/>
      <point x="654" y="1110" type="line"/>
      <point x="654" y="239" type="line"/>
    </contour>
    <contour>
      <point x="98" y="18" type="line"/>
      <point x="98" y="174" type="line"/>
      <point x="1038" y="174" type="line"/>
      <point x="1038" y="18" type="line"/>
    </contour>
  </outline>
</glyph>
<glyph name="twosuperior" format="2">
  <advance width="1106"/>
  <unicode hex="00B2"/>
  <outline>
    <contour>
      <point x="98" y="671" type="line"/>
      <point x="96" y="894" type="line"/>
      <point x="125" y="958"/>
      <point x="245" y="1059"/>
      <point x="396" y="1122" type="qcurve" smooth="yes"/>
      <point x="525" y="1174"/>
      <point x="596" y="1240"/>
      <point x="594" y="1291" type="qcurve" smooth="yes"/>
      <point x="591" y="1346"/>
      <point x="497" y="1398"/>
      <point x="437" y="1398" type="qcurve" smooth="yes"/>
      <point x="344" y="1398"/>
      <point x="225" y="1354"/>
      <point x="163" y="1304" type="qcurve"/>
      <point x="90" y="1398" type="line"/>
      <point x="167" y="1453"/>
      <point x="384" y="1520"/>
      <point x="566" y="1520" type="qcurve" smooth="yes"/>
      <point x="742" y="1520"/>
      <point x="990" y="1413"/>
      <point x="990" y="1311" type="qcurve" smooth="yes"/>
      <point x="990" y="1199"/>
      <point x="791" y="1062"/>
      <point x="579" y="1030" type="qcurve" smooth="yes"/>
      <point x="406" y="1001"/>
      <point x="272" y="958"/>
      <point x="238" y="936" type="qcurve"/>
      <point x="238" y="910" type="line"/>
      <point x="1012" y="910" type="line"/>
      <point x="1012" y="671" type="line"/>
    </contour>
  </outline>
</glyph>
<glyph name="threesuperior" format="2">
  <advance width="1065"/>
  <unicode hex="00B3"/>
  <outline>
    <contour>
      <point x="60" y="739" type="qcurve"/>
      <point x="111" y="844" type="line"/>
      <point x="176" y="801"/>
      <point x="296" y="767"/>
      <point x="385" y="767" type="qcurve" smooth="yes"/>
      <point x="473" y="767"/>
      <point x="575" y="834"/>
      <point x="575" y="912" type="qcurve" smooth="yes"/>
      <point x="575" y="989"/>
      <point x="426" y="1055"/>
      <point x="282" y="1055" type="qcurve" smooth="yes"/>
      <point x="246" y="1055" type="line"/>
      <point x="230" y="1155" type="line"/>
      <point x="299" y="1158" type="line" smooth="yes"/>
      <point x="432" y="1164"/>
      <point x="548" y="1237"/>
      <point x="548" y="1303" type="qcurve" smooth="yes"/>
      <point x="548" y="1354"/>
      <point x="477" y="1404"/>
      <point x="402" y="1404" type="qcurve" smooth="yes"/>
      <point x="328" y="1404"/>
      <point x="210" y="1369"/>
      <point x="148" y="1335" type="qcurve"/>
      <point x="107" y="1422" type="line"/>
      <point x="190" y="1468"/>
      <point x="397" y="1520"/>
      <point x="538" y="1520" type="qcurve" smooth="yes"/>
      <point x="724" y="1520"/>
      <point x="928" y="1418"/>
      <point x="928" y="1337" type="qcurve" smooth="yes"/>
      <point x="928" y="1252"/>
      <point x="757" y="1139"/>
      <point x="589" y="1118" type="qcurve"/>
      <point x="589" y="1114" type="line"/>
      <point x="765" y="1111"/>
      <point x="969" y="1001"/>
      <point x="969" y="905" type="qcurve" smooth="yes"/>
      <point x="969" y="783"/>
      <point x="714" y="649"/>
      <point x="499" y="649" type="qcurve" smooth="yes"/>
      <point x="347" y="649"/>
      <point x="136" y="696"/>
    </contour>
  </outline>
</glyph>
<glyph name="micro" format="2">
  <advance width="1903"/>
  <unicode hex="00B5"/>
  <outline>
    <contour>
      <point x="3" y="-317" type="line"/>
      <point x="39" y="-295" type="line"/>
      <point x="78" y="-137"/>
      <point x="139" y="112"/>
      <point x="151" y="181" type="qcurve" smooth="yes"/>
      <point x="263" y="822" type="line"/>
      <point x="121" y="819" type="line"/>
      <point x="123" y="915" type="line"/>
      <point x="658" y="1002" type="line"/>
      <point x="703" y="1002" type="line"/>
      <point x="745" y="923" type="line"/>
      <point x="632" y="335" type="line" smooth="yes"/>
      <point x="616" y="252"/>
      <point x="673" y="190"/>
      <point x="758" y="190" type="qcurve" smooth="yes"/>
      <point x="860" y="190"/>
      <point x="1092" y="308"/>
      <point x="1159" y="375" type="qcurve"/>
      <point x="1269" y="976" type="line"/>
      <point x="1260" y="1000" type="line"/>
      <point x="1703" y="1021" type="line"/>
      <point x="1745" y="942" type="line"/>
      <point x="1628" y="362" type="line"/>
      <point x="1602" y="134" type="line"/>
      <point x="1738" y="134" type="line"/>
      <point x="1740" y="47" type="line"/>
      <point x="1172" y="-15" type="line"/>
      <point x="1130" y="76" type="line"/>
      <point x="1138" y="215" type="line"/>
      <point x="1053" y="136"/>
      <point x="800" y="23"/>
      <point x="692" y="23" type="qcurve" smooth="yes"/>
      <point x="656" y="23"/>
      <point x="601" y="36"/>
      <point x="574" y="48" type="qcurve"/>
      <point x="517" y="-274" type="line"/>
      <point x="663" y="-282" type="line"/>
      <point x="655" y="-371" type="line"/>
      <point x="26" y="-399" type="line"/>
    </contour>
  </outline>
</glyph>
<glyph name="paragraph" format="2">
  <advance width="1263"/>
  <unicode hex="00B6"/>
  <outline>
    <contour>
      <point x="1127" y="100" type="line"/>
      <point x="1127" y="0" type="line"/>
      <point x="318" y="0" type="line"/>
      <point x="318" y="100" type="line"/>
      <point x="824" y="132" type="line"/>
      <point x="826" y="787" type="line"/>
      <point x="784" y="781"/>
      <point x="565" y="773"/>
      <point x="503" y="773" type="qcurve" smooth="yes"/>
      <point x="298" y="773"/>
      <point x="50" y="989"/>
      <point x="50" y="1155" type="qcurve" smooth="yes"/>
      <point x="50" y="1326"/>
      <point x="286" y="1500"/>
      <point x="489" y="1500" type="qcurve" smooth="yes"/>
      <point x="1180" y="1500" type="line"/>
      <point x="1180" y="1386" type="line"/>
      <point x="969" y="1352" type="line"/>
      <point x="967" y="754" type="line"/>
      <point x="969" y="137" type="line"/>
    </contour>
    <contour>
      <point x="671" y="46" type="line"/>
      <point x="516" y="46" type="line"/>
      <point x="518" y="907" type="line"/>
      <point x="669" y="907" type="line"/>
    </contour>
  </outline>
</glyph>
<glyph name="onesuperior" format="2">
  <advance width="1035"/>
  <unicode hex="00B9"/>
  <outline>
    <contour>
      <point x="132" y="670" type="line"/>
      <point x="132" y="754" type="line"/>
      <point x="337" y="784" type="line"/>
      <point x="341" y="1108" type="line"/>
      <point x="337" y="1360" type="line"/>
      <point x="130" y="1379" type="line"/>
      <point x="130" y="1480" type="line"/>
      <point x="698" y="1513" type="line"/>
      <point x="733" y="1478" type="line"/>
      <point x="727" y="1109" type="line"/>
      <point x="729" y="784" type="line"/>
      <point x="935" y="754" type="line"/>
      <point x="935" y="670" type="line"/>
    </contour>
  </outline>
</glyph>
<glyph name="ordmasculine" format="2">
  <advance width="1581"/>
  <unicode hex="00BA"/>
  <outline>
    <contour>
      <point x="90" y="1094" type="qcurve" smooth="yes"/>
      <point x="90" y="1280"/>
      <point x="469" y="1542"/>
      <point x="791" y="1542" type="qcurve" smooth="yes"/>
      <point x="1111" y="1542"/>
      <point x="1491" y="1297"/>
      <point x="1491" y="1099" type="qcurve" smooth="yes"/>
      <point x="1491" y="914"/>
      <point x="1118" y="646"/>
      <point x="796" y="646" type="qcurve" smooth="yes"/>
      <point x="474" y="646"/>
      <point x="90" y="894"/>
    </contour>
    <contour>
      <point x="490" y="1111" type="qcurve" smooth="yes"/>
      <point x="490" y="961"/>
      <point x="656" y="749"/>
      <point x="789" y="749" type="qcurve" smooth="yes"/>
      <point x="931" y="749"/>
      <point x="1089" y="941"/>
      <point x="1089" y="1098" type="qcurve" smooth="yes"/>
      <point x="1089" y="1243"/>
      <point x="923" y="1434"/>
      <point x="791" y="1434" type="qcurve" smooth="yes"/>
      <point x="647" y="1434"/>
      <point x="489" y="1261"/>
    </contour>
  </outline>
</glyph>
<glyph name="guillemotright" format="2">
  <advance width="1357"/>
  <unicode hex="00BB"/>
  <outline>
    <contour>
      <point x="1325" y="587" type="line"/>
      <point x="1242" y="532"/>
      <point x="750" y="225"/>
      <point x="681" y="189" type="qcurve" smooth="yes"/>
      <point x="605" y="133"/>
      <point x="531" y="232"/>
      <point x="595" y="302" type="qcurve" smooth="yes"/>
      <point x="660" y="368"/>
      <point x="830" y="531"/>
      <point x="880" y="599" type="qcurve"/>
      <point x="829" y="655"/>
      <point x="656" y="827"/>
      <point x="591" y="913" type="qcurve" smooth="yes"/>
      <point x="532" y="966"/>
      <point x="585" y="1072"/>
      <point x="664" y="1036" type="qcurve" smooth="yes"/>
      <point x="730" y="993"/>
      <point x="1250" y="668"/>
      <point x="1325" y="627" type="qcurve"/>
    </contour>
    <contour>
      <point x="792" y="587" type="line"/>
      <point x="709" y="532"/>
      <point x="216" y="225"/>
      <point x="147" y="189" type="qcurve" smooth="yes"/>
      <point x="72" y="133"/>
      <point x="-2" y="232"/>
      <point x="61" y="302" type="qcurve" smooth="yes"/>
      <point x="126" y="368"/>
      <point x="296" y="531"/>
      <point x="346" y="599" type="qcurve"/>
      <point x="295" y="655"/>
      <point x="123" y="827"/>
      <point x="57" y="913" type="qcurve" smooth="yes"/>
      <point x="-2" y="966"/>
      <point x="51" y="1072"/>
      <point x="130" y="1036" type="qcurve" smooth="yes"/>
      <point x="196" y="993"/>
      <point x="717" y="668"/>
      <point x="792" y="627" type="qcurve"/>
    </contour>
  </outline>
</glyph>
<glyph name="questiondown" format="2">
  <advance width="1382"/>
  <unicode hex="00BF"/>
  <outline>
    <contour>
      <point x="1068" y="1110" type="qcurve" smooth="yes"/>
      <point x="1068" y="1013"/>
      <point x="933" y="870"/>
      <point x="828" y="870" type="qcurve" smooth="yes"/>
      <point x="723" y="870"/>
      <point x="588" y="1013"/>
      <point x="588" y="1110" type="qcurve" smooth="yes"/>
      <point x="588" y="1205"/>
      <point x="723" y="1348"/>
      <point x="828" y="1348" type="qcurve" smooth="yes"/>
      <point x="933" y="1348"/>
      <point x="1068" y="1205"/>
    </contour>
    <contour>
      <point x="1331" y="143" type="qcurve" smooth="yes"/>
      <point x="1331" y="-2"/>
      <point x="1061" y="-214"/>
      <point x="735" y="-214" type="qcurve" smooth="yes"/>
      <point x="361" y="-214"/>
      <point x="38" y="-22"/>
      <point x="38" y="163" type="qcurve" smooth="yes"/>
      <point x="38" y="356"/>
      <point x="326" y="553"/>
      <point x="449" y="585" type="qcurve" smooth="yes"/>
      <point x="547" y="610"/>
      <point x="779" y="676"/>
      <point x="778" y="733" type="qcurve" smooth="yes"/>
      <point x="778" y="792" type="line"/>
      <point x="900" y="792" type="line"/>
      <point x="908" y="751" type="line" smooth="yes"/>
      <point x="924" y="679"/>
      <point x="829" y="537"/>
      <point x="706" y="475" type="qcurve" smooth="yes"/>
      <point x="605" y="424"/>
      <point x="450" y="303"/>
      <point x="450" y="176" type="qcurve" smooth="yes"/>
      <point x="450" y="55"/>
      <point x="623" y="-91"/>
      <point x="765" y="-91" type="qcurve" smooth="yes"/>
      <point x="897" y="-91"/>
      <point x="1045" y="-10"/>
      <point x="1045" y="46" type="qcurve" smooth="yes"/>
      <point x="1045" y="88"/>
      <point x="899" y="170"/>
      <point x="897" y="242" type="qcurve" smooth="yes"/>
      <point x="893" y="300"/>
      <point x="992" y="395"/>
      <point x="1089" y="395" type="qcurve" smooth="yes"/>
      <point x="1196" y="395"/>
      <point x="1331" y="258"/>
    </contour>
  </outline>
</glyph>
<glyph name="AE" format="2">
  <advance width="2483"/>
  <unicode hex="00C6"/>
  <anchor x="1426" y="1500" name="top"/>
  <outline>
    <contour>
      <point x="-33" y="0" type="line"/>
      <point x="-33" y="130" type="line"/>
      <point x="183" y="165" type="line"/>
      <point x="431" y="539" type="line"/>
      <point x="942" y="1337" type="line"/>
      <point x="832" y="1356" type="line"/>
      <point x="832" y="1500" type="line"/>
      <point x="2334" y="1500" type="line"/>
      <point x="2334" y="1134" type="line"/>
      <point x="2162" y="1134" type="line"/>
      <point x="2127" y="1364" type="line"/>
      <point x="1607" y="1364" type="line"/>
      <point x="1578" y="1344" type="line"/>
      <point x="1576" y="783" type="line"/>
      <point x="1578" y="150" type="line"/>
      <point x="1608" y="127" type="line"/>
      <point x="2190" y="127" type="line"/>
      <point x="2266" y="397" type="line"/>
      <point x="2438" y="397" type="line"/>
      <point x="2398" y="0" type="line"/>
      <point x="856" y="0" type="line"/>
      <point x="856" y="130" type="line"/>
      <point x="1074" y="167" type="line"/>
      <point x="1076" y="783" type="line"/>
      <point x="1074" y="1266" type="line"/>
      <point x="1050" y="1292" type="line"/>
      <point x="561" y="501" type="line"/>
      <point x="355" y="160" type="line"/>
      <point x="527" y="130" type="line"/>
      <point x="527" y="0" type="line"/>
    </contour>
    <contour>
      <point x="449" y="438" type="line"/>
      <point x="533" y="581" type="line"/>
      <point x="840" y="566" type="line"/>
      <point x="834" y="438" type="line"/>
    </contour>
    <contour>
      <point x="840" y="566" type="line"/>
      <point x="1178" y="582" type="line"/>
      <point x="1178" y="438" type="line"/>
      <point x="834" y="438" type="line"/>
    </contour>
    <contour>
      <point x="1490" y="726" type="line"/>
      <point x="1490" y="840" type="line"/>
      <point x="1981" y="850" type="line"/>
      <point x="2016" y="1010" type="line"/>
      <point x="2188" y="1010" type="line"/>
      <point x="2188" y="556" type="line"/>
      <point x="2016" y="556" type="line"/>
      <point x="1981" y="716" type="line"/>
    </contour>
  </outline>
</glyph>
<glyph name="multiply" format="2">
  <advance width="1136"/>
  <unicode hex="00D7"/>
  <outline>
    <contour>
      <point x="286" y="241" type="line"/>
      <point x="176" y="350" type="line"/>
      <point x="850" y="1023" type="line"/>
      <point x="959" y="914" type="line"/>
    </contour>
    <contour>
      <point x="845" y="236" type="line"/>
      <point x="172" y="909" type="line"/>
      <point x="291" y="1028" type="line"/>
      <point x="964" y="355" type="line"/>
    </contour>
  </outline>
</glyph>
<glyph name="Thorn" format="2">
  <advance width="2037"/>
  <unicode hex="00DE"/>
  <outline>
    <contour>
      <point x="90" y="0" type="line"/>
      <point x="90" y="130" type="line"/>
      <point x="308" y="167" type="line"/>
      <point x="310" y="754" type="line"/>
      <point x="308" y="1337" type="line"/>
      <point x="90" y="1371" type="line"/>
      <point x="90" y="1515" type="line"/>
      <point x="1051" y="1515" type="line"/>
      <point x="1051" y="1385" type="line"/>
      <point x="814" y="1345" type="line"/>
      <point x="812" y="1265" type="line"/>
      <point x="1223" y="1265" type="line" smooth="yes"/>
      <point x="1588" y="1265"/>
      <point x="1969" y="1047"/>
      <point x="1969" y="831" type="qcurve" smooth="yes"/>
      <point x="1969" y="621"/>
      <point x="1565" y="348"/>
      <point x="1197" y="348" type="qcurve" smooth="yes"/>
      <point x="1033" y="348"/>
      <point x="780" y="367"/>
      <point x="703" y="377" type="qcurve"/>
      <point x="741" y="511" type="line"/>
      <point x="805" y="498"/>
      <point x="930" y="489"/>
      <point x="1041" y="489" type="qcurve" smooth="yes"/>
      <point x="1228" y="489"/>
      <point x="1423" y="670"/>
      <point x="1423" y="831" type="qcurve" smooth="yes"/>
      <point x="1423" y="979"/>
      <point x="1238" y="1126"/>
      <point x="1063" y="1126" type="qcurve" smooth="yes"/>
      <point x="813" y="1126" type="line"/>
      <point x="811" y="763" type="line"/>
      <point x="813" y="162" type="line"/>
      <point x="1051" y="130" type="line"/>
      <point x="1051" y="0" type="line"/>
    </contour>
  </outline>
</glyph>
<glyph name="germandbls" format="2">
  <advance width="2043"/>
  <unicode hex="00DF"/>
  <outline>
    <contour>
      <point x="1592" y="1213" type="qcurve" smooth="yes"/>
      <point x="1592" y="1120"/>
      <point x="1479" y="1009"/>
      <point x="1342" y="970" type="qcurve" smooth="yes"/>
      <point x="1286" y="954"/>
      <point x="1234" y="905"/>
      <point x="1234" y="865" type="qcurve" smooth="yes"/>
      <point x="1234" y="812"/>
      <point x="1344" y="748"/>
      <point x="1469" y="719" type="qcurve" smooth="yes"/>
      <point x="1705" y="665"/>
      <point x="1977" y="498"/>
      <point x="1977" y="341" type="qcurve" smooth="yes"/>
      <point x="1977" y="167"/>
      <point x="1678" y="-28"/>
      <point x="1474" y="-28" type="qcurve" smooth="yes"/>
      <point x="1331" y="-28"/>
      <point x="1144" y="27"/>
      <point x="1062" y="73" type="qcurve"/>
      <point x="1025" y="0" type="line"/>
      <point x="877" y="0" type="line"/>
      <point x="877" y="358" type="line"/>
      <point x="1040" y="358" type="line"/>
      <point x="1051" y="294" type="line" smooth="yes"/>
      <point x="1067" y="206"/>
      <point x="1218" y="97"/>
      <point x="1319" y="97" type="qcurve" smooth="yes"/>
      <point x="1396" y="97"/>
      <point x="1518" y="184"/>
      <point x="1518" y="266" type="qcurve" smooth="yes"/>
      <point x="1518" y="347"/>
      <point x="1383" y="426"/>
      <point x="1240" y="469" type="qcurve" smooth="yes"/>
      <point x="1058" y="524"/>
      <point x="924" y="650"/>
      <point x="924" y="758" type="qcurve" smooth="yes"/>
      <point x="924" y="860"/>
      <point x="1041" y="973"/>
      <point x="1141" y="1018" type="qcurve" smooth="yes"/>
      <point x="1225" y="1054"/>
      <point x="1299" y="1137"/>
      <point x="1299" y="1211" type="qcurve" smooth="yes"/>
      <point x="1299" y="1292"/>
      <point x="1175" y="1398"/>
      <point x="1052" y="1398" type="qcurve" smooth="yes"/>
      <point x="894" y="1398"/>
      <point x="715" y="1239"/>
      <point x="717" y="1066" type="qcurve"/>
      <point x="721" y="527" type="line"/>
      <point x="734" y="45" type="line"/>
      <point x="705" y="0" type="line"/>
      <point x="72" y="0" type="line"/>
      <point x="72" y="124" type="line"/>
      <point x="240" y="159" type="line"/>
      <point x="242" y="527" type="line"/>
      <point x="245" y="1104" type="line" smooth="yes"/>
      <point x="246" y="1290"/>
      <point x="691" y="1525"/>
      <point x="1008" y="1525" type="qcurve" smooth="yes"/>
      <point x="1290" y="1525"/>
      <point x="1592" y="1361"/>
    </contour>
  </outline>
</glyph>
<glyph name="ae" format="2">
  <advance width="2727"/>
  <unicode hex="00E6"/>
  <outline>
    <contour>
      <point x="100" y="245" type="qcurve" smooth="yes"/>
      <point x="100" y="404"/>
      <point x="555" y="623"/>
      <point x="1138" y="663" type="qcurve"/>
      <point x="1141" y="570" type="line"/>
      <point x="871" y="536"/>
      <point x="575" y="411"/>
      <point x="575" y="270" type="qcurve" smooth="yes"/>
      <point x="575" y="191"/>
      <point x="676" y="111"/>
      <point x="757" y="111" type="qcurve" smooth="yes"/>
      <point x="840" y="111"/>
      <point x="1054" y="203"/>
      <point x="1112" y="277" type="qcurve"/>
      <point x="1098" y="307"/>
      <point x="1073" y="449"/>
      <point x="1073" y="510" type="qcurve" smooth="yes"/>
      <point x="1073" y="641" type="line" smooth="yes"/>
      <point x="1073" y="837"/>
      <point x="942" y="952"/>
      <point x="835" y="952" type="qcurve" smooth="yes"/>
      <point x="749" y="952"/>
      <point x="632" y="912"/>
      <point x="592" y="880" type="qcurve"/>
      <point x="634" y="854"/>
      <point x="682" y="799"/>
      <point x="691" y="762" type="qcurve" smooth="yes"/>
      <point x="705" y="710"/>
      <point x="567" y="619"/>
      <point x="455" y="619" type="qcurve" smooth="yes"/>
      <point x="335" y="619"/>
      <point x="183" y="709"/>
      <point x="183" y="793" type="qcurve" smooth="yes"/>
      <point x="183" y="928"/>
      <point x="560" y="1080"/>
      <point x="804" y="1080" type="qcurve" smooth="yes"/>
      <point x="1029" y="1080"/>
      <point x="1271" y="971"/>
      <point x="1316" y="890" type="qcurve"/>
      <point x="1325" y="890" type="line"/>
      <point x="1387" y="961"/>
      <point x="1701" y="1080"/>
      <point x="1917" y="1080" type="qcurve" smooth="yes"/>
      <point x="2241" y="1080"/>
      <point x="2602" y="835"/>
      <point x="2636" y="617" type="qcurve"/>
      <point x="2636" y="549" type="line"/>
      <point x="1534" y="549" type="line"/>
      <point x="1534" y="652" type="line"/>
      <point x="2185" y="652" type="line"/>
      <point x="2165" y="798"/>
      <point x="2003" y="955"/>
      <point x="1879" y="955" type="qcurve" smooth="yes"/>
      <point x="1728" y="955"/>
      <point x="1559" y="732"/>
      <point x="1560" y="533" type="qcurve" smooth="yes"/>
      <point x="1562" y="343"/>
      <point x="1784" y="116"/>
      <point x="2042" y="116" type="qcurve" smooth="yes"/>
      <point x="2173" y="116"/>
      <point x="2410" y="182"/>
      <point x="2528" y="261" type="qcurve"/>
      <point x="2591" y="184" type="line"/>
      <point x="2505" y="91"/>
      <point x="2161" y="-27"/>
      <point x="1931" y="-27" type="qcurve" smooth="yes"/>
      <point x="1668" y="-27"/>
      <point x="1351" y="95"/>
      <point x="1285" y="178" type="qcurve"/>
      <point x="1196" y="107"/>
      <point x="824" y="-23"/>
      <point x="592" y="-23" type="qcurve" smooth="yes"/>
      <point x="311" y="-23"/>
      <point x="100" y="138"/>
    </contour>
  </outline>
</glyph>
<glyph name="eth" format="2">
  <advance width="1900"/>
  <unicode hex="00F0"/>
  <outline>
    <contour>
      <point x="82" y="490" type="qcurve" smooth="yes"/>
      <point x="82" y="709"/>
      <point x="561" y="1009"/>
      <point x="945" y="1009" type="qcurve" smooth="yes"/>
      <point x="1335" y="1009"/>
      <point x="1695" y="723"/>
      <point x="1714" y="496" type="qcurve"/>
      <point x="1326" y="496" type="line"/>
      <point x="1345" y="655"/>
      <point x="1143" y="874"/>
      <point x="948" y="874" type="qcurve" smooth="yes"/>
      <point x="767" y="874"/>
      <point x="574" y="684"/>
      <point x="575" y="510" type="qcurve" smooth="yes"/>
      <point x="576" y="336"/>
      <point x="779" y="103"/>
      <point x="945" y="104" type="qcurve" smooth="yes"/>
      <point x="1136" y="105"/>
      <point x="1332" y="371"/>
      <point x="1332" y="621" type="qcurve" smooth="yes"/>
      <point x="1332" y="985"/>
      <point x="939" y="1383"/>
      <point x="608" y="1481" type="qcurve"/>
      <point x="652" y="1599" type="line"/>
      <point x="1240" y="1484"/>
      <point x="1820" y="956"/>
      <point x="1820" y="624" type="qcurve" smooth="yes"/>
      <point x="1820" y="323"/>
      <point x="1368" y="-27"/>
      <point x="953" y="-27" type="qcurve" smooth="yes"/>
      <point x="565" y="-27"/>
      <point x="82" y="255"/>
    </contour>
    <contour>
      <point x="770" y="1230" type="line"/>
      <point x="1352" y="1598" type="line"/>
      <point x="1431" y="1492" type="line"/>
      <point x="850" y="1124" type="line"/>
    </contour>
  </outline>
</glyph>
<glyph name="divide" format="2">
  <advance width="1158"/>
  <unicode hex="00F7"/>
  <outline>
    <contour>
      <point x="98" y="550" type="line"/>
      <point x="98" y="713" type="line"/>
      <point x="1060" y="713" type="line"/>
      <point x="1060" y="550" type="line"/>
    </contour>
    <contour>
      <point x="391" y="243" type="qcurve" smooth="yes"/>
      <point x="391" y="319"/>
      <point x="496" y="430"/>
      <point x="578" y="430" type="qcurve" smooth="yes"/>
      <point x="660" y="430"/>
      <point x="765" y="319"/>
      <point x="765" y="243" type="qcurve" smooth="yes"/>
      <point x="765" y="169"/>
      <point x="660" y="57"/>
      <point x="578" y="57" type="qcurve" smooth="yes"/>
      <point x="496" y="57"/>
      <point x="391" y="169"/>
    </contour>
    <contour>
      <point x="391" y="1015" type="qcurve" smooth="yes"/>
      <point x="391" y="1090"/>
      <point x="496" y="1201"/>
      <point x="578" y="1201" type="qcurve" smooth="yes"/>
      <point x="660" y="1201"/>
      <point x="765" y="1090"/>
      <point x="765" y="1015" type="qcurve" smooth="yes"/>
      <point x="765" y="941"/>
      <point x="660" y="829"/>
      <point x="578" y="829" type="qcurve" smooth="yes"/>
      <point x="496" y="829"/>
      <point x="391" y="941"/>
    </contour>
  </outline>
</glyph>
<glyph name="thorn" format="2">
  <advance width="1867"/>
  <unicode hex="00FE"/>
  <outline>
    <contour>
      <point x="37" y="-480" type="line"/>
      <point x="37" y="-356" type="line"/>
      <point x="180" y="-321" type="line"/>
      <point x="182" y="427" type="line"/>
      <point x="181" y="1332" type="line"/>
      <point x="15" y="1362" type="line"/>
      <point x="15" y="1500" type="line"/>
      <point x="597" y="1539" type="line"/>
      <point x="629" y="1539" type="line"/>
      <point x="657" y="1507" type="line"/>
      <point x="657" y="911" type="line"/>
      <point x="732" y="985"/>
      <point x="983" y="1078"/>
      <point x="1158" y="1078" type="qcurve" smooth="yes"/>
      <point x="1429" y="1078"/>
      <point x="1781" y="797"/>
      <point x="1781" y="557" type="qcurve" smooth="yes"/>
      <point x="1781" y="296"/>
      <point x="1415" y="-20"/>
      <point x="1107" y="-20" type="qcurve" smooth="yes"/>
      <point x="956" y="-20"/>
      <point x="721" y="44"/>
      <point x="655" y="87" type="qcurve"/>
      <point x="656" y="-321" type="line"/>
      <point x="808" y="-356" type="line"/>
      <point x="808" y="-480" type="line"/>
    </contour>
    <contour>
      <point x="655" y="257" type="line"/>
      <point x="692" y="195"/>
      <point x="855" y="105"/>
      <point x="965" y="105" type="qcurve" smooth="yes"/>
      <point x="1115" y="105"/>
      <point x="1287" y="333"/>
      <point x="1287" y="532" type="qcurve" smooth="yes"/>
      <point x="1287" y="722"/>
      <point x="1116" y="933"/>
      <point x="971" y="933" type="qcurve" smooth="yes"/>
      <point x="862" y="933"/>
      <point x="703" y="846"/>
      <point x="656" y="779" type="qcurve"/>
      <point x="652" y="453" type="line"/>
    </contour>
  </outline>
</glyph>
<glyph name="idotless" format="2">
  <advance width="981"/>
  <unicode hex="0131"/>
  <anchor x="498" y="0" name="bottom"/>
  <anchor x="498" y="1051" name="top"/>
  <anchor x="757" y="0" name="ogonek"/>
  <outline>
    <contour>
      <point x="45" y="0" type="line"/>
      <point x="45" y="124" type="line"/>
      <point x="263" y="159" type="line"/>
      <point x="265" y="530" type="line"/>
      <point x="259" y="849" type="line"/>
      <point x="40" y="879" type="line"/>
      <point x="40" y="1017" type="line"/>
      <point x="674" y="1056" type="line"/>
      <point x="721" y="1056" type="line"/>
      <point x="744" y="1017" type="line"/>
      <point x="737" y="530" type="line"/>
      <point x="739" y="159" type="line"/>
      <point x="957" y="124" type="line"/>
      <point x="957" y="0" type="line"/>
    </contour>
  </outline>
</glyph>
<glyph name="kgreenlandic" format="2">
  <advance width="1901"/>
  <unicode hex="0138"/>
  <outline>
    <contour>
      <point x="93" y="0" type="line"/>
      <point x="93" y="124" type="line"/>
      <point x="232" y="159" type="line"/>
      <point x="234" y="554" type="line"/>
      <point x="232" y="892" type="line"/>
      <point x="93" y="927" type="line"/>
      <point x="93" y="1051" type="line"/>
      <point x="846" y="1051" type="line"/>
      <point x="846" y="927" type="line"/>
      <point x="708" y="892" type="line"/>
      <point x="706" y="533" type="line"/>
      <point x="708" y="159" type="line"/>
      <point x="846" y="124" type="line"/>
      <point x="846" y="0" type="line"/>
    </contour>
    <contour>
      <point x="906" y="600" type="line"/>
      <point x="906" y="718" type="line"/>
      <point x="1283" y="887" type="line"/>
      <point x="1175" y="925" type="line"/>
      <point x="1185" y="1051" type="line"/>
      <point x="1633" y="1051" type="line"/>
      <point x="1633" y="925" type="line"/>
      <point x="1427" y="882" type="line"/>
    </contour>
    <contour>
      <point x="808" y="589" type="line"/>
      <point x="1232" y="768" type="line"/>
      <point x="1706" y="159" type="line"/>
      <point x="1858" y="124" type="line"/>
      <point x="1858" y="0" type="line"/>
      <point x="1132" y="0" type="line"/>
      <point x="1106" y="123" type="line"/>
      <point x="1150" y="155" type="line"/>
    </contour>
  </outline>
</glyph>
<glyph name="OE" format="2">
  <advance width="2885"/>
  <unicode hex="0152"/>
  <outline>
    <contour>
      <point x="98" y="737" type="qcurve" smooth="yes"/>
      <point x="98" y="1071"/>
      <point x="681" y="1527"/>
      <point x="1178" y="1527" type="qcurve" smooth="yes"/>
      <point x="1276" y="1527"/>
      <point x="1577" y="1500"/>
      <point x="1637" y="1500" type="qcurve" smooth="yes"/>
      <point x="2736" y="1500" type="line"/>
      <point x="2736" y="1134" type="line"/>
      <point x="2564" y="1134" type="line"/>
      <point x="2529" y="1364" type="line"/>
      <point x="2050" y="1364" type="line"/>
      <point x="2021" y="1344" type="line"/>
      <point x="2019" y="783" type="line"/>
      <point x="2021" y="151" type="line"/>
      <point x="2051" y="127" type="line"/>
      <point x="2592" y="127" type="line"/>
      <point x="2668" y="397" type="line"/>
      <point x="2840" y="397" type="line"/>
      <point x="2800" y="0" type="line"/>
      <point x="1697" y="0" type="line" smooth="yes"/>
      <point x="1634" y="0"/>
      <point x="1317" y="-35"/>
      <point x="1184" y="-35" type="qcurve" smooth="yes"/>
      <point x="698" y="-35"/>
      <point x="98" y="392"/>
    </contour>
    <contour>
      <point x="619" y="770" type="qcurve" smooth="yes"/>
      <point x="619" y="487"/>
      <point x="940" y="119"/>
      <point x="1214" y="119" type="qcurve" smooth="yes"/>
      <point x="1299" y="119"/>
      <point x="1452" y="137"/>
      <point x="1517" y="154" type="qcurve"/>
      <point x="1519" y="781" type="line"/>
      <point x="1517" y="1333" type="line"/>
      <point x="1475" y="1341"/>
      <point x="1299" y="1366"/>
      <point x="1214" y="1366" type="qcurve" smooth="yes"/>
      <point x="915" y="1366"/>
      <point x="619" y="1042"/>
    </contour>
    <contour>
      <point x="1933" y="726" type="line"/>
      <point x="1933" y="840" type="line"/>
      <point x="2383" y="850" type="line"/>
      <point x="2418" y="1010" type="line"/>
      <point x="2590" y="1010" type="line"/>
      <point x="2590" y="556" type="line"/>
      <point x="2418" y="556" type="line"/>
      <point x="2383" y="716" type="line"/>
    </contour>
  </outline>
</glyph>
<glyph name="oe" format="2">
  <advance width="2956"/>
  <unicode hex="0153"/>
  <outline>
    <contour>
      <point x="82" y="525" type="qcurve" smooth="yes"/>
      <point x="82" y="756"/>
      <point x="534" y="1082"/>
      <point x="901" y="1082" type="qcurve" smooth="yes"/>
      <point x="1167" y="1082"/>
      <point x="1507" y="932"/>
      <point x="1572" y="849" type="qcurve"/>
      <point x="1590" y="849" type="line"/>
      <point x="1643" y="935"/>
      <point x="1942" y="1078"/>
      <point x="2173" y="1078" type="qcurve" smooth="yes"/>
      <point x="2482" y="1078"/>
      <point x="2833" y="835"/>
      <point x="2866" y="618" type="qcurve"/>
      <point x="2866" y="549" type="line"/>
      <point x="1688" y="549" type="line"/>
      <point x="1688" y="652" type="line"/>
      <point x="2417" y="652" type="line"/>
      <point x="2396" y="799"/>
      <point x="2235" y="952"/>
      <point x="2111" y="952" type="qcurve" smooth="yes"/>
      <point x="1959" y="952"/>
      <point x="1791" y="735"/>
      <point x="1792" y="532" type="qcurve" smooth="yes"/>
      <point x="1794" y="344"/>
      <point x="2017" y="116"/>
      <point x="2275" y="116" type="qcurve" smooth="yes"/>
      <point x="2407" y="116"/>
      <point x="2642" y="184"/>
      <point x="2759" y="265" type="qcurve"/>
      <point x="2822" y="189" type="line"/>
      <point x="2737" y="95"/>
      <point x="2390" y="-27"/>
      <point x="2225" y="-27" type="qcurve" smooth="yes"/>
      <point x="1985" y="-27"/>
      <point x="1620" y="108"/>
      <point x="1549" y="217" type="qcurve"/>
      <point x="1542" y="217" type="line"/>
      <point x="1497" y="121"/>
      <point x="1151" y="-30"/>
      <point x="906" y="-30" type="qcurve" smooth="yes"/>
      <point x="540" y="-30"/>
      <point x="82" y="277"/>
    </contour>
    <contour>
      <point x="576" y="547" type="qcurve" smooth="yes"/>
      <point x="577" y="361"/>
      <point x="776" y="102"/>
      <point x="939" y="102" type="qcurve" smooth="yes"/>
      <point x="1113" y="102"/>
      <point x="1303" y="338"/>
      <point x="1303" y="532" type="qcurve" smooth="yes"/>
      <point x="1303" y="713"/>
      <point x="1105" y="947"/>
      <point x="941" y="947" type="qcurve" smooth="yes"/>
      <point x="764" y="947"/>
      <point x="575" y="734"/>
    </contour>
  </outline>
</glyph>
<glyph name="Schwa" format="2">
  <advance width="2202"/>
  <unicode hex="018F"/>
  <outline>
    <contour>
      <point x="82" y="1199" type="line"/>
      <point x="248" y="1365"/>
      <point x="690" y="1519"/>
      <point x="1008" y="1519" type="qcurve" smooth="yes"/>
      <point x="1532" y="1519"/>
      <point x="2104" y="1094"/>
      <point x="2104" y="789" type="qcurve" smooth="yes"/>
      <point x="2104" y="445"/>
      <point x="1552" y="-30"/>
      <point x="1026" y="-30" type="qcurve" smooth="yes"/>
      <point x="533" y="-30"/>
      <point x="105" y="304"/>
      <point x="105" y="578" type="qcurve" smooth="yes"/>
      <point x="105" y="701" type="line"/>
      <point x="1530" y="701" type="line"/>
      <point x="1578" y="552" type="line"/>
      <point x="1021" y="560" type="line"/>
      <point x="617" y="554" type="line"/>
      <point x="617" y="484" type="line" smooth="yes"/>
      <point x="617" y="324"/>
      <point x="843" y="116"/>
      <point x="1062" y="116" type="qcurve" smooth="yes"/>
      <point x="1293" y="116"/>
      <point x="1586" y="470"/>
      <point x="1583" y="750" type="qcurve" smooth="yes"/>
      <point x="1580" y="1039"/>
      <point x="1149" y="1357"/>
      <point x="861" y="1357" type="qcurve" smooth="yes"/>
      <point x="626" y="1357"/>
      <point x="313" y="1240"/>
      <point x="181" y="1110" type="qcurve"/>
    </contour>
  </outline>
</glyph>
<glyph name="florin" format="2">
  <advance width="1065"/>
  <unicode hex="0192"/>
  <outline>
    <contour>
      <point x="789" y="-61" type="line" smooth="yes"/>
      <point x="791" y="-167"/>
      <point x="533" y="-312"/>
      <point x="338" y="-312" type="qcurve" smooth="yes"/>
      <point x="258" y="-312"/>
      <point x="128" y="-304"/>
      <point x="71" y="-295" type="qcurve" smooth="yes"/>
      <point x="31" y="-289" type="line"/>
      <point x="49" y="-161" type="line"/>
      <point x="76" y="-169" type="line" smooth="yes"/>
      <point x="86" y="-171"/>
      <point x="121" y="-176"/>
      <point x="140" y="-176" type="qcurve" smooth="yes"/>
      <point x="214" y="-176"/>
      <point x="294" y="-88"/>
      <point x="292" y="-4" type="qcurve" smooth="yes"/>
      <point x="274" y="838" type="line"/>
      <point x="50" y="850" type="line"/>
      <point x="40" y="966" type="line"/>
      <point x="265" y="984" type="line"/>
      <point x="259" y="1292" type="line" smooth="yes"/>
      <point x="257" y="1399"/>
      <point x="516" y="1521"/>
      <point x="710" y="1521" type="qcurve" smooth="yes"/>
      <point x="782" y="1521"/>
      <point x="944" y="1509"/>
      <point x="978" y="1503" type="qcurve" smooth="yes"/>
      <point x="1018" y="1497" type="line"/>
      <point x="1000" y="1371" type="line"/>
      <point x="976" y="1378" type="line" smooth="yes"/>
      <point x="965" y="1380"/>
      <point x="929" y="1386"/>
      <point x="909" y="1386" type="qcurve" smooth="yes"/>
      <point x="838" y="1386"/>
      <point x="757" y="1319"/>
      <point x="760" y="1242" type="qcurve" smooth="yes"/>
      <point x="771" y="985" type="line"/>
      <point x="1010" y="985" type="line"/>
      <point x="1010" y="861" type="line"/>
      <point x="771" y="850" type="line"/>
    </contour>
  </outline>
</glyph>
<glyph name="schwa" format="2">
  <advance width="1740"/>
  <unicode hex="0259"/>
  <outline>
    <contour>
      <point x="1655" y="525" type="qcurve" smooth="yes"/>
      <point x="1655" y="303"/>
      <point x="1228" y="-22"/>
      <point x="843" y="-22" type="qcurve" smooth="yes"/>
      <point x="507" y="-22"/>
      <point x="115" y="220"/>
      <point x="87" y="436" type="qcurve"/>
      <point x="87" y="503" type="line"/>
      <point x="1270" y="503" type="line"/>
      <point x="1270" y="400" type="line"/>
      <point x="538" y="400" type="line"/>
      <point x="557" y="258"/>
      <point x="720" y="104"/>
      <point x="843" y="104" type="qcurve" smooth="yes"/>
      <point x="996" y="104"/>
      <point x="1163" y="319"/>
      <point x="1162" y="505" type="qcurve" smooth="yes"/>
      <point x="1161" y="704"/>
      <point x="941" y="931"/>
      <point x="680" y="931" type="qcurve" smooth="yes"/>
      <point x="545" y="931"/>
      <point x="309" y="872"/>
      <point x="199" y="801" type="qcurve"/>
      <point x="136" y="876" type="line"/>
      <point x="217" y="960"/>
      <point x="556" y="1074"/>
      <point x="790" y="1074" type="qcurve" smooth="yes"/>
      <point x="1245" y="1074"/>
      <point x="1655" y="780"/>
    </contour>
  </outline>
</glyph>
<glyph name="doubleprimemod" format="2">
  <advance width="824"/>
  <unicode hex="02BA"/>
  <outline>
    <contour>
      <point x="242" y="1502" type="line"/>
      <point x="431" y="1502" type="line"/>
      <point x="313" y="1004" type="line"/>
      <point x="191" y="1009" type="line"/>
    </contour>
    <contour>
      <point x="542" y="1502" type="line"/>
      <point x="731" y="1502" type="line"/>
      <point x="613" y="1004" type="line"/>
      <point x="491" y="1009" type="line"/>
    </contour>
  </outline>
</glyph>
<glyph name="apostrophemod" format="2">
  <advance width="636"/>
  <unicode hex="02BC"/>
  <outline>
    <contour>
      <point x="173" y="1062" type="line"/>
      <point x="213" y="1092"/>
      <point x="317" y="1210"/>
      <point x="332" y="1277" type="qcurve"/>
      <point x="261" y="1277"/>
      <point x="181" y="1352"/>
      <point x="181" y="1411" type="qcurve" smooth="yes"/>
      <point x="181" y="1469"/>
      <point x="262" y="1546"/>
      <point x="325" y="1546" type="qcurve" smooth="yes"/>
      <point x="384" y="1546"/>
      <point x="480" y="1450"/>
      <point x="480" y="1373" type="qcurve" smooth="yes"/>
      <point x="480" y="1251"/>
      <point x="321" y="1063"/>
      <point x="216" y="1013" type="qcurve"/>
    </contour>
  </outline>
</glyph>
<glyph name="acutecomb" format="2">
  <advance width="220"/>
  <unicode hex="0301"/>
  <anchor x="110" y="1000" name="_top"/>
  <anchor x="110" y="1524" name="top"/>
  <outline>
    <contour>
      <point x="450" y="1410" type="qcurve" smooth="yes"/>
      <point x="447" y="1337"/>
      <point x="351" y="1266"/>
      <point x="277" y="1245" type="qcurve" smooth="yes"/>
      <point x="-25" y="1146" type="line"/>
      <point x="-101" y="1232" type="line"/>
      <point x="52" y="1368" type="line" smooth="yes"/>
      <point x="100" y="1429"/>
      <point x="234" y="1553"/>
      <point x="299" y="1551" type="qcurve" smooth="yes"/>
      <point x="367" y="1549"/>
      <point x="452" y="1464"/>
    </contour>
  </outline>
</glyph>
<glyph name="circumflexcomb" format="2">
  <advance width="220"/>
  <unicode hex="0302"/>
  <anchor x="110" y="1000" name="_top"/>
  <anchor x="110" y="1539" name="top"/>
  <outline>
    <contour>
      <point x="110" y="1539" type="qcurve" smooth="yes"/>
      <point x="148" y="1539"/>
      <point x="201" y="1504"/>
      <point x="234" y="1474" type="qcurve" smooth="yes"/>
      <point x="505" y="1226" type="line"/>
      <point x="442" y="1147" type="line"/>
      <point x="110" y="1303" type="line"/>
      <point x="-221" y="1147" type="line"/>
      <point x="-285" y="1226" type="line"/>
      <point x="-14" y="1473" type="line" smooth="yes"/>
      <point x="23" y="1507"/>
      <point x="72" y="1539"/>
    </contour>
  </outline>
</glyph>
<glyph name="tildecomb" format="2">
  <advance width="220"/>
  <unicode hex="0303"/>
  <anchor x="111" y="1000" name="_top"/>
  <anchor x="111" y="1402" name="top"/>
  <outline>
    <contour>
      <point x="-358" y="1236" type="line"/>
      <point x="-321" y="1299"/>
      <point x="-174" y="1485"/>
      <point x="-99" y="1485" type="qcurve" smooth="yes"/>
      <point x="-46" y="1485"/>
      <point x="81" y="1449"/>
      <point x="127" y="1430" type="qcurve" smooth="yes"/>
      <point x="172" y="1413"/>
      <point x="318" y="1363"/>
      <point x="370" y="1363" type="qcurve" smooth="yes"/>
      <point x="414" y="1363"/>
      <point x="491" y="1416"/>
      <point x="517" y="1453" type="qcurve"/>
      <point x="588" y="1368" type="line"/>
      <point x="548" y="1292"/>
      <point x="405" y="1129"/>
      <point x="344" y="1129" type="qcurve" smooth="yes"/>
      <point x="283" y="1129"/>
      <point x="149" y="1175"/>
      <point x="95" y="1195" type="qcurve" smooth="yes"/>
      <point x="55" y="1211"/>
      <point x="-87" y="1252"/>
      <point x="-126" y="1252" type="qcurve" smooth="yes"/>
      <point x="-179" y="1252"/>
      <point x="-260" y="1180"/>
      <point x="-280" y="1152" type="qcurve"/>
    </contour>
  </outline>
</glyph>
<glyph name="dotaccentcomb" format="2">
  <advance width="220"/>
  <unicode hex="0307"/>
  <anchor x="110" y="1000" name="_top"/>
  <anchor x="110" y="1466" name="top"/>
  <outline>
    <contour>
      <point x="-128" y="1254" type="qcurve" smooth="yes"/>
      <point x="-128" y="1365"/>
      <point x="-5" y="1486"/>
      <point x="110" y="1486" type="qcurve" smooth="yes"/>
      <point x="217" y="1486"/>
      <point x="348" y="1359"/>
      <point x="348" y="1254" type="qcurve" smooth="yes"/>
      <point x="348" y="1143"/>
      <point x="226" y="1023"/>
      <point x="110" y="1023" type="qcurve" smooth="yes"/>
      <point x="1" y="1023"/>
      <point x="-128" y="1150"/>
    </contour>
  </outline>
</glyph>
<glyph name="dieresiscomb" format="2">
  <advance width="220"/>
  <unicode hex="0308"/>
  <anchor x="110" y="1000" name="_top"/>
  <anchor x="110" y="1327" name="top"/>
  <anchor x="110" y="1000" name="_GRKtop"/>
  <outline>
    <contour>
      <point x="245" y="1276" type="qcurve" smooth="yes"/>
      <point x="245" y="1361"/>
      <point x="339" y="1453"/>
      <point x="426" y="1453" type="qcurve" smooth="yes"/>
      <point x="509" y="1453"/>
      <point x="608" y="1356"/>
      <point x="608" y="1276" type="qcurve" smooth="yes"/>
      <point x="608" y="1191"/>
      <point x="515" y="1100"/>
      <point x="426" y="1100" type="qcurve" smooth="yes"/>
      <point x="344" y="1100"/>
      <point x="245" y="1197"/>
    </contour>
    <contour>
      <point x="-388" y="1276" type="qcurve" smooth="yes"/>
      <point x="-388" y="1361"/>
      <point x="-294" y="1453"/>
      <point x="-207" y="1453" type="qcurve" smooth="yes"/>
      <point x="-124" y="1453"/>
      <point x="-25" y="1356"/>
      <point x="-25" y="1276" type="qcurve" smooth="yes"/>
      <point x="-25" y="1191"/>
      <point x="-118" y="1100"/>
      <point x="-207" y="1100" type="qcurve" smooth="yes"/>
      <point x="-289" y="1100"/>
      <point x="-388" y="1197"/>
    </contour>
  </outline>
</glyph>
<glyph name="ringcomb" format="2">
  <advance width="220"/>
  <unicode hex="030A"/>
  <anchor x="110" y="1000" name="_top"/>
  <anchor x="110" y="1565" name="top"/>
  <outline>
    <contour>
      <point x="-122" y="1347" type="qcurve" smooth="yes"/>
      <point x="-122" y="1441"/>
      <point x="12" y="1570"/>
      <point x="110" y="1570" type="qcurve" smooth="yes"/>
      <point x="208" y="1570"/>
      <point x="343" y="1441"/>
      <point x="343" y="1347" type="qcurve" smooth="yes"/>
      <point x="343" y="1253"/>
      <point x="208" y="1124"/>
      <point x="110" y="1124" type="qcurve" smooth="yes"/>
      <point x="12" y="1124"/>
      <point x="-122" y="1253"/>
    </contour>
    <contour>
      <point x="10" y="1347" type="qcurve" smooth="yes"/>
      <point x="10" y="1302"/>
      <point x="64" y="1247"/>
      <point x="110" y="1247" type="qcurve" smooth="yes"/>
      <point x="159" y="1247"/>
      <point x="210" y="1298"/>
      <point x="210" y="1347" type="qcurve" smooth="yes"/>
      <point x="210" y="1392"/>
      <point x="156" y="1447"/>
      <point x="110" y="1447" type="qcurve" smooth="yes"/>
      <point x="62" y="1447"/>
      <point x="10" y="1396"/>
    </contour>
  </outline>
</glyph>
<glyph name="hungarumlautcomb" format="2">
  <advance width="220"/>
  <unicode hex="030B"/>
  <anchor x="123" y="1000" name="_top"/>
  <anchor x="123" y="1534" name="top"/>
  <outline>
    <contour>
      <point x="127" y="1474" type="qcurve" smooth="yes"/>
      <point x="127" y="1427"/>
      <point x="84" y="1390"/>
      <point x="46" y="1357" type="qcurve" smooth="yes"/>
      <point x="-197" y="1150" type="line"/>
      <point x="-271" y="1226" type="line"/>
      <point x="-92" y="1453" type="line" smooth="yes"/>
      <point x="-60" y="1493"/>
      <point x="-5" y="1552"/>
      <point x="32" y="1552" type="qcurve" smooth="yes"/>
      <point x="66" y="1552"/>
      <point x="127" y="1509"/>
    </contour>
    <contour>
      <point x="517" y="1474" type="qcurve" smooth="yes"/>
      <point x="517" y="1427"/>
      <point x="474" y="1390"/>
      <point x="436" y="1357" type="qcurve" smooth="yes"/>
      <point x="193" y="1150" type="line"/>
      <point x="119" y="1226" type="line"/>
      <point x="299" y="1453" type="line" smooth="yes"/>
      <point x="331" y="1493"/>
      <point x="385" y="1552"/>
      <point x="422" y="1552" type="qcurve" smooth="yes"/>
      <point x="456" y="1552"/>
      <point x="517" y="1509"/>
    </contour>
  </outline>
</glyph>
<glyph name="caroncomb" format="2">
  <advance width="220"/>
  <unicode hex="030C"/>
  <anchor x="110" y="1000" name="_top"/>
  <anchor x="110" y="1511" name="top"/>
  <outline>
    <contour>
      <point x="110" y="1122" type="qcurve" smooth="yes"/>
      <point x="72" y="1122"/>
      <point x="19" y="1157"/>
      <point x="-14" y="1187" type="qcurve" smooth="yes"/>
      <point x="-285" y="1435" type="line"/>
      <point x="-221" y="1514" type="line"/>
      <point x="110" y="1358" type="line"/>
      <point x="442" y="1514" type="line"/>
      <point x="505" y="1435" type="line"/>
      <point x="234" y="1188" type="line" smooth="yes"/>
      <point x="197" y="1154"/>
      <point x="148" y="1122"/>
    </contour>
  </outline>
</glyph>
<glyph name="breveinvertedcomb" format="2">
  <advance width="220"/>
  <unicode hex="030F"/>
  <anchor x="110" y="1000" name="_top"/>
  <anchor x="110" y="1470" name="top"/>
  <outline>
    <contour>
      <point x="-164" y="1150" type="qcurve"/>
      <point x="-242" y="1203" type="line"/>
      <point x="-227" y="1296"/>
      <point x="-16" y="1470"/>
      <point x="109" y="1470" type="qcurve"/>
      <point x="238" y="1470"/>
      <point x="449" y="1296"/>
      <point x="462" y="1203" type="qcurve"/>
      <point x="384" y="1150" type="line"/>
      <point x="357" y="1204"/>
      <point x="209" y="1314"/>
      <point x="110" y="1314" type="qcurve"/>
      <point x="13" y="1314"/>
      <point x="-135" y="1204"/>
    </contour>
  </outline>
</glyph>
<glyph name="dblgravecomb" format="2">
  <advance width="220"/>
  <unicode hex="0311"/>
  <anchor x="110" y="1000" name="_top"/>
  <anchor x="110" y="1585" name="top"/>
  <outline>
    <contour>
      <point x="-409" y="1492" type="qcurve"/>
      <point x="-409" y="1532"/>
      <point x="-352" y="1577"/>
      <point x="-316" y="1577" type="qcurve" smooth="yes"/>
      <point x="-274" y="1577"/>
      <point x="-217" y="1524"/>
      <point x="-183" y="1478" type="qcurve" smooth="yes"/>
      <point x="-2" y="1230" type="line"/>
      <point x="-89" y="1151" type="line"/>
      <point x="-316" y="1353" type="line" smooth="yes"/>
      <point x="-349" y="1383"/>
      <point x="-409" y="1454"/>
    </contour>
    <contour>
      <point x="-12" y="1492" type="qcurve"/>
      <point x="-12" y="1532"/>
      <point x="45" y="1577"/>
      <point x="81" y="1577" type="qcurve" smooth="yes"/>
      <point x="123" y="1577"/>
      <point x="181" y="1523"/>
      <point x="215" y="1477" type="qcurve" smooth="yes"/>
      <point x="395" y="1230" type="line"/>
      <point x="308" y="1151" type="line"/>
      <point x="81" y="1353" type="line" smooth="yes"/>
      <point x="48" y="1383"/>
      <point x="-12" y="1454"/>
    </contour>
  </outline>
</glyph>
<glyph name="horncomb" format="2">
  <advance width="220"/>
  <unicode hex="031B"/>
  <anchor x="19" y="1000" name="_topright"/>
  <anchor x="18" y="1256" name="topright"/>
  <outline>
    <contour>
      <point x="18" y="1000" type="line"/>
      <point x="31" y="1000"/>
      <point x="61" y="1000"/>
      <point x="94" y="1000" type="qcurve" smooth="yes"/>
      <point x="160" y="1000"/>
      <point x="217" y="1033"/>
      <point x="217" y="1085" type="qcurve" smooth="yes"/>
      <point x="217" y="1120"/>
      <point x="205" y="1208"/>
      <point x="195" y="1256" type="qcurve"/>
      <point x="303" y="1256" type="line"/>
      <point x="327" y="1206"/>
      <point x="354" y="1106"/>
      <point x="354" y="1063" type="qcurve" smooth="yes"/>
      <point x="354" y="973"/>
      <point x="245" y="874"/>
      <point x="144" y="874" type="qcurve" smooth="yes"/>
      <point x="105" y="874"/>
      <point x="44" y="883"/>
      <point x="18" y="889" type="qcurve"/>
    </contour>
  </outline>
</glyph>
<glyph name="cedillacomb" format="2">
  <advance width="220"/>
  <unicode hex="0327"/>
  <anchor x="113" y="0" name="_bottom"/>
  <anchor x="95" y="-541" name="bottom"/>
  <outline>
    <contour>
      <point x="156" y="0" type="line"/>
      <point x="61" y="-125" type="line"/>
      <point x="78" y="-118"/>
      <point x="141" y="-106"/>
      <point x="173" y="-106" type="qcurve" smooth="yes"/>
      <point x="273" y="-106"/>
      <point x="419" y="-196"/>
      <point x="419" y="-285" type="qcurve" smooth="yes"/>
      <point x="419" y="-380"/>
      <point x="236" y="-494"/>
      <point x="120" y="-494" type="qcurve" smooth="yes"/>
      <point x="31" y="-494"/>
      <point x="-124" y="-450"/>
      <point x="-178" y="-408" type="qcurve"/>
      <point x="-126" y="-299" type="line"/>
      <point x="-88" y="-331"/>
      <point x="21" y="-375"/>
      <point x="85" y="-375" type="qcurve" smooth="yes"/>
      <point x="129" y="-375"/>
      <point x="200" y="-328"/>
      <point x="200" y="-282" type="qcurve" smooth="yes"/>
      <point x="200" y="-239"/>
      <point x="141" y="-204"/>
      <point x="89" y="-204" type="qcurve" smooth="yes"/>
      <point x="61" y="-204"/>
      <point x="12" y="-212"/>
      <point x="-8" y="-218" type="qcurve"/>
      <point x="-67" y="-146" type="line"/>
      <point x="65" y="53" type="line"/>
    </contour>
  </outline>
</glyph>
<glyph name="ogonekcomb" format="2">
  <advance width="220"/>
  <unicode hex="0328"/>
  <anchor x="159" y="0" name="_ogonek"/>
  <anchor x="84" y="-463" name="bottom"/>
  <outline>
    <contour>
      <point x="3" y="-240" type="qcurve" smooth="yes"/>
      <point x="3" y="-282"/>
      <point x="61" y="-332"/>
      <point x="110" y="-332" type="qcurve" smooth="yes"/>
      <point x="161" y="-332"/>
      <point x="284" y="-291"/>
      <point x="333" y="-251" type="qcurve"/>
      <point x="383" y="-335" type="line"/>
      <point x="346" y="-379"/>
      <point x="194" y="-463"/>
      <point x="85" y="-463" type="qcurve" smooth="yes"/>
      <point x="-24" y="-463"/>
      <point x="-151" y="-369"/>
      <point x="-151" y="-287" type="qcurve" smooth="yes"/>
      <point x="-151" y="-202"/>
      <point x="-29" y="-32"/>
      <point x="51" y="32" type="qcurve" smooth="yes"/>
      <point x="76" y="52" type="line"/>
      <point x="159" y="0" type="line"/>
      <point x="142" y="-18" type="line" smooth="yes"/>
      <point x="71" y="-93"/>
      <point x="3" y="-190"/>
    </contour>
  </outline>
</glyph>
<glyph name="brevebelowcomb" format="2">
  <advance width="220"/>
  <unicode hex="032E"/>
  <anchor x="110" y="0" name="_bottom"/>
  <anchor x="110" y="-463" name="bottom"/>
  <outline>
    <contour>
      <point x="401" y="-127" type="qcurve"/>
      <point x="494" y="-197" type="line"/>
      <point x="455" y="-296"/>
      <point x="254" y="-463"/>
      <point x="110" y="-463" type="qcurve" smooth="yes"/>
      <point x="-18" y="-463"/>
      <point x="-225" y="-310"/>
      <point x="-273" y="-196" type="qcurve"/>
      <point x="-173" y="-127" type="line"/>
      <point x="-130" y="-190"/>
      <point x="15" y="-294"/>
      <point x="110" y="-294" type="qcurve" smooth="yes"/>
      <point x="212" y="-294"/>
      <point x="358" y="-195"/>
    </contour>
  </outline>
</glyph>
<glyph name="lownumeralsign" format="2">
  <advance width="385"/>
  <unicode hex="0375"/>
  <outline>
    <contour>
      <point x="164" y="-235" type="line"/>
      <point x="5" y="-217" type="line"/>
      <point x="-21" y="-172" type="line"/>
      <point x="179" y="265" type="line"/>
      <point x="270" y="232" type="line"/>
    </contour>
  </outline>
</glyph>
<glyph name="Gamma" format="2">
  <advance width="1550"/>
  <unicode hex="0393"/>
  <outline>
    <contour>
      <point x="100" y="0" type="line"/>
      <point x="100" y="130" type="line"/>
      <point x="308" y="167" type="line"/>
      <point x="310" y="760" type="line"/>
      <point x="308" y="1322" type="line"/>
      <point x="100" y="1356" type="line"/>
      <point x="100" y="1500" type="line"/>
      <point x="1503" y="1500" type="line"/>
      <point x="1503" y="1021" type="line"/>
      <point x="1331" y="1021" type="line"/>
      <point x="1296" y="1364" type="line"/>
      <point x="842" y="1364" type="line"/>
      <point x="812" y="1344" type="line"/>
      <point x="810" y="760" type="line"/>
      <point x="812" y="162" type="line"/>
      <point x="1040" y="130" type="line"/>
      <point x="1040" y="0" type="line"/>
    </contour>
  </outline>
</glyph>
<glyph name="Delta" format="2">
  <advance width="1956"/>
  <unicode hex="0394"/>
  <outline>
    <contour>
      <point x="155" y="0" type="line"/>
      <point x="155" y="99" type="line"/>
      <point x="343" y="535" type="line"/>
      <point x="751" y="1521" type="line"/>
      <point x="1204" y="1521" type="line"/>
      <point x="1621" y="535" type="line"/>
      <point x="1810" y="100" type="line"/>
      <point x="1810" y="0" type="line"/>
    </contour>
    <contour>
      <point x="359" y="140" type="line"/>
      <point x="810" y="125" type="line"/>
      <point x="1261" y="140" type="line"/>
      <point x="1270" y="146" type="line"/>
      <point x="1117" y="535" type="line"/>
      <point x="851" y="1176" type="line"/>
      <point x="817" y="1265" type="line"/>
      <point x="805" y="1265" type="line"/>
      <point x="768" y="1176" type="line"/>
      <point x="506" y="535" type="line"/>
      <point x="350" y="146" type="line"/>
    </contour>
  </outline>
</glyph>
<glyph name="Theta" format="2">
  <advance width="2451"/>
  <unicode hex="0398"/>
  <outline>
    <contour>
      <point x="1245" y="-31" type="qcurve"/>
      <point x="745" y="-31"/>
      <point x="98" y="396"/>
      <point x="98" y="709" type="qcurve" smooth="yes"/>
      <point x="98" y="967"/>
      <point x="721" y="1520"/>
      <point x="1226" y="1520" type="qcurve" smooth="yes"/>
      <point x="1734" y="1520"/>
      <point x="2353" y="1097"/>
      <point x="2353" y="776" type="qcurve" smooth="yes"/>
      <point x="2353" y="531"/>
      <point x="1747" y="-31"/>
    </contour>
    <contour>
      <point x="1235" y="120" type="qcurve"/>
      <point x="1520" y="120"/>
      <point x="1832" y="355"/>
      <point x="1832" y="745" type="qcurve"/>
      <point x="1832" y="1019"/>
      <point x="1463" y="1362"/>
      <point x="1235" y="1362" type="qcurve"/>
      <point x="936" y="1362"/>
      <point x="620" y="1153"/>
      <point x="620" y="862" type="qcurve" smooth="yes"/>
      <point x="620" y="556"/>
      <point x="1087" y="120"/>
    </contour>
    <contour>
      <point x="834" y="641" type="line"/>
      <point x="834" y="830" type="line"/>
      <point x="843" y="830" type="line"/>
      <point x="1223" y="804" type="line"/>
      <point x="1233" y="804" type="line"/>
      <point x="1610" y="830" type="line"/>
      <point x="1620" y="830" type="line"/>
      <point x="1620" y="641" type="line"/>
      <point x="1610" y="641" type="line"/>
      <point x="1233" y="667" type="line"/>
      <point x="1223" y="667" type="line"/>
      <point x="843" y="641" type="line"/>
    </contour>
  </outline>
</glyph>
<glyph name="Lambda" format="2">
  <advance width="1981"/>
  <unicode hex="039B"/>
  <outline>
    <contour>
      <point x="-4" y="0" type="line"/>
      <point x="-4" y="130" type="line"/>
      <point x="210" y="165" type="line"/>
      <point x="379" y="564" type="line"/>
      <point x="726" y="1521" type="line"/>
      <point x="1269" y="1521" type="line"/>
      <point x="1574" y="689" type="line"/>
      <point x="1794" y="165" type="line"/>
      <point x="1998" y="130" type="line"/>
      <point x="1998" y="0" type="line"/>
      <point x="1107" y="0" type="line"/>
      <point x="1107" y="130" type="line"/>
      <point x="1282" y="161" type="line"/>
      <point x="1159" y="422" type="line"/>
      <point x="902" y="1030" type="line"/>
      <point x="840" y="1265" type="line"/>
      <point x="829" y="1265" type="line"/>
      <point x="774" y="1030" type="line"/>
      <point x="424" y="369" type="line"/>
      <point x="375" y="160" type="line"/>
      <point x="556" y="130" type="line"/>
      <point x="556" y="0" type="line"/>
    </contour>
  </outline>
</glyph>
<glyph name="Xi" format="2">
  <advance width="1491"/>
  <unicode hex="039E"/>
  <outline>
    <contour>
      <point x="96" y="0" type="line"/>
      <point x="45" y="430" type="line"/>
      <point x="229" y="430" type="line"/>
      <point x="313" y="127" type="line"/>
      <point x="745" y="115" type="line"/>
      <point x="1177" y="127" type="line"/>
      <point x="1262" y="430" type="line"/>
      <point x="1446" y="430" type="line"/>
      <point x="1395" y="0" type="line"/>
    </contour>
    <contour>
      <point x="292" y="506" type="line"/>
      <point x="292" y="966" type="line"/>
      <point x="454" y="966" type="line"/>
      <point x="489" y="806" type="line"/>
      <point x="745" y="789" type="line"/>
      <point x="1002" y="806" type="line"/>
      <point x="1037" y="966" type="line"/>
      <point x="1199" y="966" type="line"/>
      <point x="1199" y="506" type="line"/>
      <point x="1037" y="506" type="line"/>
      <point x="1002" y="666" type="line"/>
      <point x="745" y="683" type="line"/>
      <point x="489" y="666" type="line"/>
      <point x="454" y="506" type="line"/>
    </contour>
    <contour>
      <point x="91" y="1046" type="line"/>
      <point x="91" y="1500" type="line"/>
      <point x="1400" y="1500" type="line"/>
      <point x="1400" y="1046" type="line"/>
      <point x="1216" y="1046" type="line"/>
      <point x="1184" y="1363" type="line"/>
      <point x="745" y="1375" type="line"/>
      <point x="307" y="1363" type="line"/>
      <point x="275" y="1046" type="line"/>
    </contour>
  </outline>
</glyph>
<glyph name="Pi" format="2">
  <advance width="2489"/>
  <unicode hex="03A0"/>
  <outline>
    <contour>
      <point x="90" y="0" type="line"/>
      <point x="90" y="130" type="line"/>
      <point x="308" y="165" type="line"/>
      <point x="310" y="754" type="line"/>
      <point x="308" y="1322" type="line"/>
      <point x="90" y="1356" type="line"/>
      <point x="90" y="1500" type="line"/>
      <point x="2399" y="1500" type="line"/>
      <point x="2399" y="1356" type="line"/>
      <point x="2181" y="1322" type="line"/>
      <point x="2179" y="754" type="line"/>
      <point x="2181" y="165" type="line"/>
      <point x="2399" y="130" type="line"/>
      <point x="2399" y="0" type="line"/>
      <point x="1458" y="0" type="line"/>
      <point x="1458" y="130" type="line"/>
      <point x="1676" y="165" type="line"/>
      <point x="1678" y="754" type="line"/>
      <point x="1676" y="1318" type="line"/>
      <point x="1628" y="1353" type="line"/>
      <point x="863" y="1353" type="line"/>
      <point x="814" y="1318" type="line"/>
      <point x="812" y="754" type="line"/>
      <point x="814" y="165" type="line"/>
      <point x="1032" y="130" type="line"/>
      <point x="1032" y="0" type="line"/>
    </contour>
  </outline>
</glyph>
<glyph name="Sigma" format="2">
  <advance width="1717"/>
  <unicode hex="03A3"/>
  <outline>
    <contour>
      <point x="88" y="0" type="line"/>
      <point x="58" y="92" type="line"/>
      <point x="611" y="719" type="line"/>
      <point x="611" y="728" type="line"/>
      <point x="103" y="1410" type="line"/>
      <point x="103" y="1500" type="line"/>
      <point x="1677" y="1500" type="line"/>
      <point x="1677" y="1016" type="line"/>
      <point x="1493" y="1016" type="line"/>
      <point x="1457" y="1352" type="line"/>
      <point x="692" y="1352" type="line"/>
      <point x="683" y="1344" type="line"/>
      <point x="957" y="995" type="line"/>
      <point x="957" y="863" type="line"/>
      <point x="314" y="112" type="line"/>
      <point x="324" y="151" type="line"/>
      <point x="1430" y="151" type="line"/>
      <point x="1516" y="473" type="line"/>
      <point x="1700" y="473" type="line"/>
      <point x="1649" y="0" type="line"/>
    </contour>
  </outline>
</glyph>
<glyph name="Phi" format="2">
  <advance width="1850"/>
  <unicode hex="03A6"/>
  <outline>
    <contour>
      <point x="652" y="-46" type="line"/>
      <point x="652" y="84" type="line"/>
      <point x="840" y="119" type="line"/>
      <point x="843" y="270" type="line"/>
      <point x="851" y="270" type="line"/>
      <point x="853" y="745" type="line"/>
      <point x="997" y="745" type="line"/>
      <point x="999" y="270" type="line"/>
      <point x="1007" y="270" type="line"/>
      <point x="1010" y="119" type="line"/>
      <point x="1198" y="84" type="line"/>
      <point x="1198" y="-46" type="line"/>
    </contour>
    <contour>
      <point x="853" y="745" type="line"/>
      <point x="851" y="1236" type="line"/>
      <point x="843" y="1236" type="line"/>
      <point x="840" y="1365" type="line"/>
      <point x="652" y="1399" type="line"/>
      <point x="652" y="1543" type="line"/>
      <point x="1198" y="1543" type="line"/>
      <point x="1198" y="1399" type="line"/>
      <point x="1010" y="1365" type="line"/>
      <point x="1007" y="1236" type="line"/>
      <point x="999" y="1236" type="line"/>
      <point x="997" y="745" type="line"/>
    </contour>
    <contour>
      <point x="925" y="215" type="qcurve" smooth="yes"/>
      <point x="457" y="215"/>
      <point x="60" y="490"/>
      <point x="60" y="680" type="qcurve"/>
      <point x="60" y="986"/>
      <point x="628" y="1293"/>
      <point x="925" y="1293" type="qcurve" smooth="yes"/>
      <point x="1394" y="1293"/>
      <point x="1790" y="1018"/>
      <point x="1790" y="856" type="qcurve" smooth="yes"/>
      <point x="1790" y="522"/>
      <point x="1360" y="215"/>
    </contour>
    <contour>
      <point x="925" y="327" type="qcurve"/>
      <point x="1408" y="327"/>
      <point x="1610" y="459"/>
      <point x="1610" y="771" type="qcurve" smooth="yes"/>
      <point x="1610" y="1006"/>
      <point x="1328" y="1173"/>
      <point x="920" y="1173" type="qcurve"/>
      <point x="583" y="1173"/>
      <point x="246" y="1041"/>
      <point x="246" y="729" type="qcurve" smooth="yes"/>
      <point x="246" y="425"/>
      <point x="619" y="327"/>
    </contour>
  </outline>
</glyph>
<glyph name="Psi" format="2">
  <advance width="2971"/>
  <unicode hex="03A8"/>
  <outline>
    <contour>
      <point x="1006" y="0" type="line"/>
      <point x="1006" y="130" type="line"/>
      <point x="1234" y="165" type="line"/>
      <point x="1235" y="520" type="line"/>
      <point x="1240" y="520" type="line"/>
      <point x="1240" y="811" type="line"/>
      <point x="1234" y="1322" type="line"/>
      <point x="1046" y="1356" type="line"/>
      <point x="1046" y="1500" type="line"/>
      <point x="1926" y="1500" type="line"/>
      <point x="1926" y="1356" type="line"/>
      <point x="1738" y="1322" type="line"/>
      <point x="1732" y="811" type="line"/>
      <point x="1732" y="520" type="line"/>
      <point x="1737" y="520" type="line"/>
      <point x="1738" y="165" type="line"/>
      <point x="1966" y="130" type="line"/>
      <point x="1966" y="0" type="line"/>
    </contour>
    <contour>
      <point x="1486" y="457" type="qcurve"/>
      <point x="735" y="457"/>
      <point x="299" y="717"/>
      <point x="280" y="1007" type="qcurve" smooth="yes"/>
      <point x="253" y="1322" type="line"/>
      <point x="72" y="1356" type="line"/>
      <point x="72" y="1500" type="line"/>
      <point x="709" y="1500" type="line"/>
      <point x="742" y="1477" type="line"/>
      <point x="782" y="1013" type="line" smooth="yes"/>
      <point x="805" y="742"/>
      <point x="1209" y="602"/>
      <point x="1486" y="602" type="qcurve"/>
      <point x="1761" y="602"/>
      <point x="2170" y="742"/>
      <point x="2189" y="1013" type="qcurve" smooth="yes"/>
      <point x="2229" y="1477" type="line"/>
      <point x="2262" y="1500" type="line"/>
      <point x="2899" y="1500" type="line"/>
      <point x="2899" y="1356" type="line"/>
      <point x="2718" y="1321" type="line"/>
      <point x="2691" y="1007" type="line" smooth="yes"/>
      <point x="2666" y="717"/>
      <point x="2235" y="457"/>
    </contour>
  </outline>
</glyph>
<glyph name="Omega" format="2">
  <advance width="1739"/>
  <unicode hex="03A9"/>
  <anchor x="151" y="1500" name="tonos"/>
  <outline>
    <contour>
      <point x="37" y="0" type="line"/>
      <point x="-4" y="390" type="line"/>
      <point x="168" y="390" type="line"/>
      <point x="245" y="108" type="line"/>
      <point x="562" y="108" type="line"/>
      <point x="576" y="236" type="line"/>
      <point x="361" y="303"/>
      <point x="103" y="633"/>
      <point x="103" y="872" type="qcurve"/>
      <point x="103" y="1168"/>
      <point x="517" y="1520"/>
      <point x="869" y="1520" type="qcurve"/>
      <point x="1219" y="1520"/>
      <point x="1636" y="1171"/>
      <point x="1636" y="871" type="qcurve"/>
      <point x="1636" y="633"/>
      <point x="1375" y="303"/>
      <point x="1163" y="236" type="qcurve"/>
      <point x="1176" y="108" type="line"/>
      <point x="1493" y="108" type="line"/>
      <point x="1571" y="390" type="line"/>
      <point x="1743" y="390" type="line"/>
      <point x="1701" y="0" type="line"/>
      <point x="1040" y="0" type="line"/>
      <point x="1010" y="330" type="line"/>
      <point x="1227" y="393"/>
      <point x="1445" y="646"/>
      <point x="1445" y="872" type="qcurve"/>
      <point x="1445" y="1132"/>
      <point x="1135" y="1380"/>
      <point x="869" y="1380" type="qcurve"/>
      <point x="604" y="1380"/>
      <point x="294" y="1131"/>
      <point x="294" y="872" type="qcurve"/>
      <point x="294" y="646"/>
      <point x="511" y="393"/>
      <point x="728" y="330" type="qcurve"/>
      <point x="698" y="0" type="line"/>
    </contour>
  </outline>
</glyph>
